<svg
  xmlns="http://www.w3.org/2000/svg"
  width="978"
  height="1101"
  viewBox="0 0 978 1101"
  version="1.1"
>
  <path
    d="M 285.6 306.8 C 282.5 310.7 277.8 317.3 275.1 321.3 C 269.3 330 237.2 392 222.7 422.5 C 213.6 441.8 202.9 460.4 190.2 479 C 187.9 482.3 187.8 483 188.4 492.5 C 189.5 508.5 191.3 519.3 193.5 522.7 C 194.8 524.7 195.9 525 200.8 525 C 206.9 525 214 523.4 214 522.1 C 214 520.5 211.5 519.1 206.5 518 C 196.4 515.6 192 513.9 192 512.2 C 192 511.3 193.2 507 194.6 502.6 L 197.1 494.5 L 216.4 479.1 L 235.7 463.7 L 236.4 454.8 C 237.2 442.9 237.6 442.2 260.8 408.5 C 288 369.2 302.3 349.1 309.2 340.6 C 324.5 321.8 329 316.1 329 315.6 C 329 315.3 327.9 315 326.7 315 C 322.6 315 309.7 311.3 303.6 308.4 C 300.4 306.9 296.3 304.3 294.6 302.6 L 291.3 299.5 L 285.6 306.8"
    stroke="none"
    fill="#535353"
    id="MACRO_BP_FOREARM"
    fill-rule="evenodd"
  />
    <path
    d="M 574.5 769.8 C 569.2 771.9 544.8 772.1 537.2 770.1 C 534.3 769.4 531.7 768.9 531.5 769.1 C 531.4 769.3 531.8 772.9 532.6 776.9 C 533.7 782.8 534 794.4 533.9 830.9 C 533.7 869.8 534 879.4 535.4 889.3 C 537.9 907.3 546.7 948.7 557.1 991.9 C 560.3 1005.5 560.8 1008.9 560 1011.9 C 559.5 1013.9 558.6 1020.3 558.1 1026 C 557.4 1034.3 556 1040.1 551.7 1053.5 C 548.7 1062.8 545.7 1073.1 545.1 1076.2 C 543.9 1081.6 544 1082.3 546.6 1088 L 549.3 1094 L 576 1094 L 602.8 1094 L 605.4 1090.9 C 612.9 1082 612.7 1078.1 603.5 1059.2 L 596.8 1045.2 L 598 1038.2 C 599.1 1031.8 599 1030.7 597.1 1026.5 C 596 1024 594.2 1020.7 593.2 1019.2 C 591.4 1016.6 591.3 1012.6 590.6 925.5 C 590.3 875.5 589.6 828.3 589 820.8 C 588.2 809.5 585.4 792.9 580.5 770.3 C 579.9 767.7 579.9 767.7 574.5 769.8"
    stroke="none"
    id="MACRO_BP_LOWER_LEG"
    fill="#535353"
    fill-rule="evenodd"
  />
  <path
    d="M 367.7 174 C 358.8 176.8 351.4 182.4 344.1 191.8 C 337.3 200.5 309.8 258.8 301.5 282 C 299.1 288.6 296.6 293.7 294.7 295.7 C 291.1 299.5 291.5 300.9 297.2 304.8 C 305.4 310.3 324.9 316.4 329.3 314.7 C 330.2 314.4 331.9 311.9 333.2 309.3 C 334.6 306.7 338.7 298.9 342.5 292 C 355.9 267.8 372.7 230.6 377 215.8 C 377.8 213.1 378.8 211 379.2 211 C 379.7 211 379.4 210 378.6 208.8 C 376.4 205.3 374.7 194.6 374.6 182.8 C 374.6 176.8 374.3 172 374 172.1 C 373.7 172.1 370.9 172.9 367.7 174"
    stroke="none"
    fill="#979797"
    fill-rule="evenodd"
    id="MACRO_BP_UPPER_ARM"
  />
  <path
    d="M 392 783.8 C 382 814.5 382.5 810.6 382.7 859.5 C 382.8 904.3 383.9 940 386.6 990.1 C 388.2 1019.5 388.2 1019.7 386.1 1027.1 C 384.9 1031.3 384 1037.6 384 1041.3 C 384 1047 383.3 1049.8 378.9 1060.7 C 371.3 1079.3 370.7 1082.2 372.7 1089.3 L 374.3 1095 L 401.3 1094.8 L 428.4 1094.5 L 430.3 1089 C 432.1 1083.8 432.1 1083.2 430.6 1075.8 C 429.7 1071.6 426.9 1061.8 424.5 1054 C 420.2 1040.6 420 1039.3 420.6 1032 C 421.2 1025.6 420.9 1023.2 419.1 1017.8 L 417 1011.4 L 423.5 971.4 C 437.8 884.4 438.5 877.3 437.7 822.4 C 437.3 791.4 437.5 779.9 438.5 775.9 L 439.7 770.5 L 421.6 770.5 C 410.1 770.5 402.3 770.1 400.3 769.3 L 397 768.1 L 392 783.8"
    stroke="none"
    fill="#b1b1b1"
    fill-rule="evenodd"
    id="MACRO_BP_LOWER_LEG"
  />
  <path
    d="M 682 297.9 C 682 299.9 674.5 307.3 668.7 311.1 C 665.5 313.2 660.5 315.6 657.7 316.6 C 654.8 317.5 652.4 318.4 652.2 318.5 C 652 318.7 652.7 319.9 653.8 321.2 C 671.8 342.3 682.3 356.4 712.6 400.5 C 742.5 443.9 741.5 442.1 742.4 454.4 C 742.7 459.4 743.4 463.6 743.8 463.9 C 744.8 464.6 769.3 484.3 770 485 C 770.3 485.3 772.8 487.3 775.5 489.5 C 781.8 494.5 781.6 494.1 784.4 502.9 C 787.2 511.8 787.7 510.7 788.6 494 L 789.3 482.5 L 784 474.5 C 781.1 470.1 777.3 464.3 775.5 461.5 C 773.8 458.8 770.9 454.3 769.1 451.5 C 767.3 448.8 763.3 441.1 760.2 434.6 C 751.6 416.5 724.6 363 713 341 C 703.1 322.3 699.5 316.7 688.6 303.5 C 683.6 297.4 682 296 682 297.9"
    stroke="none"
    fill="#939393"
    fill-rule="evenodd"
    id="MACRO_BP_FOREARM"
  />
  <path
    d="M 472.4 7 C 465 8.1 455.7 13.4 448.4 20.9 C 439.3 30.1 437 35.2 437 45.9 C 437.1 54.6 439.1 72.1 440.4 75.2 C 441.3 77.2 438.5 79 434.6 79 C 430.1 79 428.7 84.9 431.6 91.8 C 433.4 96.1 438.7 102 440.9 102 C 442 102 448.4 100.2 449.8 99.4 C 449.9 99.3 449.2 96.9 448 94.1 C 445.8 88.5 445.6 87 446.8 87 C 447.3 87 448.7 89.4 450 92.3 C 461.7 118.4 465.4 123.7 473.8 126.1 C 479.5 127.8 498.8 127.8 504.7 126.1 C 509.9 124.7 510.9 123.3 520.5 104.4 C 528.2 89.2 529.5 87.2 530.6 88.3 C 531.4 89.1 516.9 118.9 513.5 123.3 C 509.4 128.8 506.5 129.5 488.5 129.5 C 473.5 129.5 472.3 129.4 468.8 127.2 C 463.5 123.9 457.4 116.7 454.1 109.7 C 451.3 103.9 451.2 103.8 449.7 106 C 448.4 107.9 448.4 108.9 449.6 114.3 C 451.3 121.5 454.5 127.1 459.4 131.8 C 462.3 134.7 464 135.3 469.7 136.1 C 478.2 137.2 493 137.2 503.5 136.1 L 511.5 135.2 L 516.7 129.6 C 522.5 123.4 524.7 118 525.7 107.2 C 526 103.8 526.7 100.7 527.2 100.4 C 527.6 100.1 529.6 100.4 531.5 101 C 533.4 101.6 535.9 101.8 537.1 101.5 C 540 100.6 544.8 92.6 545.6 87.5 C 546.5 81.1 545.6 79.4 540.7 78.4 C 537.3 77.6 536.6 77.1 536.8 75.5 C 537 74.4 537.1 72.4 537.1 71.1 C 537 69.8 537.9 63.4 539 57 C 540.1 50.6 541 43.7 541 41.7 C 541 35.8 537.4 27.9 531.6 20.8 C 522.2 9.5 511.7 5.9 488.5 6.1 C 482.4 6.2 475.2 6.6 472.4 7"
    stroke="none"
    fill="#313131" 
    fill-rule="evenodd"
    id="MACRO_BP_FACE"
  />
    <path
    d="M 397.4 653.6 C 397.7 676.1 398.3 710.9 398.6 731 C 399.1 767.3 399.1 767.5 401.3 768.4 C 404.4 769.6 426.5 770.4 434.4 769.5 C 440.1 768.9 441.1 768.5 441.5 766.7 C 441.8 765.5 445.2 750.6 449.1 733.5 C 467.6 652.4 475 619.6 474.7 619.4 C 474.5 619.2 470.2 619.5 465 620 C 447.8 621.8 410.8 618.1 398.3 613.3 C 396.9 612.7 396.8 616.5 397.4 653.6"
    stroke="none"
    fill="#555555"
    fill-rule="evenodd"
    id="MACRO_BP_UPPER_LEG"
  />
  <path d="" stroke="none" fill="#c7c7c7" fill-rule="evenodd" />
  <path
    d="M 463 140.6 C 463 143.8 462.3 149.2 461.4 152.8 C 459.8 159.1 459.8 159.2 462 161.6 C 466 165.7 472.4 167.5 483.5 167.5 C 497.7 167.4 508.6 164.4 513.4 159.1 C 515 157.3 515.1 156.5 514.2 152.8 C 513.6 150.4 512.9 145.6 512.6 142.1 C 512.2 138.6 511.9 135.6 511.7 135.4 C 511.6 135.3 507.2 135.6 502 136.2 C 492.5 137.2 468 136.7 464.7 135.4 C 463.2 134.9 463 135.5 463 140.6"
    stroke="none"
    fill="#d7d7d7"
    id="MACRO_BP_NECK"
    fill-rule="evenodd"
  />
    <path
    d="M 409.4 353.8 C 409.7 355.8 411.6 375.1 413.6 396.7 L 417.2 435.9 L 414 454.7 C 412.3 465 410.4 474.3 409.9 475.4 C 408.3 478.2 410.4 479.7 419.2 481.9 C 432.1 485.2 449.5 486.5 481.5 486.4 C 518.3 486.4 543.5 484.1 559.7 479.4 C 564.9 477.9 568.4 475.5 567.6 474.1 C 567.3 473.7 565.1 464.1 562.6 452.8 L 558.1 432.3 L 562.5 392.9 C 565 371.3 566.8 353.4 566.5 353.2 C 566.3 352.9 565.5 353.2 564.8 353.8 C 562.3 355.8 547.9 360.1 538.3 361.6 C 532.9 362.4 519.5 363.4 508.5 363.7 C 471.4 364.8 431.4 360 414.2 352.4 L 408.8 350 L 409.4 353.8"
    stroke="none"
    id="MACRO_BP_ABDOMEN"
    fill="#d7d7d7"
    fill-rule="evenodd"
  />
   <path
    d="M 572.5 616.5 C 559.6 618.9 529.7 620.3 516.6 619.1 C 510 618.5 504.5 618.1 504.4 618.3 C 504.3 618.4 506.1 629.8 508.6 643.5 C 517.2 691.8 530.1 764.5 530.5 766.6 C 531.7 772.3 568.2 773.9 577.9 768.6 C 580.3 767.3 580.3 767.2 580.1 751.4 C 580 742.7 580.4 721.8 580.9 705 C 581.5 688.2 582.2 661.1 582.6 644.8 C 583.2 616.1 583.2 615 581.4 615.1 C 580.3 615.2 576.4 615.8 572.5 616.5"
    stroke="none"
    fill="#a5a5a5"
    id="MACRO_BP_UPPER_LEG"
    fill-rule="evenodd"
  />
  <path
    d="M 605.8 180.2 C 606.4 191.4 602.7 210 600 210 C 595.9 210 627.6 280.4 642.8 305.3 C 645.1 309 646.7 312 646.4 312 C 646.1 312 647.1 313.5 648.5 315.4 L 651.1 318.9 L 656.7 316.9 C 664 314.4 670.3 310.7 675.8 305.6 C 682.8 299.1 684.3 294.5 680.5 290.7 C 679.8 290 677.4 284.4 675.2 278.4 C 665.9 253.4 637.4 194.1 631.7 188.1 C 626.7 182.9 618.1 176.9 612.8 174.8 C 605.4 172 605.5 172 605.8 180.2"
    stroke="none"
    fill="#242424"
    id="MACRO_BP_UPPERARM"
    fill-rule="evenodd"
  />
  <path
    d="M 513.4 159.2 C 508.6 164.4 497.6 167.4 483.5 167.5 C 471.9 167.5 465.5 165.6 461.6 161 C 459.4 158.3 459.1 158.2 457.8 159.7 C 455.6 162.4 445.1 168.8 439.4 171 C 429.4 174.7 421.6 175.3 406.6 173.6 C 399.2 172.7 389 172 384.1 172 L 375.1 172 L 374.4 175.8 C 373.6 179.8 375.4 199.2 377 205.1 C 377.8 208 378.8 209 381.9 210.2 C 385.8 211.7 385.8 211.8 387.9 221.1 C 389 226.3 390.4 232.3 390.9 234.5 C 391.6 237.6 391.8 237.9 392 236 C 392.3 232.7 392.9 235.8 399 272 C 403.3 297.2 405.2 311.4 408.6 344.8 C 409.2 350.2 409.2 350.2 414.3 352.5 C 436.6 362.3 502.5 367.2 538.2 361.6 C 548.2 360 562.1 355.9 565.3 353.5 C 566.9 352.4 567.6 348.6 569.6 330.8 C 571.3 315.2 574.2 298.4 580.4 268 C 592.2 210.1 591.6 212.3 595 210.5 C 596.6 209.7 598.5 209.3 599.3 209.6 C 602.3 210.7 606 195.4 606 182.1 C 606 177.9 605.6 173.9 605.1 173.1 C 604.1 171.5 591.2 172.1 570 174.6 C 556 176.3 547.8 175.9 539.2 172.9 C 531.8 170.4 520.9 163.8 517.7 160.1 L 515.2 157.1 L 513.4 159.2 M 467.5 220.3 C 467.1 221.1 467.3 226.7 467.9 232.6 C 469.3 246.2 469.3 270.3 468 275.2 C 466.5 280.3 460.2 285.6 444.1 295.4 C 431 303.3 427.8 306 431.7 306 C 434.3 306 457.8 292.4 463.5 287.7 C 472 280.5 472.5 278.7 472.5 254 C 472.4 233.4 471.3 221.9 469 219.6 C 468.4 219 467.8 219.2 467.5 220.3 M 516.1 221.3 C 514.4 225.8 512.7 249.8 513.2 263.4 C 513.8 278.3 514.8 281.6 520.6 287.2 C 529.2 295.3 548 307.3 549.6 305.7 C 550.8 304.6 547.9 302.1 537.4 294.9 C 525.6 286.8 519.6 280.8 518.1 275.4 C 516.7 270.3 516.7 249.3 518.1 233.4 C 518.9 224.4 518.9 220.5 518.2 219.8 C 517.4 219 516.8 219.4 516.1 221.3 M 491.3 315 C 491.3 319.7 491.5 321.6 491.7 319.3 C 491.9 316.9 491.9 313.1 491.7 310.8 C 491.5 308.4 491.3 310.3 491.3 315"
    stroke="none"
    fill="#fdfdfd"
    id="MACRO_BP_CHEST"
    fill-rule="evenodd"
  />
  
  <path
    d="M 566.3 476.5 C 563.6 479.4 546.2 483 524 485.2 C 507.1 486.8 454.8 486.8 439.1 485.2 C 426.5 483.8 412.4 480.8 410.6 479 C 409.4 477.8 407.6 487.6 403.1 519.5 C 399.5 544.5 398.3 558.8 397.4 589.7 L 396.7 612.9 L 402.1 614.4 C 417.4 618.8 449.4 621.7 464.8 620.1 C 469.9 619.5 474.4 618.9 474.9 618.6 C 475.4 618.3 476.1 616 476.4 613.5 C 476.8 611.1 477.5 608.8 478.1 608.5 C 478.6 608.1 479 606.9 479 605.7 C 479 604.5 480.2 598.4 481.6 592.2 C 483 586 484 580.7 483.8 580.5 C 483.6 580.2 478.9 581.7 473.4 583.7 C 464.5 586.9 462.3 587.4 450.9 587.8 C 436.4 588.3 431.6 587.3 418.5 581 C 408.8 576.3 407.6 575.5 408.4 574.2 C 408.8 573.5 412.5 574.8 418.3 577.5 C 431.8 584 438.2 585.3 451.5 584.8 C 463.8 584.2 473 581.5 483.1 575.4 C 486.2 573.5 489.5 572 490.4 572 C 491.3 572 496.2 573.8 501.3 575.9 C 524.1 585.7 543.1 587.6 556 581.4 C 559.6 579.6 564.9 576.4 567.9 574.1 C 573.8 569.6 575 569.2 575 571.5 C 575 573.4 564.8 581 557.2 584.7 C 551.8 587.4 550.9 587.5 537.5 587.4 C 523.8 587.4 523.3 587.3 510.7 583.1 C 503.6 580.8 497.6 579.1 497.3 579.4 C 497 579.6 498.5 588.4 500.5 598.9 L 504.2 617.9 L 509.9 618.7 C 523 620.6 558.1 619.1 576.3 616 L 583 614.8 L 583 595.1 C 583 560.2 580.9 541.6 571.9 496 C 569.6 484.7 567.8 475.4 567.7 475.4 C 567.6 475.3 567 475.8 566.3 476.5"
    stroke="none"
    fill="#cdcdcd"
    id="MACRO_BP_BUTTOCKS"
    fill-rule="evenodd"
  />
  <!-- <path
    d="M 466.6 2.1 C 455.2 4.8 439.6 17.8 433.1 29.9 L 429.8 36.2 L 430.4 50.4 C 430.7 58.1 431.2 66.1 431.6 68.1 C 432.1 71.4 431.9 71.9 429.4 73.1 C 425.4 75.1 424 78.5 424 86.8 C 424 92 424.5 95.1 425.9 97.8 C 428.1 102.1 435.6 109.4 438.8 110.5 C 440.4 110.9 441.4 112.7 442.5 116.8 C 444.7 124.8 447.5 130.6 451.8 135.8 C 454.9 139.6 455.4 140.9 455.4 145.4 C 455.4 152.5 453.1 156.3 446.2 160.3 C 433.8 167.5 423 169.8 409.6 167.9 C 405.1 167.3 394.5 166.8 386 166.9 C 373.1 166.9 369.5 167.3 364.6 169 C 347.5 174.9 338.9 184.8 321.6 219 C 309 243.7 303.5 256.3 293.3 283.5 C 291.4 288.6 288.4 293.3 282.5 300.6 C 278 306.1 272.7 313.1 270.8 316.1 C 266 323.4 248.6 355.9 239.1 375.5 C 210 435.2 203 448.3 187.2 472 L 180.9 481.5 L 181.5 492.5 C 182.4 509.6 185 526.2 186.9 527.7 C 193.4 532.7 207.9 533.9 216.3 530.2 C 220.6 528.3 221 527.8 221 524.7 C 221 519.7 219.2 515.4 216.6 514.2 C 215.3 513.6 211.5 512.6 208.3 512 C 200 510.4 199.8 510.2 201.2 505.6 C 202.4 501.6 207.5 496.2 217 488.9 C 220 486.5 224.1 483.2 226.1 481.5 C 228 479.9 232 476.5 234.9 474.1 C 242.9 467.3 243 467.3 243.1 461.7 C 243.3 446.4 243.3 446.6 262.9 418.5 C 266.7 413 273 404 276.7 398.6 C 297 369 311.6 349.2 324.8 333.5 C 336.4 319.8 336.3 319.9 338.7 316.5 C 341.6 312.4 376.3 240.7 379.1 232.9 C 380.4 229.5 381.5 227.1 381.7 227.6 C 382.2 229.3 392.1 277.5 394 287.5 C 397 303.8 399.7 327.3 404.9 384 C 409.6 435.2 409.8 437.8 408.4 445 C 405.8 458.4 395.1 522.2 393.4 534.5 C 391.9 545.1 391.6 559.8 391.3 657 L 390.9 767.4 L 384.5 786.5 C 379.8 800.2 377.8 808 377 814.5 C 374.8 834.4 376.1 911.8 380 983.1 C 381.7 1015.2 381.7 1019.2 380.4 1023.6 C 379.5 1026.3 378.5 1032.8 378 1038.1 C 377.3 1045.8 376.3 1049.7 373.1 1057.5 C 367.7 1070.4 365 1079.3 365 1084.3 C 365 1086.7 366.3 1091.1 368.1 1095.2 L 371.3 1102 L 402.5 1102 L 433.8 1102 L 435.9 1097.5 C 441.5 1085.6 441.2 1080.8 433.5 1055.3 C 429.5 1041.9 429 1039.2 429 1030.5 C 429 1024.1 428.4 1018.8 427.3 1015.3 L 425.6 1010 L 434.9 953 C 440 921.7 444.6 891.9 445 886.8 C 445.5 881.7 446 855.4 446 828.4 L 446 779.4 L 467 688.9 C 492.4 579.9 490.3 588.9 490.7 589.3 C 490.9 589.5 499 633.1 508.7 686.1 L 526.4 782.5 L 527 838.5 L 527.7 894.5 L 531.9 915 C 534.2 926.3 539.5 949.9 543.5 967.5 C 551.2 1000.9 553.1 1010.1 552.4 1011.1 C 552.2 1011.4 551.6 1016.7 551 1022.8 C 550.4 1028.9 548.9 1037.6 547.5 1042.2 C 534.8 1084.6 534.8 1083.8 542.4 1096.8 L 545.5 1102 L 576.1 1102 L 606.8 1102 L 610.8 1096.8 C 620.7 1083.7 620.6 1077.7 609.7 1055.6 C 604.9 1045.9 604.4 1044.3 605.1 1041.1 C 607.2 1032 605.7 1025.2 599.2 1015.7 C 597.3 1013 597.3 1010.7 597.7 948.7 C 598.3 879.1 596.9 819.4 594.6 804 C 593.8 798.8 591.5 787.2 589.5 778.2 L 586 761.9 L 587 739.2 C 590.5 656.3 590.8 569.4 587.7 545 C 585.7 529.8 580.3 501.2 572.4 464.5 C 568.9 448.1 566 433.1 566 431.3 C 566 429.5 568.9 402.1 572.5 370.3 C 578.9 313.6 579.2 311.7 587.6 270 C 592.4 246.6 596.3 227.4 596.5 227.2 C 596.6 227.1 597.7 229.7 599 233.1 C 601.7 240.8 636.4 312.4 639.3 316.5 C 641.7 319.9 641.6 319.8 653.2 333.5 C 666.4 349.2 681 369 701.3 398.6 C 705 404 711.3 413 715.1 418.5 C 734.7 446.6 734.7 446.4 734.9 461.7 C 735 467.3 735.1 467.3 743.1 474.1 C 746 476.5 750 479.9 751.9 481.5 C 753.9 483.2 758 486.5 761 488.9 C 770.5 496.2 775.5 501.6 776.8 505.6 C 778.2 510.2 778 510.4 769.7 512 C 766.5 512.6 762.7 513.6 761.4 514.2 C 758.8 515.4 757 519.7 757 524.7 C 757 527.8 757.4 528.3 761.7 530.2 C 765.3 531.8 768.3 532.3 773.9 532.2 C 785.7 531.9 788.2 530.6 792.6 522.3 C 794.1 519.7 795.7 507.1 796.5 492.5 L 797.1 481.5 L 790.8 472 C 775 448.3 768 435.2 738.9 375.5 C 729.4 355.9 712 323.4 707.2 316.1 C 705.3 313.1 700 306.1 695.5 300.6 C 689.6 293.3 686.6 288.6 684.7 283.5 C 674.3 255.8 668.9 243.6 654.9 215.9 C 642.4 191.1 641.1 189.1 634.5 182.4 C 626.8 174.6 618.9 170.1 608 167.4 C 600.9 165.6 591.8 165.9 569.3 168.6 C 551.8 170.7 541.8 168.8 529.2 161 C 522.6 157 520.9 154.1 520.2 146.3 C 519.7 140 519.8 139.7 523.8 134.1 C 526.1 130.8 529 124.8 530.5 120.3 C 532.9 112.8 533.3 112.2 537.1 110.5 C 542.1 108.2 548.8 101.6 550.8 97 C 551.6 95.1 552.3 90.3 552.4 86.3 C 552.5 78.3 550.3 73.8 546.1 73.2 C 543.6 72.8 543.5 71.5 545.6 61.8 C 546.5 57.8 547.3 49.8 547.3 44 C 547.5 33.8 547.4 33.3 544 27 C 539.8 19.1 529.3 8.4 522.7 5.1 C 520 3.8 514.9 2.4 511.2 1.9 C 502.5 0.8 471.6 0.9 466.6 2.1 M 471 8 C 463.1 9.7 455.8 14 448.4 21.6 C 436.4 33.7 434.9 39.6 437.9 61 C 439 68.4 440 75.4 440.2 76.4 C 440.4 78 439.7 78.5 436.5 79.2 C 434.3 79.7 431.9 80.8 431.3 81.7 C 428.2 85.8 431.2 95.4 437.4 100.7 L 441 104 L 445.3 102.3 C 447.6 101.4 449.6 100.6 449.8 100.5 C 449.9 100.4 449.1 97.7 448 94.5 C 446.2 89.3 446 86.7 447.6 88.2 C 447.9 88.5 450.2 93.9 452.9 100.2 C 459.5 116.1 465.6 124.4 472.5 127 C 480.8 130.2 503.8 129 509 125.2 C 510.4 124.1 515.3 116 520.4 106.2 C 525.2 96.7 529.6 89 530.1 89 C 531.2 89 530.7 90.4 523.8 105 C 516.9 119.7 512.8 126.1 508.6 128.6 C 505.9 130.3 503.3 130.5 488.9 130.5 L 472.3 130.5 L 468.1 127.5 C 461.4 122.9 456.2 115.9 452.4 106.1 L 451.4 103.7 L 449.7 106.4 C 448 108.9 448 109.4 450.1 117.1 C 452 124.1 453 125.9 457.6 131 C 462.7 136.4 463 137.1 463 141.8 C 463 149.4 461.1 156.7 458.3 160 C 455.4 163.5 444.5 170.2 438.1 172.5 C 428.9 175.7 421 176.2 406.3 174.6 C 370.3 170.5 360.3 173.5 344 192.6 C 338.4 199.2 309.5 260.7 301.5 283 C 299.2 289.3 296.7 294.5 295.1 296.1 C 291.5 299.6 279.8 314.6 275.2 321.7 C 270.3 329.1 243.5 380.8 224.1 420.2 C 213.7 441.3 205.9 455.5 198.6 466.9 C 186.7 485.5 187 484.3 189 502.5 C 191.4 523.6 192.7 526.1 201.1 526.2 C 204.2 526.2 208.3 525.7 210.3 525.1 C 216.8 522.9 214.9 521.1 203 517.9 C 191.3 514.8 191.2 514.7 193.9 505.8 C 195.1 501.8 196.5 497.8 196.9 497 C 197.3 496.2 206 488.8 216.1 480.7 C 226.2 472.5 234.8 465.6 235.2 465.2 C 235.6 464.8 236.2 460.7 236.5 456 C 237.4 443.4 237.9 442.6 274.7 389.7 C 279.7 382.4 285.4 374.3 287.2 371.7 C 296.1 358.8 320.6 327.1 330.1 316.2 C 331.7 314.3 333 312.1 333 311.1 C 333 310.2 334.2 307.7 335.6 305.6 C 339.5 299.9 361 257.1 366.3 244.5 C 373 228.4 375.5 222.1 377 216.8 C 378.1 213.3 379 212.1 380.7 211.7 C 384.7 210.9 385.9 213.1 388.9 226.5 C 390.5 233.7 391.9 238.4 392 237 C 392.3 234 393.4 240.1 399.4 275.5 C 404.3 304.6 406.6 321.5 407.9 339.2 C 408.4 345.4 410.7 369.9 413 393.5 L 417.2 436.5 L 414 455.5 C 412.3 465.9 410.5 475.4 410 476.5 C 409.6 477.6 408.8 481.9 408.2 486 C 407.6 490.1 405.5 504.3 403.6 517.4 C 401.6 530.5 399.5 548.3 398.8 556.9 C 397.5 573.8 397.2 639 398 718.5 L 398.5 767.5 L 392.7 785 C 382.9 814.5 383.5 809.5 383.6 860 C 383.8 905.6 384.8 939.4 387.6 990.5 C 389.1 1019.2 389.1 1019.6 387.1 1027 C 385.9 1031.1 385 1037.3 385 1040.8 C 385 1046.2 384.1 1049.4 379.6 1061 C 371.8 1080.7 371.6 1081.8 373.6 1089 L 375.3 1095 L 402.3 1094.8 L 429.4 1094.5 L 431.3 1089 C 433.1 1083.7 433.1 1083.2 431.5 1075.5 C 430.6 1071.1 427.8 1061.3 425.4 1053.7 C 421.2 1040.6 421 1039.4 421.6 1032.1 C 422.2 1025.6 421.9 1023.2 420.1 1017.8 L 418 1011.4 L 424.4 972.4 C 438.8 885.5 439.4 878.4 438.8 822.5 C 438.3 783 438.4 780.1 440.2 773.5 C 441.3 769.6 442.3 765.4 442.5 764 C 442.9 761.5 467.3 654.5 473 630.5 C 474.7 623.4 476.3 615.9 476.6 614 C 476.9 612.1 477.5 610.1 478.1 609.5 C 478.6 609 479 607.7 479 606.5 C 479 605.4 480.2 599.4 481.6 593.2 C 483 587 484 581.7 483.8 581.4 C 483.5 581.2 478.9 582.6 473.4 584.6 C 464.4 588 462.3 588.3 450.9 588.8 C 436.4 589.3 431.6 588.3 418.5 582 C 408.8 577.3 407.6 576.5 408.4 575.2 C 408.8 574.5 412.5 575.8 418.3 578.5 C 431.8 585 438.2 586.3 451.5 585.8 C 463.8 585.2 473 582.5 483.1 576.4 C 486.2 574.5 489.5 573 490.4 573 C 491.3 573 496.2 574.8 501.3 576.9 C 524.1 586.7 543.1 588.6 556 582.4 C 559.6 580.6 564.9 577.4 567.9 575.1 C 573.8 570.6 575 570.2 575 572.5 C 575 574.4 564.8 582 557.2 585.7 C 551.8 588.4 550.9 588.5 537.5 588.4 C 523.8 588.4 523.3 588.3 510.7 584.1 C 503.6 581.8 497.6 580.1 497.3 580.4 C 497 580.6 498 587.1 499.5 594.7 C 501 602.3 502.6 610.8 503 613.5 C 503.4 616.3 507.6 639.9 512.3 666 C 517 692.1 523 725.2 525.5 739.5 C 528 753.8 530.8 768.6 531.8 772.5 C 533.3 778.6 533.5 785.9 533.6 829 C 533.7 884.3 533.9 886.9 541.1 921.8 C 545.5 943.2 554.7 983.8 558.5 999.1 C 560.4 1006.6 560.7 1009.4 560 1012.1 C 559.4 1014.1 558.6 1020.6 558.1 1026.6 C 557.4 1035.5 556.2 1040.6 551.7 1054.5 C 548.7 1063.8 545.7 1074.1 545.1 1077.2 C 543.9 1082.6 544 1083.3 546.6 1089 L 549.3 1095 L 576.4 1095 L 603.6 1095 L 607.4 1089.3 C 612.6 1081.3 612.2 1078.2 603.5 1060.2 L 596.8 1046.2 L 597.9 1039.6 C 599.3 1031.8 598.7 1029.1 594.5 1022.5 L 591.3 1017.5 L 590.7 925.5 C 590.3 874.9 589.6 827.9 589 821 C 588.5 814.1 586.2 799.5 584 788.5 L 580 768.5 L 580.5 736.5 C 580.7 718.9 581.4 687.4 582 666.5 C 584 597.3 583.2 562.5 579 536 C 576.4 519.9 568.2 476.4 567 472.5 C 566.5 470.9 564.3 461.4 562.1 451.4 L 558.1 433.3 L 562.5 394.4 C 564.9 373 567.4 353.3 567.9 350.5 C 568.4 347.8 568.7 345.3 568.5 344.9 C 567.2 342.9 573 305.9 579.9 271.3 C 590.8 217 591.8 213.2 594.1 211.9 C 597.4 210.2 599.5 211.7 601 216.7 C 605.9 233.7 630.6 286.3 643 306.5 C 645.3 310.4 647.2 313.6 647.1 313.8 C 646.6 314.7 647.6 316.2 652.3 321.1 C 663.3 332.7 681.8 357 702.5 387.2 C 705.3 391.2 710.2 398.3 713.4 403 C 730.6 427.6 740 442.4 740.9 445.8 C 741.4 447.8 742.1 452.8 742.3 456.9 C 742.6 461.1 743.4 464.8 744.2 465.5 C 744.9 466.2 753.3 472.9 762.8 480.5 C 772.4 488.1 780.8 495.3 781.5 496.4 C 782.2 497.6 783.6 501.4 784.6 504.8 C 786.9 513.3 787.8 511.3 788.6 495.9 L 789.2 483.5 L 777.3 464.8 C 770.7 454.5 763.3 441.9 760.9 436.8 C 752.7 419.4 712.4 339.5 707.5 331 C 704.8 326.3 698.5 317.2 693.6 310.7 C 688.6 304.2 683.7 297.2 682.6 295.2 C 681.6 293.2 680.4 291.3 680 291 C 679.6 290.7 677.4 285.6 675.2 279.5 C 666 254.5 637.4 195.2 631.7 189.1 C 626.2 183.3 616.8 177 611 175.3 C 608 174.4 605.2 173.4 604.8 173 C 603.9 172.4 593.1 173.2 571.1 175.6 C 550.7 177.8 541.3 176.3 528.3 168.9 C 516.4 162.1 513.9 158 512.5 142.7 L 511.9 135.9 L 516.9 130.4 C 522.4 124.4 524.7 118.6 525.7 108.8 C 526.4 102.2 527.8 100.3 530.9 101.9 C 536.1 104.7 540.2 102.2 543.9 94 C 547.8 85.5 546.3 79 540.5 79 C 536.7 79 535.3 77.6 537 75.5 C 537.6 74.7 537.9 73.3 537.6 72.3 C 537.3 71.3 537.9 65.3 539 59 C 540.1 52.7 541 45.2 541 42.4 C 541 35.3 536.3 26.3 528.5 18.5 C 519.4 9.4 514.5 7.9 492.5 7.4 C 483.1 7.3 473.5 7.5 471 8 M 467.4 221.4 C 467.1 222.3 467.3 227.5 467.9 233 C 469.3 245.7 469.3 271.3 468 276.2 C 466.5 281.3 460.2 286.6 444.1 296.4 C 431.1 304.2 427.8 307 431.7 307 C 434.2 307 457.9 293.3 463.5 288.7 C 472 281.6 472.5 279.6 472.5 255.5 C 472.5 241.7 472 232.2 471.1 227.7 C 469.7 220.8 468.5 218.7 467.4 221.4 M 516.1 222.3 C 514.4 226.8 512.7 251.8 513.3 265 C 513.8 279.3 514.9 282.8 520.6 288.2 C 529.2 296.3 548 308.3 549.6 306.7 C 550.7 305.6 548.4 303.5 537.5 296 C 525.4 287.6 519.6 281.8 518.1 276.4 C 516.7 271.3 516.7 248.9 518.1 233.8 C 519 225.1 519 221.6 518.2 220.8 C 517.4 220 516.8 220.4 516.1 222.3 M 491.3 316 C 491.3 319.6 491.5 321 491.7 319.3 C 491.9 317.5 491.9 314.5 491.7 312.8 C 491.5 311 491.3 312.4 491.3 316 M 783.8 516.6 C 783.5 516.9 780.3 517.8 776.9 518.6 C 768.9 520.4 764.7 522.1 765.7 523 C 767.5 524.6 778.9 526.1 781 525 C 782.9 524 786 519.1 786 517 C 786 515.9 784.7 515.6 783.8 516.6"
    stroke="none"
    fill="#000000"
    fill-rule="evenodd"
  /> -->
</svg>
