<svg
  xmlns="http://www.w3.org/2000/svg"
  width="978"
  height="1101"
  viewBox="0 0 978 1101"
  version="1.1"
>
  <path
    d="M 285.6 306.8 C 282.5 310.7 277.8 317.3 275.1 321.3 C 269.3 330 237.2 392 222.7 422.5 C 213.6 441.8 202.9 460.4 190.2 479 C 187.9 482.3 187.8 483 188.4 492.5 C 189.5 508.5 191.3 519.3 193.5 522.7 C 194.8 524.7 195.9 525 200.8 525 C 206.9 525 214 523.4 214 522.1 C 214 520.5 211.5 519.1 206.5 518 C 196.4 515.6 192 513.9 192 512.2 C 192 511.3 193.2 507 194.6 502.6 L 197.1 494.5 L 216.4 479.1 L 235.7 463.7 L 236.4 454.8 C 237.2 442.9 237.6 442.2 260.8 408.5 C 288 369.2 302.3 349.1 309.2 340.6 C 324.5 321.8 329 316.1 329 315.6 C 329 315.3 327.9 315 326.7 315 C 322.6 315 309.7 311.3 303.6 308.4 C 300.4 306.9 296.3 304.3 294.6 302.6 L 291.3 299.5 L 285.6 306.8"
    stroke="none"
    fill="#535353"
    id="MACRO_BP_FOREARM"
    fill-rule="evenodd"
  />
    <path
    d="M 574.5 769.8 C 569.2 771.9 544.8 772.1 537.2 770.1 C 534.3 769.4 531.7 768.9 531.5 769.1 C 531.4 769.3 531.8 772.9 532.6 776.9 C 533.7 782.8 534 794.4 533.9 830.9 C 533.7 869.8 534 879.4 535.4 889.3 C 537.9 907.3 546.7 948.7 557.1 991.9 C 560.3 1005.5 560.8 1008.9 560 1011.9 C 559.5 1013.9 558.6 1020.3 558.1 1026 C 557.4 1034.3 556 1040.1 551.7 1053.5 C 548.7 1062.8 545.7 1073.1 545.1 1076.2 C 543.9 1081.6 544 1082.3 546.6 1088 L 549.3 1094 L 576 1094 L 602.8 1094 L 605.4 1090.9 C 612.9 1082 612.7 1078.1 603.5 1059.2 L 596.8 1045.2 L 598 1038.2 C 599.1 1031.8 599 1030.7 597.1 1026.5 C 596 1024 594.2 1020.7 593.2 1019.2 C 591.4 1016.6 591.3 1012.6 590.6 925.5 C 590.3 875.5 589.6 828.3 589 820.8 C 588.2 809.5 585.4 792.9 580.5 770.3 C 579.9 767.7 579.9 767.7 574.5 769.8"
    stroke="none"
    id="MACRO_BP_LOWER_LEG"
    fill="#535353"
    fill-rule="evenodd"
  />
  <path
    d="M 367.7 174 C 358.8 176.8 351.4 182.4 344.1 191.8 C 337.3 200.5 309.8 258.8 301.5 282 C 299.1 288.6 296.6 293.7 294.7 295.7 C 291.1 299.5 291.5 300.9 297.2 304.8 C 305.4 310.3 324.9 316.4 329.3 314.7 C 330.2 314.4 331.9 311.9 333.2 309.3 C 334.6 306.7 338.7 298.9 342.5 292 C 355.9 267.8 372.7 230.6 377 215.8 C 377.8 213.1 378.8 211 379.2 211 C 379.7 211 379.4 210 378.6 208.8 C 376.4 205.3 374.7 194.6 374.6 182.8 C 374.6 176.8 374.3 172 374 172.1 C 373.7 172.1 370.9 172.9 367.7 174"
    stroke="none"
    fill="#979797"
    fill-rule="evenodd"
  />
  <path
    d="M 393 782.8 C 383 813.5 383.5 809.6 383.7 858.5 C 383.8 903.3 384.9 939 387.6 989.1 C 389.2 1018.5 389.2 1018.7 387.1 1026.1 C 385.9 1030.3 385 1036.6 385 1040.3 C 385 1046 384.3 1048.8 379.9 1059.7 C 372.3 1078.3 371.7 1081.2 373.7 1088.3 L 375.3 1094 L 402.3 1093.8 L 429.4 1093.5 L 431.3 1088 C 433.1 1082.8 433.1 1082.2 431.6 1074.8 C 430.7 1070.6 427.9 1060.8 425.5 1053 C 421.2 1039.6 421 1038.3 421.6 1031 C 422.2 1024.6 421.9 1022.2 420.1 1016.8 L 418 1010.4 L 424.5 970.4 C 438.8 883.4 439.5 876.3 438.7 821.4 C 438.3 790.4 438.5 778.9 439.5 774.9 L 440.7 769.5 L 422.6 769.5 C 411.1 769.5 403.3 769.1 401.3 768.3 L 398 767.1 L 393 782.8"
    stroke="none"
    fill="#b1b1b1"
    fill-rule="evenodd"
    id="MACRO_BP_LOWER_LEG"
  />
  <path
    d="M 682 297.9 C 682 299.9 674.5 307.3 668.7 311.1 C 665.5 313.2 660.5 315.6 657.7 316.6 C 654.8 317.5 652.4 318.4 652.2 318.5 C 652 318.7 652.7 319.9 653.8 321.2 C 671.8 342.3 682.3 356.4 712.6 400.5 C 742.5 443.9 741.5 442.1 742.4 454.4 C 742.7 459.4 743.4 463.6 743.8 463.9 C 744.8 464.6 769.3 484.3 770 485 C 770.3 485.3 772.8 487.3 775.5 489.5 C 781.8 494.5 781.6 494.1 784.4 502.9 C 787.2 511.8 787.7 510.7 788.6 494 L 789.3 482.5 L 784 474.5 C 781.1 470.1 777.3 464.3 775.5 461.5 C 773.8 458.8 770.9 454.3 769.1 451.5 C 767.3 448.8 763.3 441.1 760.2 434.6 C 751.6 416.5 724.6 363 713 341 C 703.1 322.3 699.5 316.7 688.6 303.5 C 683.6 297.4 682 296 682 297.9"
    stroke="none"
    fill="#939393"
    fill-rule="evenodd"
    id="MACRO_BP_FOREARM"
  />
  <path
    d="M 472.4 7 C 465 8.1 455.7 13.4 448.4 20.9 C 439.3 30.1 437 35.2 437 45.9 C 437.1 54.6 439.1 72.1 440.4 75.2 C 441.3 77.2 438.5 79 434.6 79 C 430.1 79 428.7 84.9 431.6 91.8 C 433.4 96.1 438.7 102 440.9 102 C 442 102 448.4 100.2 449.8 99.4 C 449.9 99.3 449.2 96.9 448 94.1 C 445.8 88.5 445.6 87 446.8 87 C 447.3 87 448.7 89.4 450 92.3 C 461.7 118.4 465.4 123.7 473.8 126.1 C 479.5 127.8 498.8 127.8 504.7 126.1 C 509.9 124.7 510.9 123.3 520.5 104.4 C 528.2 89.2 529.5 87.2 530.6 88.3 C 531.4 89.1 516.9 118.9 513.5 123.3 C 509.4 128.8 506.5 129.5 488.5 129.5 C 473.5 129.5 472.3 129.4 468.8 127.2 C 463.5 123.9 457.4 116.7 454.1 109.7 C 451.3 103.9 451.2 103.8 449.7 106 C 448.4 107.9 448.4 108.9 449.6 114.3 C 451.3 121.5 454.5 127.1 459.4 131.8 C 462.3 134.7 464 135.3 469.7 136.1 C 478.2 137.2 493 137.2 503.5 136.1 L 511.5 135.2 L 516.7 129.6 C 522.5 123.4 524.7 118 525.7 107.2 C 526 103.8 526.7 100.7 527.2 100.4 C 527.6 100.1 529.6 100.4 531.5 101 C 533.4 101.6 535.9 101.8 537.1 101.5 C 540 100.6 544.8 92.6 545.6 87.5 C 546.5 81.1 545.6 79.4 540.7 78.4 C 537.3 77.6 536.6 77.1 536.8 75.5 C 537 74.4 537.1 72.4 537.1 71.1 C 537 69.8 537.9 63.4 539 57 C 540.1 50.6 541 43.7 541 41.7 C 541 35.8 537.4 27.9 531.6 20.8 C 522.2 9.5 511.7 5.9 488.5 6.1 C 482.4 6.2 475.2 6.6 472.4 7"
    stroke="none"
    fill="#313131" 
    fill-rule="evenodd"
    id="MACRO_BP_FACE"
  />
    <path
    d="M 397.4 653.6 C 397.7 676.1 398.3 710.9 398.6 731 C 399.1 767.3 399.1 767.5 401.3 768.4 C 404.4 769.6 426.5 770.4 434.4 769.5 C 440.1 768.9 441.1 768.5 441.5 766.7 C 441.8 765.5 445.2 750.6 449.1 733.5 C 467.6 652.4 475 619.6 474.7 619.4 C 474.5 619.2 470.2 619.5 465 620 C 447.8 621.8 410.8 618.1 398.3 613.3 C 396.9 612.7 396.8 616.5 397.4 653.6"
    stroke="none"
    fill="#555555"
    fill-rule="evenodd"
    id="MACRO_BP_UPPER_LEG"
  />
  <path d="" stroke="none" fill="#c7c7c7" fill-rule="evenodd" />
  <path
    d="M 463 140.6 C 463 143.8 462.3 149.2 461.4 152.8 C 459.8 159.1 459.8 159.2 462 161.6 C 466 165.7 472.4 167.5 483.5 167.5 C 497.7 167.4 508.6 164.4 513.4 159.1 C 515 157.3 515.1 156.5 514.2 152.8 C 513.6 150.4 512.9 145.6 512.6 142.1 C 512.2 138.6 511.9 135.6 511.7 135.4 C 511.6 135.3 507.2 135.6 502 136.2 C 492.5 137.2 468 136.7 464.7 135.4 C 463.2 134.9 463 135.5 463 140.6"
    stroke="none"
    fill="#d7d7d7"
    id="MACRO_BP_NECK"
    fill-rule="evenodd"
  />
    <path
    d="M 409.4 353.8 C 409.7 355.8 411.6 375.1 413.6 396.7 L 417.2 435.9 L 414 454.7 C 412.3 465 410.4 474.3 409.9 475.4 C 408.3 478.2 410.4 479.7 419.2 481.9 C 432.1 485.2 449.5 486.5 481.5 486.4 C 518.3 486.4 543.5 484.1 559.7 479.4 C 564.9 477.9 568.4 475.5 567.6 474.1 C 567.3 473.7 565.1 464.1 562.6 452.8 L 558.1 432.3 L 562.5 392.9 C 565 371.3 566.8 353.4 566.5 353.2 C 566.3 352.9 565.5 353.2 564.8 353.8 C 562.3 355.8 547.9 360.1 538.3 361.6 C 532.9 362.4 519.5 363.4 508.5 363.7 C 471.4 364.8 431.4 360 414.2 352.4 L 408.8 350 L 409.4 353.8"
    stroke="none"
    id="MACRO_BP_ABDOMEN"
    fill="#d7d7d7"
    fill-rule="evenodd"
  />
  <path d="" stroke="none" fill="#2b2b2b" fill-rule="evenodd" />
  <path d="" stroke="none" fill="#d2d2d2" fill-rule="evenodd" />
  <path
    d="M 572.5 616.5 C 559.6 618.9 529.7 620.3 516.6 619.1 C 510 618.5 504.5 618.1 504.4 618.3 C 504.3 618.4 506.1 629.8 508.6 643.5 C 517.2 691.8 530.1 764.5 530.5 766.6 C 531.7 772.3 568.2 773.9 577.9 768.6 C 580.3 767.3 580.3 767.2 580.1 751.4 C 580 742.7 580.4 721.8 580.9 705 C 581.5 688.2 582.2 661.1 582.6 644.8 C 583.2 616.1 583.2 615 581.4 615.1 C 580.3 615.2 576.4 615.8 572.5 616.5"
    stroke="none"
    fill="#a5a5a5"
    fill-rule="evenodd"
  />
  <path
    d="M 605.8 180.2 C 606.4 191.4 602.7 210 600 210 C 595.9 210 627.6 280.4 642.8 305.3 C 645.1 309 646.7 312 646.4 312 C 646.1 312 647.1 313.5 648.5 315.4 L 651.1 318.9 L 656.7 316.9 C 664 314.4 670.3 310.7 675.8 305.6 C 682.8 299.1 684.3 294.5 680.5 290.7 C 679.8 290 677.4 284.4 675.2 278.4 C 665.9 253.4 637.4 194.1 631.7 188.1 C 626.7 182.9 618.1 176.9 612.8 174.8 C 605.4 172 605.5 172 605.8 180.2"
    stroke="none"
    fill="#242424"
    id="MACRO_BP_UPPERARM"
    fill-rule="evenodd"
  />
  <path
    d="M 513.4 159.2 C 508.6 164.4 497.6 167.4 483.5 167.5 C 471.9 167.5 465.5 165.6 461.6 161 C 459.4 158.3 459.1 158.2 457.8 159.7 C 455.6 162.4 445.1 168.8 439.4 171 C 429.4 174.7 421.6 175.3 406.6 173.6 C 399.2 172.7 389 172 384.1 172 L 375.1 172 L 374.4 175.8 C 373.6 179.8 375.4 199.2 377 205.1 C 377.8 208 378.8 209 381.9 210.2 C 385.8 211.7 385.8 211.8 387.9 221.1 C 389 226.3 390.4 232.3 390.9 234.5 C 391.6 237.6 391.8 237.9 392 236 C 392.3 232.7 392.9 235.8 399 272 C 403.3 297.2 405.2 311.4 408.6 344.8 C 409.2 350.2 409.2 350.2 414.3 352.5 C 436.6 362.3 502.5 367.2 538.2 361.6 C 548.2 360 562.1 355.9 565.3 353.5 C 566.9 352.4 567.6 348.6 569.6 330.8 C 571.3 315.2 574.2 298.4 580.4 268 C 592.2 210.1 591.6 212.3 595 210.5 C 596.6 209.7 598.5 209.3 599.3 209.6 C 602.3 210.7 606 195.4 606 182.1 C 606 177.9 605.6 173.9 605.1 173.1 C 604.1 171.5 591.2 172.1 570 174.6 C 556 176.3 547.8 175.9 539.2 172.9 C 531.8 170.4 520.9 163.8 517.7 160.1 L 515.2 157.1 L 513.4 159.2 M 467.5 220.3 C 467.1 221.1 467.3 226.7 467.9 232.6 C 469.3 246.2 469.3 270.3 468 275.2 C 466.5 280.3 460.2 285.6 444.1 295.4 C 431 303.3 427.8 306 431.7 306 C 434.3 306 457.8 292.4 463.5 287.7 C 472 280.5 472.5 278.7 472.5 254 C 472.4 233.4 471.3 221.9 469 219.6 C 468.4 219 467.8 219.2 467.5 220.3 M 516.1 221.3 C 514.4 225.8 512.7 249.8 513.2 263.4 C 513.8 278.3 514.8 281.6 520.6 287.2 C 529.2 295.3 548 307.3 549.6 305.7 C 550.8 304.6 547.9 302.1 537.4 294.9 C 525.6 286.8 519.6 280.8 518.1 275.4 C 516.7 270.3 516.7 249.3 518.1 233.4 C 518.9 224.4 518.9 220.5 518.2 219.8 C 517.4 219 516.8 219.4 516.1 221.3 M 491.3 315 C 491.3 319.7 491.5 321.6 491.7 319.3 C 491.9 316.9 491.9 313.1 491.7 310.8 C 491.5 308.4 491.3 310.3 491.3 315"
    stroke="none"
    fill="#fdfdfd"
    id="MACRO_BP_CHEST"
    fill-rule="evenodd"
  />
  <path d="" stroke="none" fill="#898989" fill-rule="evenodd" />
  <path d="" stroke="none" fill="#4e4e4e" fill-rule="evenodd" />
  <path
    d="M 466.6 1.1 C 455.2 3.8 439.6 16.8 433.1 28.9 L 429.8 35.2 L 430.4 49.4 C 430.7 57.1 431.2 65.1 431.6 67.1 C 432.1 70.4 431.9 70.9 429.4 72.1 C 425.4 74.1 424 77.5 424 85.8 C 424 91 424.5 94.1 425.9 96.8 C 428.1 101.1 435.6 108.4 438.8 109.5 C 440.4 109.9 441.4 111.7 442.5 115.8 C 444.7 123.8 447.5 129.6 451.8 134.8 C 454.9 138.6 455.4 139.9 455.4 144.4 C 455.4 151.5 453.1 155.3 446.2 159.3 C 433.8 166.5 423 168.8 409.6 166.9 C 405.1 166.3 394.5 165.8 386 165.9 C 373.1 165.9 369.5 166.3 364.6 168 C 347.5 173.9 338.9 183.8 321.6 218 C 309 242.7 303.5 255.3 293.3 282.5 C 291.4 287.6 288.4 292.3 282.5 299.6 C 278 305.1 272.7 312.1 270.8 315.1 C 266 322.4 248.6 354.9 239.1 374.5 C 210 434.2 203 447.3 187.2 471 L 180.9 480.5 L 181.5 491.5 C 182.4 508.6 185 525.2 186.9 526.7 C 193.4 531.7 207.9 532.9 216.3 529.2 C 220.6 527.3 221 526.8 221 523.7 C 221 518.7 219.2 514.4 216.6 513.2 C 215.3 512.6 211.5 511.6 208.3 511 C 200 509.4 199.8 509.2 201.2 504.6 C 202.4 500.6 207.5 495.2 217 487.9 C 220 485.5 224.1 482.2 226.1 480.5 C 228 478.9 232 475.5 234.9 473.1 C 242.9 466.3 243 466.3 243.1 460.7 C 243.3 445.4 243.3 445.6 262.9 417.5 C 266.7 412 273 403 276.7 397.6 C 297 368 311.6 348.2 324.8 332.5 C 336.4 318.8 336.3 318.9 338.7 315.5 C 341.6 311.4 376.3 239.7 379.1 231.9 C 380.4 228.5 381.5 226.1 381.7 226.6 C 382.2 228.3 392.1 276.5 394 286.5 C 397 302.8 399.7 326.3 404.9 383 C 409.6 434.2 409.8 436.8 408.4 444 C 405.8 457.4 395.1 521.2 393.4 533.5 C 391.9 544.1 391.6 558.8 391.3 656 L 390.9 766.4 L 384.5 785.5 C 379.8 799.2 377.8 807 377 813.5 C 374.8 833.4 376.1 910.8 380 982.1 C 381.7 1014.2 381.7 1018.2 380.4 1022.6 C 379.5 1025.3 378.5 1031.8 378 1037.1 C 377.3 1044.8 376.3 1048.7 373.1 1056.5 C 367.7 1069.4 365 1078.3 365 1083.3 C 365 1085.7 366.3 1090.1 368.1 1094.2 L 371.3 1101 L 402.5 1101 L 433.8 1101 L 435.9 1096.5 C 441.5 1084.6 441.2 1079.8 433.5 1054.3 C 429.5 1040.9 429 1038.2 429 1029.5 C 429 1023.1 428.4 1017.8 427.3 1014.3 L 425.6 1009 L 434.9 952 C 440 920.7 444.6 890.9 445 885.8 C 445.5 880.7 446 854.4 446 827.4 L 446 778.4 L 467 687.9 C 492.4 578.9 490.3 587.9 490.7 588.3 C 490.9 588.5 499 632.1 508.7 685.1 L 526.4 781.5 L 527 837.5 L 527.7 893.5 L 531.9 914 C 534.2 925.3 539.5 948.9 543.5 966.5 C 551.2 999.9 553.1 1009.1 552.4 1010.1 C 552.2 1010.4 551.6 1015.7 551 1021.8 C 550.4 1027.9 548.9 1036.6 547.5 1041.2 C 534.8 1083.6 534.8 1082.8 542.4 1095.8 L 545.5 1101 L 576.1 1101 L 606.8 1101 L 610.8 1095.8 C 620.7 1082.7 620.6 1076.7 609.7 1054.6 C 604.9 1044.9 604.4 1043.3 605.1 1040.1 C 607.2 1031 605.7 1024.2 599.2 1014.7 C 597.3 1012 597.3 1009.7 597.7 947.7 C 598.3 878.1 596.9 818.4 594.6 803 C 593.8 797.8 591.5 786.2 589.5 777.2 L 586 760.9 L 587 738.2 C 590.5 655.3 590.8 568.4 587.7 544 C 585.7 528.8 580.3 500.2 572.4 463.5 C 568.9 447.1 566 432.1 566 430.3 C 566 428.5 568.9 401.1 572.5 369.3 C 578.9 312.6 579.2 310.7 587.6 269 C 592.4 245.6 596.3 226.4 596.5 226.2 C 596.6 226.1 597.7 228.7 599 232.1 C 601.7 239.8 636.4 311.4 639.3 315.5 C 641.7 318.9 641.6 318.8 653.2 332.5 C 666.4 348.2 681 368 701.3 397.6 C 705 403 711.3 412 715.1 417.5 C 734.7 445.6 734.7 445.4 734.9 460.7 C 735 466.3 735.1 466.3 743.1 473.1 C 746 475.5 750 478.9 751.9 480.5 C 753.9 482.2 758 485.5 761 487.9 C 770.5 495.2 775.5 500.6 776.8 504.6 C 778.2 509.2 778 509.4 769.7 511 C 766.5 511.6 762.7 512.6 761.4 513.2 C 758.8 514.4 757 518.7 757 523.7 C 757 526.8 757.4 527.3 761.7 529.2 C 765.3 530.8 768.3 531.3 773.9 531.2 C 785.7 530.9 788.2 529.6 792.6 521.3 C 794.1 518.7 795.7 506.1 796.5 491.5 L 797.1 480.5 L 790.8 471 C 775 447.3 768 434.2 738.9 374.5 C 729.4 354.9 712 322.4 707.2 315.1 C 705.3 312.1 700 305.1 695.5 299.6 C 689.6 292.3 686.6 287.6 684.7 282.5 C 674.3 254.8 668.9 242.6 654.9 214.9 C 642.4 190.1 641.1 188.1 634.5 181.4 C 626.8 173.6 618.9 169.1 608 166.4 C 600.9 164.6 591.8 164.9 569.3 167.6 C 551.8 169.7 541.8 167.8 529.2 160 C 522.6 156 520.9 153.1 520.2 145.3 C 519.7 139 519.8 138.7 523.8 133.1 C 526.1 129.8 529 123.8 530.5 119.3 C 532.9 111.8 533.3 111.2 537.1 109.5 C 542.1 107.2 548.8 100.6 550.8 96 C 551.6 94.1 552.3 89.3 552.4 85.3 C 552.5 77.3 550.3 72.8 546.1 72.2 C 543.6 71.8 543.5 70.5 545.6 60.8 C 546.5 56.8 547.3 48.8 547.3 43 C 547.5 32.8 547.4 32.3 544 26 C 539.8 18.1 529.3 7.4 522.7 4.1 C 520 2.8 514.9 1.4 511.2 0.9 C 502.5 -0.2 471.6 -0.1 466.6 1.1 M 471 7 C 463.1 8.7 455.8 13 448.4 20.6 C 436.4 32.7 434.9 38.6 437.9 60 C 439 67.4 440 74.4 440.2 75.4 C 440.4 77 439.7 77.5 436.5 78.2 C 434.3 78.7 431.9 79.8 431.3 80.7 C 428.2 84.8 431.2 94.4 437.4 99.7 L 441 103 L 445.3 101.3 C 447.6 100.4 449.6 99.6 449.8 99.5 C 449.9 99.4 449.1 96.7 448 93.5 C 446.2 88.3 446 85.7 447.6 87.2 C 447.9 87.5 450.2 92.9 452.9 99.2 C 459.5 115.1 465.6 123.4 472.5 126 C 480.8 129.2 503.8 128 509 124.2 C 510.4 123.1 515.3 115 520.4 105.2 C 525.2 95.7 529.6 88 530.1 88 C 531.2 88 530.7 89.4 523.8 104 C 516.9 118.7 512.8 125.1 508.6 127.6 C 505.9 129.3 503.3 129.5 488.9 129.5 L 472.3 129.5 L 468.1 126.5 C 461.4 121.9 456.2 114.9 452.4 105.1 L 451.4 102.7 L 449.7 105.4 C 448 107.9 448 108.4 450.1 116.1 C 452 123.1 453 124.9 457.6 130 C 462.7 135.4 463 136.1 463 140.8 C 463 148.4 461.1 155.7 458.3 159 C 455.4 162.5 444.5 169.2 438.1 171.5 C 428.9 174.7 421 175.2 406.3 173.6 C 370.3 169.5 360.3 172.5 344 191.6 C 338.4 198.2 309.5 259.7 301.5 282 C 299.2 288.3 296.7 293.5 295.1 295.1 C 291.5 298.6 279.8 313.6 275.2 320.7 C 270.3 328.1 243.5 379.8 224.1 419.2 C 213.7 440.3 205.9 454.5 198.6 465.9 C 186.7 484.5 187 483.3 189 501.5 C 191.4 522.6 192.7 525.1 201.1 525.2 C 204.2 525.2 208.3 524.7 210.3 524.1 C 216.8 521.9 214.9 520.1 203 516.9 C 191.3 513.8 191.2 513.7 193.9 504.8 C 195.1 500.8 196.5 496.8 196.9 496 C 197.3 495.2 206 487.8 216.1 479.7 C 226.2 471.5 234.8 464.6 235.2 464.2 C 235.6 463.8 236.2 459.7 236.5 455 C 237.4 442.4 237.9 441.6 274.7 388.7 C 279.7 381.4 285.4 373.3 287.2 370.7 C 296.1 357.8 320.6 326.1 330.1 315.2 C 331.7 313.3 333 311.1 333 310.1 C 333 309.2 334.2 306.7 335.6 304.6 C 339.5 298.9 361 256.1 366.3 243.5 C 373 227.4 375.5 221.1 377 215.8 C 378.1 212.3 379 211.1 380.7 210.7 C 384.7 209.9 385.9 212.1 388.9 225.5 C 390.5 232.7 391.9 237.4 392 236 C 392.3 233 393.4 239.1 399.4 274.5 C 404.3 303.6 406.6 320.5 407.9 338.2 C 408.4 344.4 410.7 368.9 413 392.5 L 417.2 435.5 L 414 454.5 C 412.3 464.9 410.5 474.4 410 475.5 C 409.6 476.6 408.8 480.9 408.2 485 C 407.6 489.1 405.5 503.3 403.6 516.4 C 401.6 529.5 399.5 547.3 398.8 555.9 C 397.5 572.8 397.2 638 398 717.5 L 398.5 766.5 L 392.7 784 C 382.9 813.5 383.5 808.5 383.6 859 C 383.8 904.6 384.8 938.4 387.6 989.5 C 389.1 1018.2 389.1 1018.6 387.1 1026 C 385.9 1030.1 385 1036.3 385 1039.8 C 385 1045.2 384.1 1048.4 379.6 1060 C 371.8 1079.7 371.6 1080.8 373.6 1088 L 375.3 1094 L 402.3 1093.8 L 429.4 1093.5 L 431.3 1088 C 433.1 1082.7 433.1 1082.2 431.5 1074.5 C 430.6 1070.1 427.8 1060.3 425.4 1052.7 C 421.2 1039.6 421 1038.4 421.6 1031.1 C 422.2 1024.6 421.9 1022.2 420.1 1016.8 L 418 1010.4 L 424.4 971.4 C 438.8 884.5 439.4 877.4 438.8 821.5 C 438.3 782 438.4 779.1 440.2 772.5 C 441.3 768.6 442.3 764.4 442.5 763 C 442.9 760.5 467.3 653.5 473 629.5 C 474.7 622.4 476.3 614.9 476.6 613 C 476.9 611.1 477.5 609.1 478.1 608.5 C 478.6 608 479 606.7 479 605.5 C 479 604.4 480.2 598.4 481.6 592.2 C 483 586 484 580.7 483.8 580.4 C 483.5 580.2 478.9 581.6 473.4 583.6 C 464.4 587 462.3 587.3 450.9 587.8 C 436.4 588.3 431.6 587.3 418.5 581 C 408.8 576.3 407.6 575.5 408.4 574.2 C 408.8 573.5 412.5 574.8 418.3 577.5 C 431.8 584 438.2 585.3 451.5 584.8 C 463.8 584.2 473 581.5 483.1 575.4 C 486.2 573.5 489.5 572 490.4 572 C 491.3 572 496.2 573.8 501.3 575.9 C 524.1 585.7 543.1 587.6 556 581.4 C 559.6 579.6 564.9 576.4 567.9 574.1 C 573.8 569.6 575 569.2 575 571.5 C 575 573.4 564.8 581 557.2 584.7 C 551.8 587.4 550.9 587.5 537.5 587.4 C 523.8 587.4 523.3 587.3 510.7 583.1 C 503.6 580.8 497.6 579.1 497.3 579.4 C 497 579.6 498 586.1 499.5 593.7 C 501 601.3 502.6 609.8 503 612.5 C 503.4 615.3 507.6 638.9 512.3 665 C 517 691.1 523 724.2 525.5 738.5 C 528 752.8 530.8 767.6 531.8 771.5 C 533.3 777.6 533.5 784.9 533.6 828 C 533.7 883.3 533.9 885.9 541.1 920.8 C 545.5 942.2 554.7 982.8 558.5 998.1 C 560.4 1005.6 560.7 1008.4 560 1011.1 C 559.4 1013.1 558.6 1019.6 558.1 1025.6 C 557.4 1034.5 556.2 1039.6 551.7 1053.5 C 548.7 1062.8 545.7 1073.1 545.1 1076.2 C 543.9 1081.6 544 1082.3 546.6 1088 L 549.3 1094 L 576.4 1094 L 603.6 1094 L 607.4 1088.3 C 612.6 1080.3 612.2 1077.2 603.5 1059.2 L 596.8 1045.2 L 597.9 1038.6 C 599.3 1030.8 598.7 1028.1 594.5 1021.5 L 591.3 1016.5 L 590.7 924.5 C 590.3 873.9 589.6 826.9 589 820 C 588.5 813.1 586.2 798.5 584 787.5 L 580 767.5 L 580.5 735.5 C 580.7 717.9 581.4 686.4 582 665.5 C 584 596.3 583.2 561.5 579 535 C 576.4 518.9 568.2 475.4 567 471.5 C 566.5 469.9 564.3 460.4 562.1 450.4 L 558.1 432.3 L 562.5 393.4 C 564.9 372 567.4 352.3 567.9 349.5 C 568.4 346.8 568.7 344.3 568.5 343.9 C 567.2 341.9 573 304.9 579.9 270.3 C 590.8 216 591.8 212.2 594.1 210.9 C 597.4 209.2 599.5 210.7 601 215.7 C 605.9 232.7 630.6 285.3 643 305.5 C 645.3 309.4 647.2 312.6 647.1 312.8 C 646.6 313.7 647.6 315.2 652.3 320.1 C 663.3 331.7 681.8 356 702.5 386.2 C 705.3 390.2 710.2 397.3 713.4 402 C 730.6 426.6 740 441.4 740.9 444.8 C 741.4 446.8 742.1 451.8 742.3 455.9 C 742.6 460.1 743.4 463.8 744.2 464.5 C 744.9 465.2 753.3 471.9 762.8 479.5 C 772.4 487.1 780.8 494.3 781.5 495.4 C 782.2 496.6 783.6 500.4 784.6 503.8 C 786.9 512.3 787.8 510.3 788.6 494.9 L 789.2 482.5 L 777.3 463.8 C 770.7 453.5 763.3 440.9 760.9 435.8 C 752.7 418.4 712.4 338.5 707.5 330 C 704.8 325.3 698.5 316.2 693.6 309.7 C 688.6 303.2 683.7 296.2 682.6 294.2 C 681.6 292.2 680.4 290.3 680 290 C 679.6 289.7 677.4 284.6 675.2 278.5 C 666 253.5 637.4 194.2 631.7 188.1 C 626.2 182.3 616.8 176 611 174.3 C 608 173.4 605.2 172.4 604.8 172 C 603.9 171.4 593.1 172.2 571.1 174.6 C 550.7 176.8 541.3 175.3 528.3 167.9 C 516.4 161.1 513.9 157 512.5 141.7 L 511.9 134.9 L 516.9 129.4 C 522.4 123.4 524.7 117.6 525.7 107.8 C 526.4 101.2 527.8 99.3 530.9 100.9 C 536.1 103.7 540.2 101.2 543.9 93 C 547.8 84.5 546.3 78 540.5 78 C 536.7 78 535.3 76.6 537 74.5 C 537.6 73.7 537.9 72.3 537.6 71.3 C 537.3 70.3 537.9 64.3 539 58 C 540.1 51.7 541 44.2 541 41.4 C 541 34.3 536.3 25.3 528.5 17.5 C 519.4 8.4 514.5 6.9 492.5 6.4 C 483.1 6.3 473.5 6.5 471 7 M 467.4 220.4 C 467.1 221.3 467.3 226.5 467.9 232 C 469.3 244.7 469.3 270.3 468 275.2 C 466.5 280.3 460.2 285.6 444.1 295.4 C 431.1 303.2 427.8 306 431.7 306 C 434.2 306 457.9 292.3 463.5 287.7 C 472 280.6 472.5 278.6 472.5 254.5 C 472.5 240.7 472 231.2 471.1 226.7 C 469.7 219.8 468.5 217.7 467.4 220.4 M 516.1 221.3 C 514.4 225.8 512.7 250.8 513.3 264 C 513.8 278.3 514.9 281.8 520.6 287.2 C 529.2 295.3 548 307.3 549.6 305.7 C 550.7 304.6 548.4 302.5 537.5 295 C 525.4 286.6 519.6 280.8 518.1 275.4 C 516.7 270.3 516.7 247.9 518.1 232.8 C 519 224.1 519 220.6 518.2 219.8 C 517.4 219 516.8 219.4 516.1 221.3 M 491.3 315 C 491.3 318.6 491.5 320 491.7 318.3 C 491.9 316.5 491.9 313.5 491.7 311.8 C 491.5 310 491.3 311.4 491.3 315 M 783.8 515.6 C 783.5 515.9 780.3 516.8 776.9 517.6 C 768.9 519.4 764.7 521.1 765.7 522 C 767.5 523.6 778.9 525.1 781 524 C 782.9 523 786 518.1 786 516 C 786 514.9 784.7 514.6 783.8 515.6"
    stroke="none"
    fill="#151515"
    fill-rule="evenodd"
  />
  <path
    d="M 566.3 476.5 C 563.6 479.4 546.2 483 524 485.2 C 507.1 486.8 454.8 486.8 439.1 485.2 C 426.5 483.8 412.4 480.8 410.6 479 C 409.4 477.8 407.6 487.6 403.1 519.5 C 399.5 544.5 398.3 558.8 397.4 589.7 L 396.7 612.9 L 402.1 614.4 C 417.4 618.8 449.4 621.7 464.8 620.1 C 469.9 619.5 474.4 618.9 474.9 618.6 C 475.4 618.3 476.1 616 476.4 613.5 C 476.8 611.1 477.5 608.8 478.1 608.5 C 478.6 608.1 479 606.9 479 605.7 C 479 604.5 480.2 598.4 481.6 592.2 C 483 586 484 580.7 483.8 580.5 C 483.6 580.2 478.9 581.7 473.4 583.7 C 464.5 586.9 462.3 587.4 450.9 587.8 C 436.4 588.3 431.6 587.3 418.5 581 C 408.8 576.3 407.6 575.5 408.4 574.2 C 408.8 573.5 412.5 574.8 418.3 577.5 C 431.8 584 438.2 585.3 451.5 584.8 C 463.8 584.2 473 581.5 483.1 575.4 C 486.2 573.5 489.5 572 490.4 572 C 491.3 572 496.2 573.8 501.3 575.9 C 524.1 585.7 543.1 587.6 556 581.4 C 559.6 579.6 564.9 576.4 567.9 574.1 C 573.8 569.6 575 569.2 575 571.5 C 575 573.4 564.8 581 557.2 584.7 C 551.8 587.4 550.9 587.5 537.5 587.4 C 523.8 587.4 523.3 587.3 510.7 583.1 C 503.6 580.8 497.6 579.1 497.3 579.4 C 497 579.6 498.5 588.4 500.5 598.9 L 504.2 617.9 L 509.9 618.7 C 523 620.6 558.1 619.1 576.3 616 L 583 614.8 L 583 595.1 C 583 560.2 580.9 541.6 571.9 496 C 569.6 484.7 567.8 475.4 567.7 475.4 C 567.6 475.3 567 475.8 566.3 476.5"
    stroke="none"
    fill="#cdcdcd"
    id="MACRO_BP_BUTTOCKS"
    fill-rule="evenodd"
  />
</svg>
