<?xml version="1.0" encoding="UTF-8" standalone="no"?>
<svg
   width="800"
   height="1580"
   viewBox="0 0 800.00003 1580.7386"
   version="1.1"
   id="m_back"
   xmlns="http://www.w3.org/2000/svg"
   xmlns:svg="http://www.w3.org/2000/svg">
<!--  <defs-->
<!--     id="defs197" />-->
<!--  <sodipodi:namedview-->
<!--     id="namedview125"-->
<!--     pagecolor="#ffffff"-->
<!--     bordercolor="#666666"-->
<!--     borderopacity="1.0"-->
<!--     inkscape:pageshadow="2"-->
<!--     inkscape:pageopacity="0.0"-->
<!--     inkscape:pagecheckerboard="true"-->
<!--     showgrid="false"-->
<!--     inkscape:zoom="0.26390195"-->
<!--     inkscape:cx="678.28222"-->
<!--     inkscape:cy="966.26796"-->
<!--     inkscape:window-width="1367"-->
<!--     inkscape:window-height="864"-->
<!--     inkscape:window-x="537"-->
<!--     inkscape:window-y="1561"-->
<!--     inkscape:window-maximized="0"-->
<!--     inkscape:current-layer="m_back"-->
<!--     lock-margins="true"-->
<!--     units="px"-->
<!--     fit-margin-top="0"-->
<!--     fit-margin-left="0"-->
<!--     fit-margin-right="0"-->
<!--     fit-margin-bottom="0" />-->
  <path
     fill-rule="evenodd"
     fill="#ff3123"
     stroke="#555555"
     stroke-width="0"
     opacity="1"
     d="M 332.5 80.9 c -0.6 43.2 10 91.4 42.9 121.5 c 22.6 13.2 54.1 5.4 66 -18.4 C 468.7 137 477.9 75.7 454.3 25.4 C 426.1 -15.2 345.3 -6.4 337.5 46.9 C 334.5 58 332.9 69.4 332.5 80.9 Z"
     id="MACRO_BP_FACE" />
  <path
     fill-rule="evenodd"
     fill="#ff31ff"
     stroke="#555555"
     stroke-width="0"
     opacity="1"
     d="M 345.1 270 c 8.6 12.6 30.1 8.4 43.6 12 c 21.8 0 46 0.9 65.6 -9.5 c -5.2 -32.2 -15.8 -65.3 -9.7 -98.8 c -0.9 -11.4 9.4 -31.3 -8.9 -32.7 c -22.4 -3.9 -46.2 -2.1 -68.8 -0.8 c -12 0.8 -17.2 9.8 -12.3 21.1 c 5.7 37 0.9 73.1 -9.5 108.8 z"
     id="MACRO_BP_NECK" />
  <path
     fill-rule="evenodd"
     fill="#11ffaa"
     stroke="#555555"
     stroke-width="0"
     opacity="1"
     d="M 184.7 343.4 c -3 19.1 10.2 44.7 32.5 36.9 c 34.2 -14.1 76.3 -20.3 97.2 -54.5 c 12.5 -18.7 31.2 -40.6 25.9 -64.6 c -19.3 -20.7 -51.6 -5.4 -75.4 -3.2 c -37 4.2 -70.1 30.9 -77 68.3 c -1.8 5.5 -1.8 11.5 -3.3 17.2 z"
     id="leftShoulder" />
  <path
     fill-rule="evenodd"
     fill="#1ff0aa"
     stroke="#555555"
     stroke-width="0"
     opacity="1"
     d="M 103.2 552.3 c -1.2 24.3 33 24.1 44.9 9.3 c 51.3 -53.8 82.9 -122.8 118 -187.5 c 14 -21.8 3.3 -52.3 -22.3 -58.6 c -28.7 -12.1 -48.2 19.9 -58.9 41.5 c -29.6 55.9 -59.2 112 -76 173.3 c -2.2 7.2 -5.2 14.4 -5.7 22 z"
     id="MACRO_BP_UPPER_ARM" />
  <path
     fill-rule="evenodd"
     fill="#ff00aa"
     stroke="#555555"
     stroke-width="0"
     opacity="1"
     d="M 19.7 729.1 c 1.3 16.8 32.8 25.9 35.7 4.7 c 23.6 -54.6 73.4 -91.8 103.5 -142.1 c 9.9 -22.6 22.7 -48.7 15.5 -73.6 c -16.2 -24.8 -59.1 -28.2 -74.3 0 c -41.8 61.2 -56.1 135.6 -79.7 204.6 c -0.3 2.1 -0.5 4.3 -0.6 6.4 z"
     id="MACRO_BP_UPPER_ARM" />
  <path
     fill-rule="evenodd"
     fill="#1f00aa"
     stroke="#555555"
     stroke-width="0"
     opacity="1"
     d="M 105 559.5 c 4.5 23.2 38.5 19.8 42.6 -2 c 12.8 -18.9 -14.1 -44.4 -30.8 -27.7 c -8.7 6.7 -13.2 18.9 -11.8 29.7 z"
     id="leftElbow" />
  <path
     id="leftHand"
     d="M 28.4 777.9 c 3 4.7 0.8 18.1 5.8 19.6 c -0.7 11.7 7.9 28.5 20.3 14.5 c 6.9 -9.5 -8 -19.5 -4.9 -30.5 c 6.5 -22.1 -24 -20.8 -21.2 -3.6 z m -17.1 25.3 c -0.1 6.8 5.3 16.7 2.3 21.7 c 3.9 2.5 2.2 18.7 8.5 15.2 c 2.3 12.9 15.1 20.6 21.2 5.4 c -6 -8.6 -13 -14.3 -15 -25.3 c 3.3 -4 -1.4 -14.9 -2.6 -20.9 c -4.8 1.3 -9.6 2.6 -14.4 3.9 z m -7.6 5.6 c 3.7 5.6 -1 20.7 5.9 22.8 c -8.5 1.4 3.9 19 5.6 21.2 c 8 -3.5 11.4 -4.6 1.5 1.2 c 6.3 11.9 12.6 26.1 24.8 8.9 c -7.7 -10.4 -14.3 -21.3 -17.7 -33.9 c 3 -2.4 0.6 -21.2 -4 -23.1 c -5.4 1 -10.8 1.9 -16.2 2.9 z m -1.4 24.8 c 5 5.2 -1 27 10 23.3 c -2.4 5.4 5.4 26.3 12 23.2 c 21 -1.6 5.7 -18.4 1.7 -28.7 c -7 -15.7 -1.7 -29.8 -4.4 -46.3 c -10.5 -1.9 -25.5 -3.4 -18.4 12.7 c -1.3 5.1 3.7 11.6 -0.8 15.8 z m 0.8 -8.4 c 3.5 4.8 -5.6 22.2 3.5 21.3 c -0.6 12.5 2.9 30.7 19.4 18.9 c 2.3 -14.4 -9.6 -30.6 -1.8 -45 c 11.7 -13.8 -2.9 -29.7 -15 -19.2 c -2.9 7.7 -1.1 17.5 -6.1 23.9 z M 0.5 796.2 c -3.9 14.7 16.1 26.4 25.2 13.8 c 10.5 -13.5 20.6 -28.6 27.1 -44.7 c 5.7 -16.7 5.6 -46.3 -18.8 -45.1 c -20.7 3.7 -20.6 31.2 -28.2 46.8 c -2.5 9.6 -5 19.3 -5.4 29.2 z"
     style="stroke-width: 139.5" />
  <path
     fill-rule="evenodd"
     fill="#11ffaa"
     stroke="#11ffaa"
     stroke-width="0"
     opacity="1"
     d="M 458.2 268.2 c 5.1 33.8 28.3 64.5 55 84.8 c 24.5 11 49.9 21.6 75.8 28.4 c 28 1 29.8 -35.5 23.1 -55.2 c -7.1 -38.8 -42.3 -65.2 -80.4 -69 c -22.9 -2.2 -53.7 -16.1 -72 3.9 l -0.7 2.8 c 0 0 -0.8 4.2 -0.8 4.2 z"
     id="rightShoulder" />
  <path
     fill-rule="evenodd"
     fill="#1f000f"
     stroke="#555555"
     stroke-width="0"
     opacity="1"
     d="M 527.9 352.9 c 10.2 42.5 39.3 77.6 57.7 116.9 c 22.4 34 41.5 73 74.7 97.8 c 14.2 10.9 41.7 1.9 36.1 -18.7 c -15.8 -61.6 -41.9 -119.7 -72.6 -175.2 c -13.6 -22.3 -23.9 -59.2 -55 -60.6 c -20.3 1.1 -43.3 17.4 -40.9 39.9 z"
     id="rightUpperArm" />
  <path
     fill-rule="evenodd"
     fill="#1fff11"
     stroke="#555555"
     stroke-width="0"
     opacity="1"
     d="M 623 532.9 c 3.8 44.8 30.1 82.6 60.5 113.9 c 24.8 29.8 50.7 59.7 65.7 95.8 c 12.3 11.3 37.7 -5.5 29.9 -22 c -24.4 -69.7 -38 -145.9 -82.3 -206.6 c -17.2 -26.2 -63.7 -18.4 -73.3 10 l -0.1 3.5 l -0.1 2.1 v 0 z"
     id="MACRO_BP_FOREARM" />
  <path
     fill-rule="evenodd"
     fill="#1f00aa"
     stroke="#555555"
     stroke-width="0"
     opacity="1"
     d="M 649.9 541 c -5.1 22.1 24.1 48.5 41.4 26.7 c 16.3 -21.8 -17.6 -59.9 -37.6 -34.9 c -1.2 2.7 -2.5 5.5 -3.7 8.2 z"
     id="rightElbow" />
  <path
     id="rightHand"
     d="M 756.7 845.5 c 6.6 14.2 17 8.6 21.2 -4.1 l -0.1 -1.3 c 6.3 2.8 5.8 -13.1 8.9 -17 l -1.5 -0.7 c 18.4 -26.5 -27.4 -30.9 -13.6 -2.2 c -2.1 11.1 -8.9 16.6 -15 25.3 z m 1.8 17.5 c 12.2 16.7 18.5 3 24.8 -8.9 c -16.7 -11.7 4.5 5.4 4.1 -4.4 c -0.9 -5 12 -16.9 3.1 -18 c 5.9 -6.9 12 -31.3 -8.2 -25.3 c -8.5 -2.8 -8.4 20.7 -6.2 22.7 c -3.4 12.8 -9.9 23.3 -17.7 33.9 z m 5.7 10 c 8.8 13.6 21.4 8.5 22.2 -7.5 c 8.5 -2.5 -4.9 -12.4 5.6 -7.8 c 6.4 -17.2 3.2 -33 5.6 -51.3 c -19.6 -11.3 -23.5 7.6 -20.6 23.6 c 5 13 -8.9 30.7 -12.8 43 z m 8.3 -71.4 c 4.8 20 9.3 40.1 0.3 60 c 5.4 14 25.6 6.3 20.4 -9.9 c 3.5 -1.7 -3.5 -7.6 3.2 -5.1 c 3.4 -16.4 -4.1 -28.6 -5.3 -44.7 c -1.6 -8.8 -13.4 0.9 -18.6 -0.4 z m -28.7 1.9 c -3.1 16.5 24.2 18.4 22 -1.1 c -1.9 -7.2 4.8 -6.2 3.6 -14.9 c 6.6 -13.5 0.5 -24.1 -15.4 -22.4 c -5.4 13.2 -1 26.9 -10.2 38.4 z m 0.2 -56.9 c 0.6 24.5 16.6 44.6 30 63.4 c 9 12.8 29.4 1.3 25.5 -13.6 c -3.4 -25.1 -9.2 -52.9 -25 -73 c -15.7 -11 -33.4 6.6 -30.5 23.2 z"
     style="stroke-width: 139.5" />
  <path
     fill-rule="evenodd"
     fill="#ff31ff"
     stroke="#555555"
     stroke-width="0"
     opacity="1"
     d="M 290.6 648.2 c -2.4 44.6 37.9 77.5 79.4 81.9 c 48 7.5 112 -0.7 133.7 -51 c 15.9 -49.5 -11.7 -99.9 -5.2 -150.4 c 4.3 -45.7 -1.2 -101.3 -44.7 -127.4 c -51.1 -35.7 -131.7 -8.3 -147.3 53 c -13.4 49.6 2.3 102.1 -11.2 152 c -2.2 13.9 -4.2 27.8 -4.7 41.9 z"
     id="MACRO_BP_ABDOMEN" />
  <path
     fill-rule="evenodd"
     fill="#ffff00"
     stroke="#555555"
     stroke-width="0"
     opacity="1"
     d="M 249.6 308.9 c -3.8 62.3 14.3 125.7 46.6 178.6 c 20.1 23.8 54.2 31.1 83.8 35.7 c 41.8 3.5 88.4 -3.7 120.8 -31.6 c 35 -53.2 52.9 -118.8 49.4 -182.5 c 1 -37.5 -32.7 -59.8 -61.8 -75.9 c -37 -26.4 -86.2 -45.3 -130.4 -25.1 c -33.6 16.4 -68 34.7 -94.9 61.1 c -8.9 11.4 -12.2 25.6 -13.4 39.7 z"
     id="MACRO_BP_CHEST" />
  <path
     fill-rule="evenodd"
     fill="#22af11"
     stroke="#555555"
     stroke-width="0"
     opacity="1"
     d="M 246 880.6 c 1.5 62.1 11.3 123.8 20 185.2 c 2.9 27.4 35.1 57.1 61.6 37.4 c 26.9 -28.5 20.8 -72.2 32.3 -107.4 c 21.7 -71.8 28.6 -146.6 28.5 -221.3 c 1.2 -40.1 -0.4 -88.5 -32.4 -117.1 c -28.6 -23.3 -74.2 -5.6 -84 28.8 c -19.1 62.3 -23.7 129.4 -25.9 194.3 z"
     id="MACRO_BP_UPPER_LEG" />
  <path
     fill-rule="evenodd"
     fill="#ff0d00"
     stroke="#555555"
     stroke-width="0"
     opacity="1"
     d="M 200.1 1558.3 c 0.8 22.7 31.4 17.2 46.4 21.2 c 11.2 2.1 25.4 2.3 32.1 -8.1 c 14.3 -0.2 33.2 -5.2 31 -23.6 c -8.6 -40.9 0.8 -86.9 -22.9 -123.6 c -8.3 -16 -24 -0.9 -25.9 11 c -15.3 33.7 -14.5 77.8 -47.9 100.7 c -5.9 6.2 -12.8 13.3 -13 22.5 z"
     id="leftFoot" />
  <path
     fill-rule="evenodd"
     fill="#ff0dfa"
     stroke="#555555"
     stroke-width="0"
     opacity="1"
     d="M 240.9 1221.8 c 8 86.9 7 174.2 8.5 261.2 c -1.3 21.9 29 46.9 46.2 26.3 c 10.6 -32.7 3.7 -68.9 10.9 -102.6 c 10.2 -89.7 53.7 -177 37.1 -268.6 c -7.6 -32.7 -0.4 -70.2 -19.4 -99.4 c -16.8 -23.7 -52 -7.9 -56.5 17.5 c -15.8 53.4 -28.5 109.5 -26.7 165.6 z"
     id="MACRO_BP_LOWER_LEG" />
  <path
     fill-rule="evenodd"
     fill="#1f00aa"
     stroke="#555555"
     stroke-width="0"
     opacity="1"
     d="M 410.9 747.3 c 1 81.3 3 163.7 27.7 241.9 c 10.9 35.5 7.9 75.9 27.9 108.2 c 19.5 25.9 58 6.1 64.2 -20.9 c 12.2 -46.6 13 -95.6 20.4 -143.2 c 7.3 -78.2 -1.7 -157.6 -18.6 -234 c -6.1 -31.5 -35.9 -60.5 -69.8 -50.9 c -42.1 10.6 -48.2 62.9 -51.8 98.8 z"
     id="MACRO_BP_UPPER_LEG" />
  <path
     fill-rule="evenodd"
     fill="#11ffff"
     stroke="#555555"
     stroke-width="0"
     opacity="1"
     d="M 490.3 1547.8 c -1.8 15.8 13.4 23.6 27.1 23.1 c 8.4 -0.6 10.5 11.8 20.1 9.7 c 19.5 -2.2 42 -0.1 58.9 -11.2 c 13 -21.6 -15.7 -36.8 -27.1 -50.9 c -21.1 -30.3 -16.2 -73.1 -41.8 -100.6 c -19.6 -2.1 -23.4 26.7 -28.1 40.7 c -3.8 29.7 -4.6 59.7 -9.1 89.3 z"
     id="rightFoot" />
  <path
     fill-rule="evenodd"
     fill="#11ffaa"
     stroke="#555555"
     stroke-width="0"
     opacity="1"
     d="M 453 1203 c 11.7 92.6 47.2 181.6 46.2 276 c -2.5 16.6 4.9 44.1 26.9 37.2 c 34.4 -12.3 23.9 -56.7 25.4 -84.8 c -2.3 -78.5 5.6 -156.6 7.8 -234.9 c -4.3 -51.3 -12.5 -103.5 -31.9 -151.3 c -10.3 -24.1 -46.5 -23.8 -56.3 0.6 c -12.9 36.3 -10.1 76.3 -17.1 114 c -1.4 14.4 -1.5 28.7 -1 43.1 z"
     id="MACRO_BP_LOWER_LEG" />
  <path
     fill-rule="evenodd"
     fill="#73ff00"
     stroke="#555555"
     stroke-width="0"
     opacity="1"
     d="M 273.3 703.4 c 2.1 27.9 25.6 47.6 29.9 75.1 c 9.1 35 52.6 38.7 82.5 35 c 33.8 -1.9 74.6 9.6 101.9 -17 c 13.9 -21.9 16.7 -49.1 32.8 -70 c 12.7 -32.9 4.1 -73 -16.2 -101.1 c -26.6 -27.2 -67.8 -32.6 -104 -35.2 c -36.3 2.3 -77.5 8 -104.1 35.1 c -17.2 21.6 -22.5 51.2 -22.7 78.2 z"
     id="MACRO_BP_HIP" />
</svg>
