<svg
  xmlns="http://www.w3.org/2000/svg"
  width="1840"
  height="2006"
  viewBox="0 0 1840 2006"
  version="1.1"
>
  <path
    d="M 699.5 332.6 C 684.7 340.1 668.2 351 662.6 357 C 660.1 359.6 656.5 364.3 654.6 367.3 C 652.6 370.3 650 373.6 648.8 374.7 C 646.5 376.5 640.9 382.5 628.1 397 C 624.6 400.9 616 409.4 609 415.8 C 602 422.3 592.8 431.8 588.5 437 C 581.6 445.2 552.1 475.9 492.6 536.7 L 475.7 554 L 477.7 556.3 C 481.7 560.9 507.7 589.7 513.5 596 C 516.8 599.6 522.4 605.8 525.9 609.8 C 529.4 613.7 532.6 617 533 617 C 533.9 617 634.2 513.6 697.9 447 C 729 414.5 726.6 416.7 730.8 417.4 L 734.3 417.9 L 733.7 412.7 C 733.4 409.8 731.9 389.4 730.3 367.3 L 727.6 327 L 719 327 C 710.7 327.1 710.3 327.2 699.5 332.6"
    stroke="none"
    fill="#606060"
    id="MACRO_BP_UPPER_ARM"
    fill-rule="evenodd"
  />
  <path
    d="M 962.5 263.3 C 943.1 281.9 926 288.5 903.5 286.4 C 892.2 285.3 880.4 279.1 867.8 267.6 L 862.2 262.5 L 858.7 277.2 C 856.7 285.4 854.6 294.5 854 297.5 C 852.1 306.2 852 306.5 848.8 308.5 L 845.8 310.3 L 849.2 312.8 C 853.8 316.3 861.2 319.1 873.2 321.7 C 882.5 323.7 886.3 323.9 911 324 C 935.2 324 940 323.7 951 321.7 C 967 318.8 978.1 315.4 984.9 311.3 C 990.7 307.8 991.5 306.3 987.9 305.5 C 984 304.6 982.4 300.5 976.9 277.8 C 974 265.5 971.4 255.5 971 255.5 C 970.7 255.6 966.9 259 962.5 263.3"
    stroke="none"
    fill="#a7a7a7"
    id="MACRO_BP_MACRO_BP_NECK"
    fill-rule="evenodd"
  />
  <path
    d="M 467 562.2 C 462.3 566.7 442.8 584.9 423.5 602.7 C 404.3 620.5 373.6 650.2 355.3 668.8 C 284.1 741.1 266.2 759.7 262.1 765.3 C 259.4 769 256.6 771.5 254.2 772.5 C 252.2 773.4 249.5 775.1 248.3 776.2 C 247 777.4 245.7 778.1 245.4 777.8 C 244.9 777.2 236.7 782.1 209.1 799.6 C 200 805.3 199.6 805.7 196.5 812.5 C 191.1 824.4 183 845.6 182.6 849.1 C 182.3 851 181.4 854.5 180.5 857 C 178.3 862.9 177.3 878.9 178.9 881.9 C 180.4 884.6 186.2 887.2 195.9 889.4 C 203.7 891.2 206 890.6 206 887 C 206 885.1 199.8 879.2 194.7 876.2 C 186.5 871.3 190.2 860.6 206.2 842.7 C 208.6 840 211.1 836.9 211.8 835.7 C 212.8 834 218.7 831.6 235.8 825.8 C 249.9 821 258.8 818.4 259.4 819 C 260.9 820.5 251.2 845.9 247.3 850.2 C 243.2 854.9 238.6 864 239.7 865.1 C 240.9 866.3 256.6 854.2 268.5 842.8 C 278.3 833.5 278.8 832.8 282 824.3 C 283.8 819.5 287.7 810.3 290.6 803.9 C 293.6 797.4 296 791.5 296 790.7 C 296 789.8 297.2 787.8 298.6 786.1 C 302.2 781.8 452.6 672.8 460.6 668.7 C 462.4 667.8 465.2 665.9 466.9 664.4 C 468.7 662.9 470.3 662 470.6 662.3 C 471.2 662.9 485.9 652.7 510.2 634.8 C 518.3 628.9 525.3 624 525.8 624 C 526.2 624 528 622.5 529.7 620.8 L 532.9 617.5 L 509.3 591.5 C 496.3 577.2 483.4 562.9 480.6 559.8 L 475.5 554.2 L 467 562.2"
    stroke="none"
    fill="#565656"
    id="MACRO_BP_FOREARM"
    fill-rule="evenodd"
  />
  <path
    d="M 1334.9 583.6 C 1319.3 601 1306.5 615.6 1306.5 616.2 C 1306.5 616.8 1307.4 617.8 1308.5 618.4 C 1309.6 619 1317.7 624.7 1326.5 631.1 C 1353.3 650.4 1362.8 657 1364 657 C 1364.7 657 1370.4 660.8 1376.8 665.4 C 1383.3 670 1392.3 676.2 1397 679.2 C 1401.7 682.2 1407.1 686 1409 687.7 C 1410.9 689.3 1413.8 691.3 1415.5 692.1 C 1417.2 693 1434 705.1 1453 719.1 C 1472 733.1 1497.8 752.1 1510.5 761.2 C 1523.2 770.3 1534.5 778.9 1535.7 780.1 C 1536.9 781.4 1538.9 785.4 1540.3 789 C 1541.6 792.6 1544.1 798.2 1545.7 801.5 C 1547.3 804.8 1550.4 812.1 1552.4 817.7 C 1556.1 827.6 1556.5 828.2 1564.9 836.2 C 1577.5 848.4 1594.4 861.7 1595.4 860.2 C 1596.2 858.8 1591.5 849.6 1587.8 845.4 C 1585.5 842.8 1582.8 837.4 1579.7 828.9 C 1574.7 815.6 1574.4 814.5 1576 813.5 C 1577.7 812.4 1621.3 828.1 1623 830.4 C 1623.8 831.5 1626.5 834.8 1629 837.6 C 1635.8 845.3 1641.1 853 1643.3 858.2 C 1645.1 862.4 1645.2 863.2 1643.9 866.3 C 1643 868.6 1640.2 871.5 1636 874.7 C 1628.6 880.2 1627.3 883.3 1631.4 885.1 C 1633.6 886.1 1635.3 885.9 1642.1 883.7 C 1646.5 882.2 1650.5 881.2 1651 881.5 C 1651.4 881.8 1653 880.6 1654.4 878.9 C 1656.7 876.2 1657 874.9 1657 868.6 C 1657 857 1648.8 829.6 1639 808.5 L 1635.3 800.5 L 1614 787.1 C 1602.3 779.8 1591.7 773.5 1590.6 773.2 C 1589.4 772.9 1587.4 771.8 1586 770.8 C 1584.6 769.7 1582.1 768.2 1580.3 767.5 C 1578.6 766.8 1575.3 763.7 1572.9 760.3 C 1568.5 754.4 1541.2 726.2 1475.7 660 C 1439.3 623.2 1400 586 1397.5 586 C 1396.8 586 1388.8 578.4 1379.8 569.1 L 1363.3 552.2 L 1334.9 583.6"
    stroke="none"
    id="MACRO_BP_FOREARM"
    fill="#727272"
    fill-rule="evenodd"
  />
  <path
    d="M 750.6 1448.7 C 750.3 1449.7 748.5 1459.7 746.6 1471 C 744.6 1482.3 740.2 1507.3 736.7 1526.5 L 730.3 1561.5 L 731.1 1616 C 731.5 1646 732.6 1720.5 733.6 1781.6 L 735.3 1892.7 L 724.4 1905.1 C 705.7 1926.3 684.2 1953.3 666.1 1978.2 C 655.9 1992.3 655.5 1993.9 661.6 1996.5 C 669.6 1999.8 679.7 2001 700.3 2001 C 722.1 2001 750.2 1999.5 756 1998 C 762.3 1996.3 764.2 1993 771.5 1971.4 L 778.2 1951.3 L 785.7 1943.9 C 794 1935.6 797.4 1930.6 798.9 1924.2 C 799.7 1920.3 799.5 1918.9 796.3 1911.2 C 794.4 1906.4 790.9 1898.9 788.5 1894.4 L 784.1 1886.3 L 786.6 1864.4 C 788 1852.4 791.5 1820.5 794.4 1793.5 L 799.8 1744.5 L 810.5 1698 C 816.3 1672.4 826 1630.6 831.9 1605 L 842.8 1558.5 L 845.9 1506 C 847.6 1477.1 849 1452.9 849 1452.2 C 849 1451.3 848.1 1451.5 846.1 1452.9 C 840.6 1456.9 826.5 1463 818.1 1465.1 C 805.6 1468.2 789.7 1467.5 778.3 1463.2 C 771 1460.5 761.4 1455 753.8 1449 C 751.3 1447.1 751.1 1447.1 750.6 1448.7"
    stroke="none"
    fill="#b8b8b8"
    id="MACRO_BP_LOWER_LEG"
    fill-rule="evenodd"
  />
  <path d="" stroke="none" fill="#c9c9c9" fill-rule="evenodd" />
  <path
    d="M 1006.6 1127.6 C 968.2 1131.1 936.6 1134.1 936.4 1134.2 C 936.1 1134.5 949.8 1199 976 1320.3 C 993.4 1400.7 995 1408.9 995 1417.9 C 995 1423.3 995.3 1432.5 995.6 1438.3 L 996.3 1448.9 L 1004.9 1452.6 C 1020.8 1459.3 1030.6 1461.3 1047 1461.4 C 1060.2 1461.4 1062.2 1461.2 1069.5 1458.7 C 1073.9 1457.2 1079.9 1454.7 1082.8 1453 C 1087.4 1450.3 1088 1449.6 1088 1446.7 C 1088 1445 1086.4 1429.8 1084.5 1413.2 L 1081.1 1382.8 L 1082.5 1353.7 C 1085.8 1285.5 1088 1205.1 1088 1154.3 L 1088 1121 L 1082.3 1121.1 C 1079.1 1121.2 1045 1124.1 1006.6 1127.6"
    stroke="none"
    fill="#a0a0a0"
    id="MACRO_BP_UPPER_LEG"
    fill-rule="evenodd"
  />
  <path
    d="M 780.2 815.3 C 779.6 818.1 776.3 832.6 773 847.5 C 751.8 940.8 747.3 969.4 746.3 1019 C 745.8 1045.1 747.4 1122.7 748.4 1123.8 C 749.2 1124.6 897.4 1135.8 898.1 1135.1 C 898.5 1134.8 901.3 1119.4 904.5 1101 C 907.6 1082.6 910.4 1066.5 910.7 1065.3 C 911.1 1063.4 910.7 1063.1 906.3 1062.5 C 897.5 1061.3 888 1058.9 888 1057.9 C 888 1057.3 888.7 1055.5 889.6 1053.9 C 890.7 1051.7 891.6 1051.1 892.9 1051.5 C 898.2 1053.1 909.2 1055 914.1 1055 C 920.3 1055 931.9 1052.3 939.4 1049 C 943.7 1047.2 944.5 1047.1 945.8 1048.4 C 946.7 1049.3 947 1050.7 946.7 1052.2 C 946 1054.8 937.5 1058.8 927.4 1061.5 C 924.3 1062.3 921.6 1063.1 921.4 1063.2 C 921.1 1063.5 935.9 1133.2 936.3 1133.7 C 936.5 1133.8 970.7 1130.9 1012.4 1127.2 L 1088.2 1120.5 L 1087.7 1054.5 C 1087.1 973.2 1086.8 969.8 1074.4 910.5 C 1067.7 878.6 1055.2 820.8 1054.4 817.9 C 1054 816.4 1053.2 816.6 1048.5 819.1 C 1034.2 826.9 1008.8 832.2 973 835 C 955.7 836.3 907.1 836.3 888.2 835 C 838.7 831.5 798.7 822.6 785.3 812.1 C 783.9 810.9 782.4 810 782 810 C 781.6 810 780.8 812.4 780.2 815.3 M 773 872.5 L 773 876 L 917.5 876 L 1062 876 L 1062 872.5 L 1062 869 L 917.5 869 L 773 869 L 773 872.5 M 750 1100.8 L 750 1104.7 L 770.3 1105.3 C 781.4 1105.7 796.2 1106 803.1 1106 C 811.2 1106 830.5 1107.6 857.1 1110.5 C 879.9 1113 898.6 1115 898.8 1115 C 898.9 1115 899 1113.3 899 1111.1 C 899 1106.5 903.5 1107.4 857.9 1102.5 C 822.4 1098.7 815.4 1098.3 776.3 1097.5 L 750 1097 L 750 1100.8 M 970.8 1102.4 C 951.7 1105.2 935.6 1108 934.9 1108.6 C 933.4 1110.2 934.6 1113.7 936.9 1114.5 C 937.9 1114.8 944.9 1114.1 952.6 1113 C 1002.5 1105.6 1010.1 1105 1049.2 1105 L 1086 1105 L 1086 1101 L 1086 1097 L 1045.8 1097.1 L 1005.5 1097.2 L 970.8 1102.4"
    stroke="none"
    fill="#d7d7d7"
    id="MACRO_BP_HIP"
    fill-rule="evenodd"
  />
  <path
    d="M 763 621.9 C 763 622.6 768.2 661 774.5 707.3 L 785.9 791.6 L 783.8 800.4 L 781.8 809.3 L 784.1 811.2 C 788.3 814.6 802.2 820.8 811.5 823.3 C 842 831.8 881.9 836 931.2 836 C 986.9 836 1025.7 830.6 1047.2 819.9 C 1050.3 818.3 1053.1 816.7 1053.3 816.3 C 1053.6 815.8 1052.5 809.7 1050.9 802.7 L 1048.1 790 L 1059 709.5 C 1065.1 665.3 1070 628.9 1070 628.7 C 1070 628.5 1067.4 630.9 1064.3 634 C 1057.3 640.7 1049.7 644.8 1035.9 649.4 C 974.6 669.9 851.3 666 791.8 641.8 C 780.8 637.3 770 630.2 766.1 624.8 C 764.4 622.5 763 621.2 763 621.9 M 918 798 L 918 803 L 922 803 L 926 803 L 926 798 L 926 793 L 922 793 L 918 793 L 918 798"
    stroke="none"
    fill="#ececec"
    id="MACRO_BP_ABDOMEN"
    fill-rule="evenodd"
  />
  <path
    d="M 989 311.1 C 982.4 316.7 968.1 321.5 949.5 324.7 C 935.5 327 889 327.3 877 325.1 C 865.7 323.1 854.8 319.4 850.2 316 L 846 313 L 839.8 314.5 C 822.8 318.4 786.9 322.8 753.5 325 C 726.7 326.7 728 326.4 728 330.8 C 728 339.6 734.1 417.7 734.9 420 C 735.4 421.4 741.9 466.8 749.2 521 L 762.5 619.5 L 765.6 624 C 777.7 641.7 822.9 655.4 888 661.1 C 905.8 662.7 955 662.7 972 661.1 C 1011.6 657.5 1041.3 650.1 1056.6 640.1 C 1064.1 635.3 1069.7 629.1 1070.5 624.8 C 1070.8 623 1077.3 575.6 1085.1 519.5 C 1095.7 442.4 1098.9 417.1 1098 415.7 C 1097.1 414.3 1097.4 413.8 1099.5 413 C 1101 412.4 1102.9 412 1103.9 412 C 1106.2 412 1106.1 412.8 1109.6 361.8 C 1111.1 340.4 1112 322.7 1111.6 322.3 C 1111.3 321.9 1104.8 321.3 1097.2 320.8 C 1043.1 317.7 1008.7 314 993 309.5 C 992.2 309.3 990.4 310 989 311.1 M 1016.6 559.9 C 1014.6 563.7 1016.3 566.3 1020.5 565.8 C 1023.1 565.5 1023.5 565 1023.8 562.2 C 1024.1 559.5 1023.7 558.8 1021.5 558 C 1018 556.7 1018.3 556.6 1016.6 559.9 M 809.6 561.9 C 807.6 565.7 809.3 568.3 813.5 567.8 C 816.1 567.5 816.5 567 816.8 564.2 C 817.1 561.5 816.7 560.8 814.5 560 C 811 558.7 811.3 558.6 809.6 561.9"
    stroke="none"
    fill="#ffffff"
    id="MACRO_BP_CHEST"
    fill-rule="evenodd"
  />
  <path
    d="M 895.4 5.5 C 883.7 7.3 870.7 10.6 865.6 13.2 C 847.8 22.3 831.8 38.5 822.6 56.7 C 820.1 61.7 820 62.6 820 79 C 820 97.4 821.1 110 823.9 124.9 L 825.8 134.4 L 823.1 137.1 C 821 139.1 819.7 139.6 817.2 139.2 C 811.1 138.3 809.3 139.5 808.1 145 C 805.4 157.5 807 165.3 814.8 177 C 821.1 186.4 823.6 187.8 823.3 181.8 C 823.1 178 823.1 178 827 178 L 831 178 L 831 182.4 C 831 189.2 833.8 209.4 836.2 219.5 C 838.1 227.7 838.8 229.2 844.3 235.8 C 857.4 251.9 878.3 270.4 890.2 276.4 C 908.4 285.6 927 283.4 945.2 269.7 C 957.1 260.7 969.9 248.9 978.7 238.8 L 986.9 229.4 L 989 218.4 C 990.3 211.9 991.4 201.5 991.7 192.8 L 992.3 178 L 996.1 178 C 999.9 178 999.9 178 1000.2 182.5 L 1000.5 187 L 1004.7 181.8 C 1012.4 172.2 1015.3 165.6 1015.8 156.5 C 1016 151.6 1015.6 146.8 1014.8 144 L 1013.4 139.5 L 1008.4 139.5 C 1004.9 139.5 1003.1 139 1002.2 137.8 C 1001.5 136.8 1000.2 136 999.4 136 C 998.2 136 998 135.3 998.4 133.3 C 1000.9 120.4 1005.3 71.9 1004.7 64 C 1003.7 51.5 998.4 41.5 986.8 29.9 C 974.3 17.4 959.5 9.2 943.6 5.9 C 932.7 3.7 909.5 3.5 895.4 5.5 M 863 58.4 C 846.3 73 842 78.3 837.5 89.5 C 835.3 95 832.4 103.5 830.9 108.5 L 828.1 117.5 L 830.2 119.3 C 833.6 122.2 836.1 119.7 838.1 111.2 C 839.1 107.3 841.7 99.5 843.9 93.8 C 847.6 84.3 848.5 82.9 855.5 76 L 863 68.5 L 863 72 C 862.9 73.9 862.1 79.3 861.1 84 C 860.2 88.7 859.5 93.1 859.7 93.7 C 860 94.5 863 93.1 867.8 90.1 C 887.7 77.8 891.7 76.3 883.1 84.4 C 879.4 88 879 90.3 882.3 89.5 C 883.5 89.3 895.5 87 909 84.5 C 935.3 79.5 942 77.2 956.8 67.9 L 963.2 63.8 L 966.7 67.2 C 968.6 69 972.5 73.4 975.5 77 L 980.8 83.5 L 983.4 103 C 984.8 113.7 986 122.8 986 123.3 C 986 123.7 987.6 124 989.6 124 L 993.2 124 L 992.6 119.3 C 992.3 116.6 991.8 111.1 991.4 107 C 991.1 102.9 990 94.9 989 89.2 C 987.5 80.7 986.6 78.3 983.8 74.7 C 977.9 67.1 971 59.5 967.5 56.7 L 964 53.9 L 955.6 59.4 C 941.9 68.6 925.4 74.9 911.5 76.5 C 908.2 76.8 904.1 77.4 902.5 77.7 C 899.7 78.2 900 77.7 906.7 70.9 C 910.6 66.8 915 62.1 916.4 60.3 L 919 57.2 L 916.8 54.6 L 914.5 52.1 L 892.6 65.6 C 880.6 73 870.5 78.9 870.3 78.6 C 870 78.4 870.5 74.8 871.4 70.6 C 873.5 60.6 874.5 50 873.4 50.1 C 872.9 50.1 868.2 53.8 863 58.4"
    stroke="none"
    id="MACRO_BP_FACE"
    fill="#2f2f2f"
    fill-rule="evenodd"
  />
  <path
    d="M 871.5 2.4 C 856 8.4 845.6 15.2 834 26.9 C 820.8 40.2 814 52 811.9 65.3 C 810.4 74.7 813.7 119.3 816.6 129.3 C 817.1 130.7 816.5 131 812.8 131 C 810.3 131 807.2 131.8 805.3 132.9 C 802.7 134.6 802 135.9 800.6 141.9 C 798.6 150.6 798.6 156.7 800.5 164.8 C 803.2 176.3 810.6 187.6 818.8 192.9 L 823.6 196.1 L 826.3 210.9 C 830.1 232.5 831.9 236.3 844.4 249.6 L 854.9 260.7 L 849.7 282.6 L 844.5 304.5 L 836.5 306.8 C 823.5 310.5 758.7 317.6 720.5 319.6 C 712.2 320 705.8 320.9 702.9 322 C 695.9 324.6 661 345.1 661 346.6 C 661 347.3 659.6 348.8 658 350 C 656.3 351.2 649.5 358.5 642.8 366.3 C 627.5 384 598.2 414.6 594.1 417.1 C 592.3 418.2 590.6 419.8 590.2 420.8 C 588.6 424.3 563.9 449.9 491.5 523.4 C 459.1 556.3 430.8 584.3 428.6 585.7 C 424.1 588.6 375.3 633.7 369.5 640.3 C 367.3 642.9 344.8 666 319.5 691.7 C 294.2 717.5 268.4 744.1 262.3 751 C 253.6 760.6 249.7 764.2 245.3 766.5 C 242.1 768.1 237.9 770.7 235.9 772.2 C 233.9 773.8 231.7 775 231 775 C 230.3 775 228.1 776.4 226 778 C 223.9 779.6 221.7 781 221 781 C 220.3 781 213.6 784.9 206 789.7 L 192.3 798.4 L 186.5 811.4 C 179.9 826.5 170 855.5 169.5 861.4 C 169.2 863.7 168.8 868.3 168.4 871.7 C 167.5 880.2 169.2 886 174.1 890.9 C 177.3 894 179.6 895.2 186.3 897.1 C 190.8 898.3 198.4 899.5 203.1 899.8 L 211.7 900.2 L 214.9 890.9 C 217 884.7 217.6 881.4 216.9 881.1 C 216.3 880.9 213.4 878.8 210.4 876.4 C 207.4 874 204.7 872 204.2 872 C 203.7 872 202.4 871 201.2 869.7 L 199 867.4 L 208.4 854.9 C 215.7 845.2 218.6 842.1 221.2 841.3 C 223 840.7 228.9 838.6 234.2 836.6 C 239.6 834.6 244.2 833.5 244.5 834 C 245.3 835.4 242.5 840.9 238 846.5 C 233.2 852.5 231 858.5 231 865.6 C 231 870.2 231.4 871.1 234.1 873.4 C 235.8 874.8 237.9 876 238.9 876 C 241.4 876 258.4 864.7 267.7 856.8 C 280.9 845.6 287 838 291.5 827 C 299.9 806.5 307 791.5 309.7 789 C 315.1 783.8 463.1 677.4 464.3 677.8 C 464.8 677.9 472.4 672.9 481.3 666.6 C 490.2 660.4 505.5 649.8 515.3 643.2 L 533 631.2 L 575.3 587.9 C 598.6 564 621.4 540.2 626.1 535 C 639.6 519.8 649.2 509.8 689.7 468.6 C 723.6 434.1 728 430 728.4 432.1 C 729 434.6 743.3 538.3 765.5 700 L 778 791.4 L 772 816.5 C 753.9 892.3 744.4 940.2 740.3 976 C 735.4 1018.4 740.4 1191.3 751.1 1352.5 L 753.1 1382.5 L 748.5 1409 C 741.5 1449.8 735.5 1483.4 728.8 1519.5 L 722.8 1552.5 L 724 1651.5 C 724.7 1706 725.8 1780.6 726.4 1817.3 L 727.5 1884.2 L 716.1 1897.3 C 693.4 1923.7 655.7 1971.8 651.5 1980 C 648.6 1985.6 648.9 1991.3 652.4 1994.9 C 658.9 2001.6 671 2003.5 707.5 2003.4 C 752.8 2003.3 765.2 2001 770.8 1991.8 C 771.9 1990 775.6 1980 779 1969.5 L 785.3 1950.5 L 792 1944 C 800.4 1935.8 805.6 1928 807.1 1921.5 C 808.6 1914.8 806.9 1908.6 799.2 1893.1 L 793.6 1881.7 L 794.9 1866.1 C 796.5 1846.3 801.2 1797.5 804.6 1767 C 807.4 1741.3 808.3 1737 837.5 1611 L 850.8 1553.5 L 855 1481.5 L 859.2 1409.5 L 878 1301 C 888.4 1241.3 901 1168.2 906.1 1138.5 C 911.2 1108.8 915.6 1084.2 915.9 1083.8 C 916.3 1083.4 932.6 1157.4 952.3 1248.3 L 988 1413.5 L 988.3 1484.5 L 988.5 1555.5 L 1005.8 1650.9 L 1023 1746.2 L 1022.8 1807.4 L 1022.5 1868.5 L 1015.8 1882.6 C 1004.7 1906.1 1003.1 1914.7 1007.6 1925.6 C 1009.9 1931.1 1018.7 1941.7 1025.4 1947 C 1028.8 1949.6 1033.9 1955.4 1037.8 1960.9 C 1041.6 1966.2 1049.8 1975.6 1056.7 1982.3 C 1077.7 2002.9 1076.5 2002.4 1111 2002.5 C 1135.6 2002.5 1138.3 2002.3 1148 2000.1 C 1157.2 1997.9 1159 1997.2 1162.3 1993.9 C 1166 1990.2 1166.1 1989.9 1165.4 1985.3 C 1164.5 1978.9 1162.2 1974.7 1153.1 1962.1 C 1136.6 1939.5 1112.9 1902.3 1100.1 1878.9 L 1095.9 1871.2 L 1100 1778.9 C 1102.2 1728.1 1105.1 1659.7 1106.5 1626.9 L 1109 1567.3 L 1104 1519.4 C 1101.2 1493.1 1096.7 1451.3 1093.9 1426.5 L 1088.9 1381.5 L 1089.9 1359.5 C 1095.1 1251.3 1098.2 1085.1 1096.1 1030 C 1094.1 979 1092.8 966 1086.6 933 C 1077.1 882.1 1061.6 810 1060 809 C 1059.5 808.7 1058.8 806 1058.5 803 C 1058.1 800 1057.4 795.8 1056.9 793.8 C 1056.1 790.9 1058.3 773 1067 709.3 C 1084.7 579.9 1106 425.6 1106.3 424.7 C 1106.4 424.2 1115.7 433.5 1127 445.2 C 1156.7 476.2 1250.6 573.4 1278.3 601.8 C 1301.6 625.8 1302.3 626.5 1319.8 638.2 C 1329.5 644.8 1344.8 655.4 1353.7 661.6 C 1362.6 667.9 1370.2 672.9 1370.7 672.8 C 1372 672.4 1519.8 778.7 1525.3 784 C 1528 786.6 1539.2 810.3 1545.1 825.9 C 1547.1 831.3 1549 833.9 1557.5 842.4 C 1570.5 855.6 1591.5 871 1596.4 871 C 1597.2 871 1599.4 869.7 1601.1 868.2 C 1607.4 862.5 1605.6 851.8 1596.3 840.8 C 1592.4 836.1 1589.6 830.4 1590.5 829 C 1590.8 828.5 1594.7 829.4 1599.3 831.1 C 1603.8 832.8 1609.5 834.7 1612 835.4 C 1616.2 836.5 1617.2 837.6 1626.2 849.5 L 1636 862.4 L 1633.8 864.7 C 1632.6 866 1631.3 867 1630.8 867 C 1630.3 867 1627.6 869 1624.6 871.4 C 1621.6 873.8 1618.7 875.9 1618.1 876.1 C 1616.7 876.6 1622.3 894 1624.3 895.2 C 1625.8 896.2 1633.4 895.4 1642.5 893.2 C 1646.3 892.3 1649.8 891.7 1650.3 891.8 C 1651.8 892.2 1658.6 888.1 1661.8 884.8 C 1667.7 878.6 1668.3 872.1 1664.6 854.6 C 1661.6 840.3 1654.8 820 1648.1 805 L 1642.9 793.5 L 1634.4 788.1 C 1629.7 785.2 1622.8 781.2 1619.2 779.2 C 1615.5 777.3 1610.9 774.4 1608.9 772.9 C 1606.9 771.3 1604.7 770 1604 770 C 1603.3 770 1601.1 768.8 1599.1 767.2 C 1597.1 765.7 1592.9 763.1 1589.7 761.5 C 1585.3 759.2 1581.4 755.6 1572.7 746 C 1566.5 739.1 1540.8 712.5 1515.5 686.7 C 1490.2 661 1467.7 637.9 1465.5 635.3 C 1459.8 628.8 1410.6 583.3 1406.7 581 C 1405 579.9 1399.3 574.6 1394.2 569 C 1389.1 563.5 1384.3 559 1383.6 559 C 1382.9 559 1372.2 548.5 1359.9 535.8 C 1330.5 505.3 1278 451.3 1240.1 412.6 C 1223.4 395.5 1203 373.8 1194.9 364.3 C 1186.7 354.9 1178.7 346.2 1177 345 C 1175.4 343.8 1174 342.3 1174 341.6 C 1174 340.3 1140.8 320.5 1133.4 317.3 C 1130.6 316.2 1120.6 315 1098.7 313.4 C 1060.3 310.5 1014.5 306.2 1007.6 304.9 C 1004.8 304.4 999.8 303.1 996.4 302 L 990.4 300 L 984.9 278.3 C 979.9 258.8 979.2 256.5 977.1 256 C 975 255.5 975 255.4 978.5 252 C 986.5 244.3 992.7 235.5 994.8 229 C 996.5 223.7 1000 202.5 1000 197.2 C 1000 196.5 1001.5 195.3 1003.4 194.5 C 1005.3 193.7 1009 190.4 1011.6 187.3 C 1021.4 175.3 1025.4 161.5 1023.2 147 C 1021.5 134.8 1018.4 131 1010.3 131 C 1006.9 131 1006.8 130.9 1007.4 127.8 C 1008.9 119 1012.2 81.1 1012.3 70.5 C 1012.5 60.4 1012.1 57.3 1010.2 51 C 1004.8 33.9 987.4 16 966 5.6 L 955.6 0.5 L 916.5 0.3 C 877.7 0.1 877.5 0.1 871.5 2.4 M 897.5 5.1 C 884.7 6.8 869.8 10.9 863 14.6 C 846.1 23.9 831.8 38.5 823.4 55.2 L 820 62 L 820 79 C 820 97.4 821.1 110 823.9 124.9 L 825.8 134.4 L 823.1 137.1 C 821 139.1 819.7 139.6 817.2 139.2 C 811.1 138.3 809.3 139.5 808.1 145 C 805.4 157.5 807 165.3 814.8 177 C 821.1 186.4 823.6 187.8 823.3 181.8 C 823.1 178 823.1 178 827 178 L 831 178 L 831 182.4 C 831 189.2 833.8 209.4 836.2 219.5 C 838 227.6 838.8 229.2 843.9 235.4 C 856.3 250.7 879 270.9 890.2 276.6 C 903 283.1 917.8 283.6 931.1 278.1 C 943.3 273 966.9 253.1 982.2 235 C 986.5 229.8 987 228.8 989 218.5 C 990.3 211.9 991.4 201.5 991.7 192.8 L 992.3 178 L 996.1 178 C 999.9 178 999.9 178 1000.2 182.5 L 1000.5 187 L 1004.7 181.8 C 1012.4 172.2 1015.3 165.6 1015.8 156.5 C 1016 151.5 1015.6 146.8 1014.8 144 L 1013.4 139.5 L 1008.2 139.5 C 1004.1 139.6 1002.9 139.2 1002.4 137.8 C 1002.1 136.8 1001 136 999.9 136 C 998.2 136 998 135.5 998.5 132.8 C 999.9 124.6 1002.1 104.8 1003.6 86.6 C 1005.6 64.3 1005.1 58.3 1000.6 48.4 C 992.7 31.2 970.3 13.2 949 6.9 C 942.7 5.1 938.6 4.7 923 4.4 C 912.8 4.3 901.4 4.6 897.5 5.1 M 962.5 265.8 C 943.1 284.4 926 291 903.5 288.9 C 892.2 287.8 880.4 281.6 867.8 270.1 L 862.2 265 L 858.6 279.7 C 856.7 287.9 854.5 297.3 853.9 300.7 C 852.7 306.3 852.2 307.3 848.6 309.8 C 846.3 311.4 842.5 313.2 840 313.8 C 820.5 318.5 774.4 323.6 728.1 326 L 708.6 327 L 698.6 332.4 C 684.1 340 670.2 348.8 665.1 353.4 C 662.7 355.7 658.7 360.4 656.2 364 C 653.7 367.6 647.8 374.6 643.1 379.6 C 638.4 384.6 631.2 392.3 627.2 396.8 C 623.2 401.3 614.4 410 607.7 416.2 C 601 422.4 592.2 431.6 588.1 436.5 C 583.9 441.4 572.9 453.4 563.5 463 C 487.9 540.6 475.5 553 474.3 552.5 C 473.4 552.2 472.5 553.1 471.9 554.8 C 470.9 557.8 464.2 564.3 417.5 607.3 C 401.6 622.1 373.3 649.5 354.8 668.3 C 283.8 740.4 264.2 760.7 261.6 764.9 C 260.1 767.2 257.5 769.9 255.8 770.8 C 254.1 771.8 251.2 773.5 249.3 774.8 C 247.5 776 245.4 777 244.9 777 C 243.8 777 225.8 788 208.1 799.4 L 198.5 805.6 L 192.1 821 C 184.8 838.6 181.8 846.9 181.8 849 C 181.8 849.8 180.9 853.4 179.7 857 C 176.9 865.8 176.7 880.8 179.3 883.8 C 181.2 885.9 191.2 889.4 199.3 890.9 C 203.7 891.7 204.2 891.6 205.7 889.4 C 207.1 887.2 207.1 886.8 205.6 884.5 C 204.7 883.2 201.6 880.4 198.6 878.3 C 193.2 874.6 191 871.5 191 868.2 C 191.1 863.8 197.9 852.9 207.1 842.5 C 209.7 839.6 212.2 836.5 212.6 835.7 C 213.3 834.5 255.5 819 258.2 819 C 259.7 819 259 821.9 254.4 834.1 C 251.3 842.7 248.8 847.6 246.4 850.3 C 241.7 855.5 237.7 863.9 239.2 865.7 C 240 866.7 241.2 866.3 244.7 863.7 C 252.4 858.3 267.2 845.5 273.6 838.8 C 279 833.3 280.3 831.2 283.4 822.7 C 285.4 817.3 288.5 809.9 290.4 806.2 C 292.2 802.5 294.7 796.7 296 793.4 C 297.3 789.8 299.5 786 301.3 784.3 C 307.6 778.4 450.4 675.6 460.6 669.7 C 463.9 667.7 467.3 665.4 468 664.5 C 468.7 663.7 469.9 663 470.7 663 C 472.2 663 482.8 655.7 508.9 636.7 C 523.5 626 525.7 624.7 529.6 624.5 C 535.1 624.4 536.7 623 534.9 620.2 C 533.4 617.8 528 623.7 587.5 562.5 C 605.6 543.8 642.5 505.5 669.5 477.5 C 696.4 449.4 720.3 424.6 722.6 422.3 C 726.9 417.8 730.2 416.9 733.2 419.3 C 734.5 420.2 737.6 440.5 748.4 519.5 C 755.9 574 767.4 657.4 773.9 705 C 780.5 752.6 785.6 792.6 785.3 794 C 785 795.4 784.4 797 784 797.5 C 783.2 798.7 781.2 806.8 781.2 809 C 781.3 809.8 778.7 821.5 775.7 835 C 756.1 920.5 749.7 955.7 746.9 994.5 C 745.9 1008.5 746.2 1080.6 747.5 1120.8 C 749.9 1196.8 755.7 1311.5 760 1369.7 C 760.8 1381.6 760.7 1382.7 756.4 1408.2 C 754 1422.7 752 1434.8 752 1435.3 C 752 1435.7 750.9 1436 749.5 1436 L 746.9 1436 L 748.9 1438.8 L 750.9 1441.5 L 747.5 1461 C 745.6 1471.7 741 1497.6 737.2 1518.5 L 730.3 1556.5 L 731.1 1613 C 731.5 1644.1 732.7 1718.6 733.6 1778.7 L 735.3 1887.9 L 729.7 1894 C 712.3 1912.7 667.5 1969.4 658.1 1984.4 C 655.2 1989.1 658.9 1991.7 672.5 1994.5 C 685.1 1997.1 744.4 1996 756 1993 C 762.2 1991.3 764.2 1988 771.5 1966.5 L 778.2 1946.5 L 785.7 1939.1 C 794 1930.8 797.4 1925.6 798.9 1919 C 799.8 1915 799.5 1913.8 796.4 1906 C 794.4 1901.3 790.9 1893.9 788.5 1889.4 L 784.2 1881.4 L 786.1 1864.9 C 787.1 1855.9 790.6 1824 793.9 1794 L 799.8 1739.5 L 810.5 1693 C 816.3 1667.4 826 1625.6 832 1600 L 842.8 1553.5 L 846 1501.5 C 847.7 1472.9 849.3 1446.1 849.6 1442 C 851.7 1405.8 851.8 1405.2 868.9 1307 C 878.2 1253.4 888.6 1193.3 892 1173.5 C 895.3 1153.7 898.5 1136.7 899 1135.8 C 899.6 1134.8 900 1132.5 900 1130.6 C 900 1128.8 902.5 1112.9 905.5 1095.4 C 908.5 1078 910.8 1063.5 910.6 1063.3 C 910.4 1063.1 907.6 1062.5 904.4 1062 C 887.2 1059.2 886.2 1058.6 890 1053.7 C 892 1051.2 892.1 1051.2 896.7 1052.7 C 909.1 1056.5 925.6 1055.2 938.6 1049.5 C 943.7 1047.2 944.5 1047.1 945.9 1048.4 C 947 1049.6 947.1 1050.4 946.3 1052.3 C 945 1055 933.3 1060.5 926.1 1061.6 C 923.8 1062 921.8 1062.6 921.5 1063 C 921.3 1063.4 924 1077.3 927.5 1093.9 C 931.1 1110.6 934 1125.5 934 1127.1 C 934 1128.7 934.7 1131.7 935.5 1133.7 C 936.3 1135.8 941 1156.8 946 1180.5 C 951 1204.2 964.1 1264.9 975 1315.5 L 994.8 1407.5 L 995.3 1425.8 L 995.8 1444 L 993.2 1444 L 990.5 1444.1 L 993.3 1446.1 L 996 1448.2 L 996 1499.4 L 996 1550.7 L 1013.2 1646.1 L 1030.4 1741.5 L 1030.5 1805.5 L 1030.5 1869.5 L 1023.1 1885.5 C 1011.6 1910.3 1010.7 1915 1016.1 1923.5 C 1021 1931.2 1025.6 1936.5 1031.6 1941.1 C 1035.1 1943.8 1039.4 1948.7 1043.3 1954.4 C 1051.3 1966.2 1073.6 1988.7 1080.5 1992.1 C 1085.4 1994.5 1085.9 1994.5 1114.5 1994.5 C 1142.7 1994.5 1143.6 1994.4 1148.5 1992.2 C 1151.3 1990.9 1154.5 1989.2 1155.8 1988.4 L 1158 1987 L 1154.9 1980.7 C 1150.8 1972.8 1145 1964 1139 1957 C 1136.4 1953.9 1129.3 1943.4 1123.3 1933.5 C 1117.3 1923.6 1107 1907 1100.5 1896.5 L 1088.7 1877.5 L 1091.4 1807.5 C 1092.8 1769 1095.6 1699.2 1097.6 1652.5 L 1101.2 1567.4 L 1095.5 1514 C 1087.9 1442.5 1088.4 1449.3 1090.5 1447 C 1092.3 1445.1 1092.2 1445 1090.2 1445 C 1089 1445 1088 1444.7 1088 1444.3 C 1088 1443.8 1086.4 1429.8 1084.5 1413.2 L 1081.1 1382.8 L 1082.5 1353.7 C 1086.6 1266.9 1088 1201.9 1088 1097 C 1088 1009.6 1087.5 989.6 1084.4 965 C 1082.6 950.3 1075.4 913.5 1063.5 858.9 C 1058.8 837.2 1054.7 817.9 1054.5 816 C 1053.8 810.8 1052 802.8 1050.9 800.5 C 1047.8 793.5 1047.9 792.1 1059.1 709.7 C 1065.1 665.6 1070.4 627.5 1071 625 C 1073.4 614.1 1099.8 416.4 1098.9 415.4 C 1098.4 414.8 1098.3 414 1098.7 413.7 C 1099.5 412.8 1106 412.9 1108.2 413.8 C 1109.1 414.2 1116.9 421.9 1125.6 431 C 1168.6 475.9 1237.8 547.5 1293.4 604.7 C 1303.9 615.5 1305.1 617.1 1303.9 618.6 C 1301.9 621.1 1305.2 623.1 1310.1 622.4 C 1313.5 621.8 1314.5 622.3 1323.7 629.2 C 1339.4 641.1 1363.6 658 1365 658 C 1365.6 658 1370.7 661.3 1376.3 665.4 C 1381.9 669.4 1390.5 675.4 1395.5 678.5 C 1400.5 681.7 1406.8 686.3 1409.6 688.7 C 1412.4 691 1415.3 693 1416 693 C 1416.7 693 1428.3 701.2 1441.9 711.3 C 1466.2 729.4 1501 754.8 1520.5 768.7 C 1533.7 778.1 1537.3 782.1 1540.3 790.1 C 1541.7 793.7 1544.1 799.3 1545.8 802.6 C 1547.4 805.8 1550.5 813.2 1552.6 818.9 L 1556.5 829.3 L 1566 837.9 C 1581.5 852 1594.4 861.9 1595.7 860.6 C 1596.8 859.5 1593.5 852.5 1589.1 846.7 C 1583.1 838.9 1574.1 816.4 1576.2 814.4 C 1577.2 813.5 1582.3 814.9 1599.3 820.9 L 1621 828.6 L 1626 834.6 C 1636.3 846.9 1640.4 852.6 1642.7 857.6 C 1644.9 862.5 1645 863.1 1643.6 866.3 C 1642.8 868.2 1640.3 871.1 1637.8 872.9 C 1630.5 878.1 1629 879.7 1629 882.4 C 1629 886.2 1632.7 886.7 1641.3 884.1 C 1645.3 882.9 1649.6 881.8 1650.9 881.6 C 1652.2 881.4 1654.2 880.2 1655.2 878.9 C 1656.8 876.8 1657 875.2 1656.7 866.5 C 1656.2 855.3 1652.4 840.7 1645 822 C 1636.4 800.2 1638.2 802.2 1615.5 787.8 C 1604.5 780.8 1593.9 774.3 1592 773.4 C 1590.1 772.5 1587.8 771.3 1587 770.9 C 1586.2 770.4 1583.4 768.9 1580.8 767.5 C 1577.9 766 1575.2 763.5 1573.8 761.1 C 1568.8 752.7 1453 635.3 1419.3 604.4 C 1407.7 593.7 1397.8 585 1397.3 585 C 1395.5 585 1368.2 556.4 1367.3 553.5 C 1366.7 551.7 1365.7 550.6 1364.8 550.8 C 1363 551.1 1258 444.8 1246.9 431.5 C 1242.8 426.6 1233.5 416.9 1226.2 410.1 C 1218.9 403.3 1210.1 394.6 1206.7 390.7 C 1203.3 386.8 1196.6 379.5 1191.9 374.6 C 1187.2 369.6 1181.3 362.6 1178.8 359 C 1176.3 355.4 1172.3 350.7 1169.9 348.4 C 1164.8 343.8 1150.8 335 1136.4 327.3 L 1126.3 322 L 1109.9 321 C 1041 316.8 1015.2 314.3 997.8 309.9 C 993.6 308.9 989.3 308 988.2 308 C 984.4 308 982.9 304.3 977.2 281.1 C 974.1 268.4 971.4 258 971 258 C 970.7 258.1 966.9 261.5 962.5 265.8 M 774 872.5 L 774 875 L 917.5 875 L 1061 875 L 1061 872.5 L 1061 870 L 917.5 870 L 774 870 L 774 872.5"
    stroke="none"
    fill="#010101"
    fill-rule="evenodd"
  />
  <path
    d="M 862.4 59.5 C 843.6 75.3 840.3 80.4 832 106.7 C 828.7 117.2 828.6 120 831.7 120 C 834.9 120 835.6 118.7 838.4 109.2 C 839.8 104.1 842.4 96.4 844.1 92.1 C 846.8 85.2 848.2 83.3 855.7 75.9 L 864.2 67.5 L 863.6 72 C 863.3 74.5 862.3 80.2 861.4 84.8 C 860.5 89.4 860 93.3 860.2 93.5 C 860.5 93.8 867 90.2 874.8 85.5 C 882.6 80.8 889.3 77 889.7 77 C 890.1 77 888 79.5 885 82.5 C 882 85.5 879.9 88.3 880.3 88.7 C 881.2 89.6 925.8 81.3 933.4 78.8 C 940.4 76.5 951.8 70.9 957.7 66.9 C 960 65.3 962.3 64 962.8 64 C 964.5 64 979.1 80 980.5 83.3 C 981.2 85.1 982.8 94.6 984 104.5 C 985.2 114.4 986.5 122.8 986.9 123.2 C 987.2 123.6 988.5 123.7 989.8 123.4 C 992.5 122.6 992.7 119.2 990.5 102.3 C 988 82.9 987.2 80 982.7 74 C 977.3 66.7 966 55 964.4 55 C 963.6 55 959.1 57.6 954.2 60.8 C 940.3 70 923.1 76 906.9 77.5 L 899.5 78.2 L 905.5 71.9 C 918.8 57.8 918.5 58.3 917.2 55.5 C 916.6 54.1 915.6 53 915 53 C 914.4 53 905.2 58.4 894.4 65 C 867 81.9 868.5 81.4 870.6 72.3 C 871.8 66.9 874.1 50.8 873.7 50.4 C 873.6 50.3 868.5 54.4 862.4 59.5 M 1303.9 618.6 C 1302.8 620 1302.8 620.4 1304.5 621.6 C 1306.6 623.2 1307.6 623.2 1310.5 622 L 1312.5 621.2 L 1310.5 620.5 C 1309.4 620 1307.8 619.1 1306.9 618.3 C 1305.5 617.1 1305.1 617.2 1303.9 618.6 M 530.6 620.9 C 527.9 623.7 527.9 623.8 529.9 624.5 C 531.9 625.1 536 623.6 536 622.2 C 536 621.8 535.3 620.7 534.6 619.8 C 533.4 618.2 533.1 618.3 530.6 620.9"
    stroke="none"
    fill="#040404"
    fill-rule="evenodd"
  />
  <path
    d="M 751 1100.8 L 751 1103.7 L 766.8 1104.3 C 775.4 1104.7 789.8 1105 798.7 1105 C 810.7 1105 824.6 1106 852.2 1109 C 872.7 1111.2 891.4 1113.2 893.8 1113.5 C 897.9 1114.1 898 1114.1 898 1111.2 C 898 1107.5 900.5 1108 859 1103.5 C 820 1099.3 817.5 1099.2 780.3 1098.5 L 751 1098 L 751 1100.8 M 972.5 1103.1 C 954.4 1105.7 938.7 1107.9 937.7 1108 C 935.3 1108 934.4 1110.8 936.3 1112.7 C 937.6 1114.1 940.4 1113.8 963.6 1110.6 C 1008.6 1104.3 1012.7 1104 1050.2 1104 L 1085 1104 L 1085 1101 L 1085 1098 L 1045.3 1098.1 L 1005.5 1098.2 L 972.5 1103.1"
    stroke="none"
    fill="#242424"
    fill-rule="evenodd"
  />
  <path
    d="M 753 1127.7 C 753 1152.5 759.5 1285.5 764 1353 L 766 1382.5 L 761 1412 L 756 1441.5 L 758.8 1443.8 C 764.9 1449.1 775.6 1455.4 783.3 1458.2 C 790.2 1460.8 793.4 1461.4 803.1 1461.8 C 817.2 1462.3 826.9 1460.2 840.5 1453.6 C 855.1 1446.6 853.9 1448.8 855.5 1425 C 856.7 1406.3 858.2 1396.3 873.5 1308.5 C 882.6 1255.7 893.1 1195.2 896.8 1174 L 903.5 1135.5 L 899 1135.2 C 887.5 1134.5 761.9 1125 757.8 1124.5 L 753 1123.9 L 753 1127.7"
    stroke="none"
    fill="#b3b3b3"
    id="MACRO_BP_UPPER_LEG"
    fill-rule="evenodd"
  />
  <path
    fill="#cbcbcb"
    id="MACRO_BP_UPPER_ARM"
    fill-rule="evenodd"
    stroke="none"
    d="M 1109.6 361.8 C 1108.1 383.6 1106.6 403.9 1106.3 406.7 C 1105.8 411.4 1106 412.1 1107.8 412.7 C 1108.9 413.2 1122.5 426.8 1138.1 443 C 1174.1 480.6 1210.5 518.3 1263.4 572.8 L 1305.4 616 L 1308.1 613.3 C 1310.1 611.1 1350.9 565.9 1361.3 554.3 L 1363.3 552.1 L 1307.4 495.3 C 1276.6 464.1 1248.7 435 1245.3 430.8 C 1241.9 426.5 1233.5 417.9 1226.7 411.6 C 1219.9 405.3 1211 396.5 1206.9 391.9 C 1202.8 387.4 1195.6 379.6 1190.9 374.6 C 1186.2 369.6 1180.8 363.3 1179 360.5 C 1177.1 357.8 1174 353.8 1172.1 351.6 C 1167.5 346.5 1150.7 335.6 1135.8 328 C 1125.5 322.7 1123.5 322 1118.3 322 L 1112.4 322 L 1109.6 361.8 "
  ></path>
  <path
    fill="#5c5c5c"
    id="MACRO_BP_LOWER_LEG"
    fill-rule="evenodd"
    stroke="none"
    d="M 996 1499.7 L 996 1550.7 L 1013.2 1646.1 L 1030.4 1741.5 L 1030.5 1805.5 L 1030.5 1869.5 L 1023.1 1885.5 C 1011.6 1910.3 1010.7 1915 1016.1 1923.5 C 1021 1931.2 1025.6 1936.5 1031.6 1941.1 C 1035.1 1943.8 1039.4 1948.7 1043.3 1954.4 C 1051.3 1966.2 1073.6 1988.7 1080.5 1992.1 C 1085.4 1994.5 1085.9 1994.5 1114.5 1994.5 C 1142.7 1994.5 1143.6 1994.4 1148.5 1992.2 C 1151.3 1990.9 1154.5 1989.2 1155.8 1988.4 L 1158 1987 L 1154.9 1980.7 C 1150.8 1972.8 1145 1964 1139 1957 C 1136.4 1953.9 1129.3 1943.4 1123.3 1933.5 C 1117.3 1923.6 1107 1907 1100.5 1896.5 L 1088.7 1877.5 L 1091.4 1807.5 C 1092.8 1769 1095.6 1699.2 1097.6 1652.5 L 1101.2 1567.4 L 1095.5 1514 C 1092.4 1484.6 1089.6 1458 1089.3 1454.9 L 1088.7 1449.3 L 1083.1 1452.7 C 1080 1454.5 1073.9 1457.3 1069.5 1458.7 C 1062.4 1461.1 1060 1461.4 1047.5 1461.4 C 1029.3 1461.4 1021.1 1459.5 997.3 1449.3 C 996.3 1448.9 996 1459.4 996 1499.7"
  ></path>
</svg>
