<svg
  xmlns="http://www.w3.org/2000/svg"
  width="1840"
  height="2006"
  viewBox="0 0 1840 2006"
  version="1.1"
>
  <path
    d="M 699.5 332.6 C 684.7 340.1 668.2 351 662.6 357 C 660.1 359.6 656.5 364.3 654.6 367.3 C 652.6 370.3 650 373.6 648.8 374.7 C 646.5 376.5 640.9 382.5 628.1 397 C 624.6 400.9 616 409.4 609 415.8 C 602 422.3 592.8 431.8 588.5 437 C 581.6 445.2 552.1 475.9 492.6 536.7 L 475.7 554 L 477.7 556.3 C 481.7 560.9 507.7 589.7 513.5 596 C 516.8 599.6 522.4 605.8 525.9 609.8 C 529.4 613.7 532.6 617 533 617 C 533.9 617 634.2 513.6 697.9 447 C 729 414.5 726.6 416.7 730.8 417.4 L 734.3 417.9 L 733.7 412.7 C 733.4 409.8 731.9 389.4 730.3 367.3 L 727.6 327 L 719 327 C 710.7 327.1 710.3 327.2 699.5 332.6"
    stroke="none"
    fill="#606060"
    id="MACRO_BP_UPPER_ARM"
    fill-rule="evenodd"
  />
  <path
    d="M 962.5 263.3 C 943.1 281.9 926 288.5 903.5 286.4 C 892.2 285.3 880.4 279.1 867.8 267.6 L 862.2 262.5 L 858.7 277.2 C 856.7 285.4 854.6 294.5 854 297.5 C 852.1 306.2 852 306.5 848.8 308.5 L 845.8 310.3 L 849.2 312.8 C 853.8 316.3 861.2 319.1 873.2 321.7 C 882.5 323.7 886.3 323.9 911 324 C 935.2 324 940 323.7 951 321.7 C 967 318.8 978.1 315.4 984.9 311.3 C 990.7 307.8 991.5 306.3 987.9 305.5 C 984 304.6 982.4 300.5 976.9 277.8 C 974 265.5 971.4 255.5 971 255.5 C 970.7 255.6 966.9 259 962.5 263.3"
    stroke="none"
    fill="#a7a7a7"
    id="MACRO_BP_NECK"
    fill-rule="evenodd"
  />
  <path
    d="M 467 562.2 C 462.3 566.7 442.8 584.9 423.5 602.7 C 404.3 620.5 373.6 650.2 355.3 668.8 C 284.1 741.1 266.2 759.7 262.1 765.3 C 259.4 769 256.6 771.5 254.2 772.5 C 252.2 773.4 249.5 775.1 248.3 776.2 C 247 777.4 245.7 778.1 245.4 777.8 C 244.9 777.2 236.7 782.1 209.1 799.6 C 200 805.3 199.6 805.7 196.5 812.5 C 191.1 824.4 183 845.6 182.6 849.1 C 182.3 851 181.4 854.5 180.5 857 C 178.3 862.9 177.3 878.9 178.9 881.9 C 180.4 884.6 186.2 887.2 195.9 889.4 C 203.7 891.2 206 890.6 206 887 C 206 885.1 199.8 879.2 194.7 876.2 C 186.5 871.3 190.2 860.6 206.2 842.7 C 208.6 840 211.1 836.9 211.8 835.7 C 212.8 834 218.7 831.6 235.8 825.8 C 249.9 821 258.8 818.4 259.4 819 C 260.9 820.5 251.2 845.9 247.3 850.2 C 243.2 854.9 238.6 864 239.7 865.1 C 240.9 866.3 256.6 854.2 268.5 842.8 C 278.3 833.5 278.8 832.8 282 824.3 C 283.8 819.5 287.7 810.3 290.6 803.9 C 293.6 797.4 296 791.5 296 790.7 C 296 789.8 297.2 787.8 298.6 786.1 C 302.2 781.8 452.6 672.8 460.6 668.7 C 462.4 667.8 465.2 665.9 466.9 664.4 C 468.7 662.9 470.3 662 470.6 662.3 C 471.2 662.9 485.9 652.7 510.2 634.8 C 518.3 628.9 525.3 624 525.8 624 C 526.2 624 528 622.5 529.7 620.8 L 532.9 617.5 L 509.3 591.5 C 496.3 577.2 483.4 562.9 480.6 559.8 L 475.5 554.2 L 467 562.2"
    stroke="none"
    fill="#565656"
    id="MACRO_BP_FOREARM"
    fill-rule="evenodd"
  />
  <path
    d="M 1334.9 583.6 C 1319.3 601 1306.5 615.6 1306.5 616.2 C 1306.5 616.8 1307.4 617.8 1308.5 618.4 C 1309.6 619 1317.7 624.7 1326.5 631.1 C 1353.3 650.4 1362.8 657 1364 657 C 1364.7 657 1370.4 660.8 1376.8 665.4 C 1383.3 670 1392.3 676.2 1397 679.2 C 1401.7 682.2 1407.1 686 1409 687.7 C 1410.9 689.3 1413.8 691.3 1415.5 692.1 C 1417.2 693 1434 705.1 1453 719.1 C 1472 733.1 1497.8 752.1 1510.5 761.2 C 1523.2 770.3 1534.5 778.9 1535.7 780.1 C 1536.9 781.4 1538.9 785.4 1540.3 789 C 1541.6 792.6 1544.1 798.2 1545.7 801.5 C 1547.3 804.8 1550.4 812.1 1552.4 817.7 C 1556.1 827.6 1556.5 828.2 1564.9 836.2 C 1577.5 848.4 1594.4 861.7 1595.4 860.2 C 1596.2 858.8 1591.5 849.6 1587.8 845.4 C 1585.5 842.8 1582.8 837.4 1579.7 828.9 C 1574.7 815.6 1574.4 814.5 1576 813.5 C 1577.7 812.4 1621.3 828.1 1623 830.4 C 1623.8 831.5 1626.5 834.8 1629 837.6 C 1635.8 845.3 1641.1 853 1643.3 858.2 C 1645.1 862.4 1645.2 863.2 1643.9 866.3 C 1643 868.6 1640.2 871.5 1636 874.7 C 1628.6 880.2 1627.3 883.3 1631.4 885.1 C 1633.6 886.1 1635.3 885.9 1642.1 883.7 C 1646.5 882.2 1650.5 881.2 1651 881.5 C 1651.4 881.8 1653 880.6 1654.4 878.9 C 1656.7 876.2 1657 874.9 1657 868.6 C 1657 857 1648.8 829.6 1639 808.5 L 1635.3 800.5 L 1614 787.1 C 1602.3 779.8 1591.7 773.5 1590.6 773.2 C 1589.4 772.9 1587.4 771.8 1586 770.8 C 1584.6 769.7 1582.1 768.2 1580.3 767.5 C 1578.6 766.8 1575.3 763.7 1572.9 760.3 C 1568.5 754.4 1541.2 726.2 1475.7 660 C 1439.3 623.2 1400 586 1397.5 586 C 1396.8 586 1388.8 578.4 1379.8 569.1 L 1363.3 552.2 L 1334.9 583.6"
    stroke="none"
    id="MACRO_BP_FOREARM"
    fill="#727272"
    fill-rule="evenodd"
  />
  <path
    d="M 750.6 1448.7 C 750.3 1449.7 748.5 1459.7 746.6 1471 C 744.6 1482.3 740.2 1507.3 736.7 1526.5 L 730.3 1561.5 L 731.1 1616 C 731.5 1646 732.6 1720.5 733.6 1781.6 L 735.3 1892.7 L 724.4 1905.1 C 705.7 1926.3 684.2 1953.3 666.1 1978.2 C 655.9 1992.3 655.5 1993.9 661.6 1996.5 C 669.6 1999.8 679.7 2001 700.3 2001 C 722.1 2001 750.2 1999.5 756 1998 C 762.3 1996.3 764.2 1993 771.5 1971.4 L 778.2 1951.3 L 785.7 1943.9 C 794 1935.6 797.4 1930.6 798.9 1924.2 C 799.7 1920.3 799.5 1918.9 796.3 1911.2 C 794.4 1906.4 790.9 1898.9 788.5 1894.4 L 784.1 1886.3 L 786.6 1864.4 C 788 1852.4 791.5 1820.5 794.4 1793.5 L 799.8 1744.5 L 810.5 1698 C 816.3 1672.4 826 1630.6 831.9 1605 L 842.8 1558.5 L 845.9 1506 C 847.6 1477.1 849 1452.9 849 1452.2 C 849 1451.3 848.1 1451.5 846.1 1452.9 C 840.6 1456.9 826.5 1463 818.1 1465.1 C 805.6 1468.2 789.7 1467.5 778.3 1463.2 C 771 1460.5 761.4 1455 753.8 1449 C 751.3 1447.1 751.1 1447.1 750.6 1448.7"
    stroke="none"
    fill="#b8b8b8"
    id="MACRO_BP_LOWER_LEG"
    fill-rule="evenodd"
  />
  <path d="" stroke="none" fill="#c9c9c9" fill-rule="evenodd" />
  <path
    d="M 1006.6 1126.3 C 968.2 1129.8 936.6 1132.8 936.4 1132.9 C 936.1 1133.2 949.8 1197.4 976 1318.2 C 993.4 1398.2 995 1406.4 995 1415.3 C 995 1420.7 995.3 1429.9 995.6 1435.7 L 996.3 1446.2 L 1004.9 1449.8 C 1020.8 1456.6 1030.6 1458.6 1047 1458.7 C 1060.2 1458.7 1062.2 1458.5 1069.5 1456 C 1073.9 1454.4 1079.9 1452 1082.8 1450.3 C 1087.4 1447.6 1088 1446.9 1088 1444 C 1088 1442.3 1086.4 1427.1 1084.5 1410.6 L 1081.1 1380.4 L 1082.5 1351.4 C 1085.8 1283.5 1088 1203.5 1088 1152.9 L 1088 1119.8 L 1082.3 1119.8 C 1079.1 1119.9 1045 1122.9 1006.6 1126.3"
    stroke="none"
    fill="#a0a0a0"
    id="MACRO_BP_UPPER_LEG"
    fill-rule="evenodd"
  />

  <!---
  M 773 872.5 L 773 876 L 917.5 876 L 1062 876 L 1062 872.5 L 1062 869 L 917.5 869 L 773 869 L 773 872.5 M 750 1100.8 L 750 1104.7 L 770.3 1105.3 C 781.4 1105.7 796.2 1106 803.1 1106 C 811.2 1106 830.5 1107.6 857.1 1110.5 C 879.9 1113 898.6 1115 898.8 1115 C 898.9 1115 899 1113.3 899 1111.1 C 899 1106.5 903.5 1107.4 857.9 1102.5 C 822.4 1098.7 815.4 1098.3 776.3 1097.5 L 750 1097 L 750 1100.8 M 970.8 1102.4 C 951.7 1105.2 935.6 1108 934.9 1108.6 C 933.4 1110.2 934.6 1113.7 936.9 1114.5 C 937.9 1114.8 944.9 1114.1 952.6 1113 C 1002.5 1105.6 1010.1 1105 1049.2 1105 L 1086 1105 L 1086 1101 L 1086 1097 L 1045.8 1097.1 L 1005.5 1097.2 L 970.8 1102.4-->
  <path
    d="M 780.2 815.3 C 779.6 818.1 776.3 832.6 773 847.5 C 751.8 940.8 747.3 969.4 746.3 1019 C 745.8 1045.1 747.4 1122.7 748.4 1123.8 C 749.2 1124.6 897.4 1135.8 898.1 1135.1 C 898.5 1134.8 901.3 1119.4 904.5 1101 C 907.6 1082.6 910.4 1066.5 910.7 1065.3 C 911.1 1063.4 910.7 1063.1 906.3 1062.5 C 897.5 1061.3 888 1058.9 888 1057.9 C 888 1057.3 888.7 1055.5 889.6 1053.9 C 890.7 1051.7 891.6 1051.1 892.9 1051.5 C 898.2 1053.1 909.2 1055 914.1 1055 C 920.3 1055 931.9 1052.3 939.4 1049 C 943.7 1047.2 944.5 1047.1 945.8 1048.4 C 946.7 1049.3 947 1050.7 946.7 1052.2 C 946 1054.8 937.5 1058.8 927.4 1061.5 C 924.3 1062.3 921.6 1063.1 921.4 1063.2 C 921.1 1063.5 935.9 1133.2 936.3 1133.7 C 936.5 1133.8 970.7 1130.9 1012.4 1127.2 L 1088.2 1120.5 L 1087.7 1054.5 C 1087.1 973.2 1086.8 969.8 1074.4 910.5 C 1067.7 878.6 1055.2 820.8 1054.4 817.9 C 1054 816.4 1053.2 816.6 1048.5 819.1 C 1034.2 826.9 1008.8 832.2 973 835 C 955.7 836.3 907.1 836.3 888.2 835 C 838.7 831.5 798.7 822.6 785.3 812.1 C 783.9 810.9 782.4 810 782 810 C 781.6 810 780.8 812.4 780.2 815.3 L 781.6 810 L 780.8 812.4 L 780.2 815.3 
    M 773 872.5 L 773 876 L 917.5 876 L 1062 876 L 1062 872.5 L 1062 869 L 917.5 869 L 773 869 L 773 872.5 M 750 1100.8 L 750 1104.7 L 770.3 1105.3 C 781.4 1105.7 796.2 1106 803.1 1106 C 811.2 1106 830.5 1107.6 857.1 1110.5 C 879.9 1113 898.6 1115 898.8 1115 C 898.9 1115 899 1113.3 899 1111.1 C 899 1106.5 903.5 1107.4 857.9 1102.5 C 822.4 1098.7 815.4 1098.3 776.3 1097.5 L 750 1097 L 750 1100.8 M 970.8 1102.4 C 951.7 1105.2 935.6 1108 934.9 1108.6 C 933.4 1110.2 934.6 1113.7 936.9 1114.5 C 937.9 1114.8 944.9 1114.1 952.6 1113 C 1002.5 1105.6 1010.1 1105 1049.2 1105 L 1086 1105 L 1086 1101 L 1086 1097 L 1045.8 1097.1 L 1005.5 1097.2 L 970.8 1102.4
    "
    stroke="none"
    fill="#d7d7d7"
    id="MACRO_BP_HIP"
    fill-rule="evenodd" 
  />
  <path
    d="M 763 621.9 C 763 622.6 768.2 661 774.5 707.3 L 785.9 791.6 L 783.8 800.4 L 781.8 809.3 L 784.1 811.2 C 788.3 814.6 802.2 820.8 811.5 823.3 C 842 831.8 881.9 836 931.2 836 C 986.9 836 1025.7 830.6 1047.2 819.9 C 1050.3 818.3 1053.1 816.7 1053.3 816.3 C 1053.6 815.8 1052.5 809.7 1050.9 802.7 L 1048.1 790 L 1059 709.5 C 1065.1 665.3 1070 628.9 1070 628.7 C 1070 628.5 1067.4 630.9 1064.3 634 C 1057.3 640.7 1049.7 644.8 1035.9 649.4 C 974.6 669.9 851.3 666 791.8 641.8 C 780.8 637.3 770 630.2 766.1 624.8 C 764.4 622.5 763 621.2 763 621.9 M 918 798 L 918 803 L 922 803 L 926 803 L 926 798 L 926 793 L 922 793 L 918 793 L 918 798"
    stroke="none"
    fill="#ececec"
    id="MACRO_BP_ABDOMEN"
    fill-rule="evenodd"
  />
  <path
    d="M 989 311.1 C 982.4 316.7 968.1 321.5 949.5 324.7 C 935.5 327 889 327.3 877 325.1 C 865.7 323.1 854.8 319.4 850.2 316 L 846 313 L 839.8 314.5 C 822.8 318.4 786.9 322.8 753.5 325 C 726.7 326.7 728 326.4 728 330.8 C 728 339.6 734.1 417.7 734.9 420 C 735.4 421.4 741.9 466.8 749.2 521 L 762.5 619.5 L 765.6 624 C 777.7 641.7 822.9 655.4 888 661.1 C 905.8 662.7 955 662.7 972 661.1 C 1011.6 657.5 1041.3 650.1 1056.6 640.1 C 1064.1 635.3 1069.7 629.1 1070.5 624.8 C 1070.8 623 1077.3 575.6 1085.1 519.5 C 1095.7 442.4 1098.9 417.1 1098 415.7 C 1097.1 414.3 1097.4 413.8 1099.5 413 C 1101 412.4 1102.9 412 1103.9 412 C 1106.2 412 1106.1 412.8 1109.6 361.8 C 1111.1 340.4 1112 322.7 1111.6 322.3 C 1111.3 321.9 1104.8 321.3 1097.2 320.8 C 1043.1 317.7 1008.7 314 993 309.5 C 992.2 309.3 990.4 310 989 311.1 M 1016.6 559.9 C 1014.6 563.7 1016.3 566.3 1020.5 565.8 C 1023.1 565.5 1023.5 565 1023.8 562.2 C 1024.1 559.5 1023.7 558.8 1021.5 558 C 1018 556.7 1018.3 556.6 1016.6 559.9 M 809.6 561.9 C 807.6 565.7 809.3 568.3 813.5 567.8 C 816.1 567.5 816.5 567 816.8 564.2 C 817.1 561.5 816.7 560.8 814.5 560 C 811 558.7 811.3 558.6 809.6 561.9"
    stroke="none"
    fill="#ffffff"
    id="MACRO_BP_CHEST"
    fill-rule="evenodd"
  />
  <path
    stroke="none"
    fill="#2f2f2f"
    fill-rule="evenodd"
    d="M 895.4 5.5 C 883.7 7.3 870.7 10.6 865.6 13.2 C 847.8 22.3 831.8 38.5 822.6 56.7 C 820.1 61.7 820 62.6 820 79 C 820 97.4 821.1 110 823.9 124.9 L 825.8 134.4 L 823.1 137.1 C 821 139.1 819.7 139.6 817.2 139.2 C 811.1 138.3 809.3 139.5 808.1 145 C 805.4 157.5 807 165.3 814.8 177 C 821.1 186.4 823.6 187.8 823.3 181.8 C 823.1 178 823.1 178 827 178 L 831 178 L 831 182.4 C 831 189.2 833.8 209.4 836.2 219.5 C 838.1 227.7 838.8 229.2 844.3 235.8 C 857.4 251.9 878.3 270.4 890.2 276.4 C 908.4 285.6 927 283.4 945.2 269.7 C 957.1 260.7 969.9 248.9 978.7 238.8 L 986.9 229.4 L 989 218.4 C 990.3 211.9 991.4 201.5 991.7 192.8 L 992.3 178 L 996.1 178 C 999.9 178 999.9 178 1000.2 182.5 L 1000.5 187 L 1004.7 181.8 C 1012.4 172.2 1015.3 165.6 1015.8 156.5 C 1016 151.6 1015.6 146.8 1014.8 144 L 1013.4 139.5 L 1008.4 139.5 C 1004.9 139.5 1003.1 139 1002.2 137.8 C 1001.5 136.8 1000.2 136 999.4 136 C 998.2 136 998 135.3 998.4 133.3 C 1000.9 120.4 1005.3 71.9 1004.7 64 C 1003.7 51.5 998.4 41.5 986.8 29.9 C 974.3 17.4 959.5 9.2 943.6 5.9 C 932.7 3.7 909.5 3.5 895.4 5.5 M 863 58.4 C 846.3 73 842 78.3 837.5 89.5 C 835.3 95 832.4 103.5 830.9 108.5 L 828.1 117.5 L 830.2 119.3 C 833.6 122.2 836.1 119.7 838.1 111.2 C 839.1 107.3 841.7 99.5 843.9 93.8 C 847.6 84.3 848.5 82.9 855.5 76 L 863 68.5 L 863 72 C 862.9 73.9 862.1 79.3 861.1 84 C 860.2 88.7 859.5 93.1 859.7 93.7 C 860 94.5 863 93.1 867.8 90.1 C 887.7 77.8 891.7 76.3 883.1 84.4 C 879.4 88 879 90.3 882.3 89.5 C 883.5 89.3 895.5 87 909 84.5 C 935.3 79.5 942 77.2 956.8 67.9 L 963.2 63.8 L 966.7 67.2 C 968.6 69 972.5 73.4 975.5 77 L 980.8 83.5 L 983.4 103 C 984.8 113.7 986 122.8 986 123.3 C 986 123.7 987.6 124 989.6 124 L 993.2 124 L 992.6 119.3 C 992.3 116.6 991.8 111.1 991.4 107 C 991.1 102.9 990 94.9 989 89.2 C 987.5 80.7 986.6 78.3 983.8 74.7 C 977.9 67.1 971 59.5 967.5 56.7 L 964 53.9 L 955.6 59.4 C 941.9 68.6 925.4 74.9 911.5 76.5 C 908.2 76.8 904.1 77.4 902.5 77.7 C 899.7 78.2 900 77.7 906.7 70.9 C 910.6 66.8 915 62.1 916.4 60.3 L 919 57.2 L 916.8 54.6 L 914.5 52.1 L 892.6 65.6 C 880.6 73 870.5 78.9 870.3 78.6 C 870 78.4 870.5 74.8 871.4 70.6 C 873.5 60.6 874.5 50 873.4 50.1 C 872.9 50.1 868.2 53.8 863 58.4"
    id="MACRO_BP_FACE"
  />
  <!-- <path
    d="M 871.5 1.1 C 856 7.2 845.6 13.9 834 25.6 C 820.8 39 814 50.8 811.9 64 C 810.4 73.5 813.7 118 816.6 128.1 C 817.1 129.4 816.5 129.8 812.8 129.8 C 810.3 129.8 807.2 130.6 805.3 131.7 C 802.7 133.3 802 134.7 800.6 140.7 C 798.6 149.3 798.6 155.4 800.5 163.6 C 803.2 175.1 810.6 186.3 818.8 191.7 L 823.6 194.8 L 826.3 209.7 C 830.1 231.3 831.9 235.1 844.4 248.3 L 854.9 259.4 L 849.7 281.4 L 844.5 303.3 L 836.5 305.6 C 823.5 309.3 758.7 316.4 720.5 318.4 C 712.2 318.8 705.8 319.6 702.9 320.8 C 695.9 323.4 661 343.9 661 345.4 C 661 346.1 659.6 347.6 658 348.8 C 656.3 349.9 649.5 357.3 642.8 365.1 C 627.5 382.8 598.2 413.4 594.1 415.9 C 592.3 416.9 590.6 418.6 590.2 419.6 C 588.6 423.1 563.9 448.6 491.5 522.1 C 459.1 555 430.8 583 428.6 584.5 C 424.1 587.4 375.3 632.5 369.5 639 C 367.3 641.6 344.8 664.8 319.5 690.5 C 294.2 716.3 268.4 742.9 262.3 749.8 C 253.6 759.4 249.7 763 245.3 765.3 C 242.1 766.9 237.9 769.5 235.9 771 C 233.9 772.5 231.7 773.8 231 773.8 C 230.3 773.8 228.1 775.1 226 776.8 C 223.9 778.4 221.7 779.8 221 779.8 C 220.3 779.8 213.6 783.6 206 788.5 L 192.3 797.1 L 186.5 810.1 C 179.9 825.3 170 854.3 169.5 860.1 C 169.2 862.5 168.8 867 168.4 870.5 C 167.5 879 169.2 884.8 174.1 889.6 C 177.3 892.8 179.6 894 186.3 895.9 C 190.8 897 198.4 898.3 203.1 898.5 L 211.7 899 L 214.9 889.6 C 217 883.5 217.6 880.1 216.9 879.9 C 216.3 879.6 213.4 877.5 210.4 875.1 C 207.4 872.8 204.7 870.8 204.2 870.8 C 203.7 870.8 202.4 869.8 201.2 868.5 L 199 866.1 L 208.4 853.6 C 215.7 844 218.6 840.9 221.2 840 C 223 839.5 228.9 837.4 234.2 835.4 C 239.6 833.4 244.2 832.3 244.5 832.8 C 245.3 834.1 242.5 839.6 238 845.3 C 233.2 851.3 231 857.3 231 864.4 C 231 869 231.4 869.9 234.1 872.1 C 235.8 873.5 237.9 874.8 238.9 874.8 C 241.4 874.8 258.4 863.5 267.7 855.5 C 280.9 844.4 287 836.8 291.5 825.8 C 299.9 805.3 307 790.3 309.7 787.8 C 315.1 782.5 463.1 676.1 464.3 676.5 C 464.8 676.6 472.4 671.6 481.3 665.4 C 490.2 659.1 505.5 648.5 515.3 642 L 533 630 L 575.3 586.6 C 598.6 562.8 621.4 539 626.1 533.8 C 639.6 518.5 649.2 508.6 689.7 467.4 C 723.6 432.9 728 428.8 728.4 430.9 C 729 433.4 743.3 537 765.5 698.8 L 778 790.1 L 772 815.3 C 753.9 891 744.4 939 740.3 974.8 C 735.4 1017.1 740.4 1190 751.1 1351.3 L 753.1 1381.3 L 748.5 1407.8 C 741.5 1448.5 735.5 1482.2 728.8 1518.3 L 722.8 1551.3 L 724 1650.3 C 724.7 1704.8 725.8 1779.3 726.4 1816 L 727.5 1883 L 716.1 1896 C 693.4 1922.5 655.7 1970.5 651.5 1978.8 C 648.6 1984.3 648.9 1990 652.4 1993.7 C 658.9 2000.3 671 2002.3 707.5 2002.2 C 752.8 2002 765.2 1999.8 770.8 1990.5 C 771.9 1988.8 775.6 1978.8 779 1968.3 L 785.3 1949.3 L 792 1942.8 C 800.4 1934.5 805.6 1926.8 807.1 1920.3 C 808.6 1913.5 806.9 1907.3 799.2 1891.8 L 793.6 1880.5 L 794.9 1864.8 C 796.5 1845 801.2 1796.3 804.6 1765.8 C 807.4 1740 808.3 1735.8 837.5 1609.8 L 850.8 1552.3 L 855 1480.3 L 859.2 1408.3 L 878 1299.8 C 888.4 1240 901 1167 906.1 1137.3 C 911.2 1107.5 915.6 1083 915.9 1082.5 C 916.3 1082.2 932.6 1156.2 952.3 1247 L 988 1412.3 L 988.3 1483.3 L 988.5 1554.3 L 1005.8 1649.7 L 1023 1745 L 1022.8 1806.2 L 1022.5 1867.3 L 1015.8 1881.3 C 1004.7 1904.8 1003.1 1913.5 1007.6 1924.3 C 1009.9 1929.8 1018.7 1940.5 1025.4 1945.8 C 1028.8 1948.3 1033.9 1954.2 1037.8 1959.7 C 1041.6 1965 1049.8 1974.3 1056.7 1981 C 1077.7 2001.7 1076.5 2001.2 1111 2001.3 C 1135.6 2001.3 1138.3 2001 1148 1998.8 C 1157.2 1996.7 1159 1996 1162.3 1992.7 C 1166 1989 1166.1 1988.7 1165.4 1984 C 1164.5 1977.7 1162.2 1973.5 1153.1 1960.8 C 1136.6 1938.3 1112.9 1901 1100.1 1877.7 L 1095.9 1870 L 1100 1777.7 C 1102.2 1726.8 1105.1 1658.5 1106.5 1625.7 L 1109 1566 L 1104 1518.2 C 1101.2 1491.8 1096.7 1450 1093.9 1425.3 L 1088.9 1380.3 L 1089.9 1358.3 C 1095.1 1250 1098.2 1083.8 1096.1 1028.8 C 1094.1 977.8 1092.8 964.8 1086.6 931.8 C 1077.1 880.9 1061.6 808.8 1060 807.8 C 1059.5 807.5 1058.8 804.8 1058.5 801.8 C 1058.1 798.8 1057.4 794.5 1056.9 792.5 C 1056.1 789.6 1058.3 771.8 1067 708 C 1084.7 578.6 1106 424.4 1106.3 423.4 C 1106.4 422.9 1115.7 432.3 1127 443.9 C 1156.7 474.9 1250.6 572.1 1278.3 600.5 C 1301.6 624.5 1302.3 625.3 1319.8 637 C 1329.5 643.5 1344.8 654.1 1353.7 660.4 C 1362.6 666.6 1370.2 671.6 1370.7 671.5 C 1372 671.1 1519.8 777.5 1525.3 782.8 C 1528 785.4 1539.2 809 1545.1 824.6 C 1547.1 830 1549 832.6 1557.5 841.1 C 1570.5 854.4 1591.5 869.8 1596.4 869.8 C 1597.2 869.8 1599.4 868.5 1601.1 867 C 1607.4 861.3 1605.6 850.5 1596.3 839.5 C 1592.4 834.9 1589.6 829.1 1590.5 827.8 C 1590.8 827.3 1594.7 828.1 1599.3 829.9 C 1603.8 831.5 1609.5 833.5 1612 834.1 C 1616.2 835.3 1617.2 836.4 1626.2 848.3 L 1636 861.1 L 1633.8 863.5 C 1632.6 864.8 1631.3 865.8 1630.8 865.8 C 1630.3 865.8 1627.6 867.8 1624.6 870.1 C 1621.6 872.5 1618.7 874.6 1618.1 874.9 C 1616.7 875.4 1622.3 892.8 1624.3 894 C 1625.8 895 1633.4 894.1 1642.5 892 C 1646.3 891 1649.8 890.5 1650.3 890.5 C 1651.8 891 1658.6 886.9 1661.8 883.5 C 1667.7 877.4 1668.3 870.9 1664.6 853.4 C 1661.6 839 1654.8 818.8 1648.1 803.8 L 1642.9 792.3 L 1634.4 786.9 C 1629.7 784 1622.8 780 1619.2 778 C 1615.5 776 1610.9 773.1 1608.9 771.6 C 1606.9 770 1604.7 768.8 1604 768.8 C 1603.3 768.8 1601.1 767.5 1599.1 766 C 1597.1 764.5 1592.9 761.9 1589.7 760.3 C 1585.3 758 1581.4 754.4 1572.7 744.8 C 1566.5 737.9 1540.8 711.3 1515.5 685.5 C 1490.2 659.8 1467.7 636.6 1465.5 634 C 1459.8 627.5 1410.6 582 1406.7 579.8 C 1405 578.6 1399.3 573.4 1394.2 567.8 C 1389.1 562.3 1384.3 557.8 1383.6 557.8 C 1382.9 557.8 1372.2 547.3 1359.9 534.5 C 1330.5 504.1 1278 450.1 1240.1 411.4 C 1223.4 394.3 1203 372.6 1194.9 363.1 C 1186.7 353.6 1178.7 344.9 1177 343.8 C 1175.4 342.6 1174 341.1 1174 340.4 C 1174 339.1 1140.8 319.3 1133.4 316.1 C 1130.6 314.9 1120.6 313.8 1098.7 312.1 C 1060.3 309.3 1014.5 304.9 1007.6 303.6 C 1004.8 303.1 999.8 301.9 996.4 300.8 L 990.4 298.8 L 984.9 277.1 C 979.9 257.6 979.2 255.3 977.1 254.8 C 975 254.3 975 254.2 978.5 250.8 C 986.5 243.1 992.7 234.3 994.8 227.8 C 996.5 222.4 1000 201.3 1000 195.9 C 1000 195.3 1001.5 194.1 1003.4 193.3 C 1005.3 192.4 1009 189.2 1011.6 186.1 C 1021.4 174.1 1025.4 160.3 1023.2 145.8 C 1021.5 133.6 1018.4 129.8 1010.3 129.8 C 1006.9 129.8 1006.8 129.7 1007.4 126.5 C 1008.9 117.8 1012.2 79.8 1012.3 69.3 C 1012.5 59.1 1012.1 56 1010.2 49.8 C 1004.8 32.6 987.4 14.8 966 4.3 L 955.6 -0.8 L 916.5 -0.9 C 877.7 -1.1 877.5 -1.1 871.5 1.1 M 897.5 3.8 C 884.7 5.5 869.8 9.7 863 13.3 C 846.1 22.6 831.8 37.3 823.4 54 L 820 60.8 L 820 77.8 C 820 96.2 821.1 108.8 823.9 123.7 L 825.8 133.2 L 823.1 135.8 C 821 137.8 819.7 138.3 817.2 137.9 C 811.1 137.1 809.3 138.3 808.1 143.8 C 805.4 156.3 807 164.1 814.8 175.8 C 821.1 185.2 823.6 186.6 823.3 180.6 C 823.1 176.8 823.1 176.8 827 176.8 L 831 176.8 L 831 181.2 C 831 187.9 833.8 208.2 836.2 218.3 C 838 226.3 838.8 227.9 843.9 234.2 C 856.3 249.4 879 269.6 890.2 275.4 C 903 281.9 917.8 282.4 931.1 276.9 C 943.3 271.8 966.9 251.8 982.2 233.8 C 986.5 228.6 987 227.6 989 217.3 C 990.3 210.7 991.4 200.3 991.7 191.6 L 992.3 176.8 L 996.1 176.8 C 999.9 176.8 999.9 176.8 1000.2 181.3 L 1000.5 185.8 L 1004.7 180.6 C 1012.4 170.9 1015.3 164.3 1015.8 155.3 C 1016 150.3 1015.6 145.6 1014.8 142.8 L 1013.4 138.3 L 1008.2 138.3 C 1004.1 138.3 1002.9 137.9 1002.4 136.6 C 1002.1 135.6 1001 134.8 999.9 134.8 C 998.2 134.8 998 134.3 998.5 131.6 C 999.9 123.3 1002.1 103.5 1003.6 85.3 C 1005.6 63 1005.1 57 1000.6 47.1 C 992.7 29.9 970.3 11.9 949 5.7 C 942.7 3.8 938.6 3.5 923 3.2 C 912.8 3 901.4 3.3 897.5 3.8 M 962.5 264.6 C 943.1 283.1 926 289.8 903.5 287.6 C 892.2 286.6 880.4 280.4 867.8 268.9 L 862.2 263.8 L 858.6 278.4 C 856.7 286.6 854.5 296.1 853.9 299.4 C 852.7 305.1 852.2 306.1 848.6 308.6 C 846.3 310.1 842.5 311.9 840 312.6 C 820.5 317.3 774.4 322.4 728.1 324.8 L 708.6 325.8 L 698.6 331.1 C 684.1 338.8 670.2 347.6 665.1 352.1 C 662.7 354.4 658.7 359.1 656.2 362.8 C 653.7 366.4 647.8 373.4 643.1 378.4 C 638.4 383.4 631.2 391.1 627.2 395.6 C 623.2 400.1 614.4 408.8 607.7 414.9 C 601 421.1 592.2 430.4 588.1 435.3 C 583.9 440.1 572.9 452.1 563.5 461.8 C 487.9 539.4 475.5 551.8 474.3 551.3 C 473.4 551 472.5 551.9 471.9 553.5 C 470.9 556.5 464.2 563 417.5 606 C 401.6 620.9 373.3 648.3 354.8 667 C 283.8 739.1 264.2 759.5 261.6 763.6 C 260.1 766 257.5 768.6 255.8 769.5 C 254.1 770.5 251.2 772.3 249.3 773.5 C 247.5 774.8 245.4 775.8 244.9 775.8 C 243.8 775.8 225.8 786.8 208.1 798.1 L 198.5 804.4 L 192.1 819.8 C 184.8 837.4 181.8 845.6 181.8 847.8 C 181.8 848.5 180.9 852.1 179.7 855.8 C 176.9 864.5 176.7 879.5 179.3 882.5 C 181.2 884.6 191.2 888.1 199.3 889.6 C 203.7 890.5 204.2 890.4 205.7 888.1 C 207.1 886 207.1 885.5 205.6 883.3 C 204.7 882 201.6 879.1 198.6 877 C 193.2 873.4 191 870.3 191 867 C 191.1 862.5 197.9 851.6 207.1 841.3 C 209.7 838.4 212.2 835.3 212.6 834.5 C 213.3 833.3 255.5 817.8 258.2 817.8 C 259.7 817.8 259 820.6 254.4 832.9 C 251.3 841.5 248.8 846.4 246.4 849 C 241.7 854.3 237.7 862.6 239.2 864.5 C 240 865.5 241.2 865 244.7 862.5 C 252.4 857 267.2 844.3 273.6 837.5 C 279 832 280.3 830 283.4 821.5 C 285.4 816 288.5 808.6 290.4 805 C 292.2 801.3 294.7 795.5 296 792.1 C 297.3 788.5 299.5 784.8 301.3 783 C 307.6 777.1 450.4 674.4 460.6 668.5 C 463.9 666.5 467.3 664.1 468 663.3 C 468.7 662.5 469.9 661.8 470.7 661.8 C 472.2 661.8 482.8 654.5 508.9 635.5 C 523.5 624.8 525.7 623.5 529.6 623.3 C 535.1 623.1 536.7 621.8 534.9 619 C 533.4 616.5 528 622.5 587.5 561.3 C 605.6 542.5 642.5 504.3 669.5 476.3 C 696.4 448.1 720.3 423.4 722.6 421.1 C 726.9 416.6 730.2 415.6 733.2 418.1 C 734.5 418.9 737.6 439.3 748.4 518.3 C 755.9 572.8 767.4 656.1 773.9 703.8 C 780.5 751.4 785.6 791.4 785.3 792.8 C 785 794.1 784.4 795.8 784 796.3 C 783.2 797.5 781.2 805.5 781.2 807.8 C 781.3 808.5 778.7 820.3 775.7 833.8 C 756.1 919.3 749.7 954.5 746.9 993.3 C 745.9 1007.3 746.2 1079.3 747.5 1119.5 C 749.9 1195.5 755.7 1310.3 760 1368.5 C 760.8 1380.3 760.7 1381.5 756.4 1407 C 754 1421.5 752 1433.5 752 1434 C 752 1434.5 750.9 1434.8 749.5 1434.8 L 746.9 1434.8 L 748.9 1437.5 L 750.9 1440.3 L 747.5 1459.8 C 745.6 1470.5 741 1496.3 737.2 1517.3 L 730.3 1555.3 L 731.1 1611.8 C 731.5 1642.8 732.7 1717.3 733.6 1777.5 L 735.3 1886.7 L 729.7 1892.8 C 712.3 1911.5 667.5 1968.2 658.1 1983.2 C 655.2 1987.8 658.9 1990.5 672.5 1993.3 C 685.1 1995.8 744.4 1994.8 756 1991.8 C 762.2 1990 764.2 1986.8 771.5 1965.3 L 778.2 1945.3 L 785.7 1937.8 C 794 1929.5 797.4 1924.3 798.9 1917.8 C 799.8 1913.8 799.5 1912.5 796.4 1904.8 C 794.4 1900 790.9 1892.7 788.5 1888.2 L 784.2 1880.2 L 786.1 1863.7 C 787.1 1854.7 790.6 1822.8 793.9 1792.8 L 799.8 1738.3 L 810.5 1691.8 C 816.3 1666.2 826 1624.3 832 1598.8 L 842.8 1552.3 L 846 1500.3 C 847.7 1471.7 849.3 1444.8 849.6 1440.8 C 851.7 1404.5 851.8 1404 868.9 1305.8 C 878.2 1252.2 888.6 1192 892 1172.3 C 895.3 1152.5 898.5 1135.5 899 1134.5 C 899.6 1133.5 900 1131.3 900 1129.3 C 900 1127.5 902.5 1111.7 905.5 1094.2 C 908.5 1076.8 910.8 1062.3 910.6 1062 C 910.4 1061.8 907.6 1061.3 904.4 1060.8 C 887.2 1058 886.2 1057.3 890 1052.5 C 892 1050 892.1 1050 896.7 1051.5 C 909.1 1055.3 925.6 1054 938.6 1048.3 C 943.7 1046 944.5 1045.8 945.9 1047.2 C 947 1048.3 947.1 1049.2 946.3 1051 C 945 1053.8 933.3 1059.3 926.1 1060.3 C 923.8 1060.8 921.8 1061.3 921.5 1061.8 C 921.3 1062.2 924 1076 927.5 1092.7 C 931.1 1109.3 934 1124.3 934 1125.8 C 934 1127.5 934.7 1130.5 935.5 1132.5 C 936.3 1134.5 941 1155.5 946 1179.3 C 951 1203 964.1 1263.7 975 1314.3 L 994.8 1406.3 L 995.3 1424.5 L 995.8 1442.8 L 993.2 1442.8 L 990.5 1442.8 L 993.3 1444.8 L 996 1447 L 996 1498.2 L 996 1549.5 L 1013.2 1644.8 L 1030.4 1740.3 L 1030.5 1804.3 L 1030.5 1868.3 L 1023.1 1884.3 C 1011.6 1909 1010.7 1913.8 1016.1 1922.3 C 1021 1930 1025.6 1935.3 1031.6 1939.8 C 1035.1 1942.5 1039.4 1947.5 1043.3 1953.2 C 1051.3 1965 1073.6 1987.5 1080.5 1990.8 C 1085.4 1993.3 1085.9 1993.3 1114.5 1993.3 C 1142.7 1993.3 1143.6 1993.2 1148.5 1991 C 1151.3 1989.7 1154.5 1988 1155.8 1987.2 L 1158 1985.8 L 1154.9 1979.5 C 1150.8 1971.5 1145 1962.8 1139 1955.8 C 1136.4 1952.7 1129.3 1942.2 1123.3 1932.3 C 1117.3 1922.3 1107 1905.8 1100.5 1895.3 L 1088.7 1876.3 L 1091.4 1806.3 C 1092.8 1767.8 1095.6 1698 1097.6 1651.3 L 1101.2 1566.2 L 1095.5 1512.8 C 1087.9 1441.3 1088.4 1448 1090.5 1445.8 C 1092.3 1443.8 1092.2 1443.8 1090.2 1443.8 C 1089 1443.8 1088 1443.5 1088 1443 C 1088 1442.5 1086.4 1428.5 1084.5 1412 L 1081.1 1381.5 L 1082.5 1352.5 C 1086.6 1265.7 1088 1200.7 1088 1095.8 C 1088 1008.4 1087.5 988.4 1084.4 963.8 C 1082.6 949 1075.4 912.3 1063.5 857.6 C 1058.8 836 1054.7 816.6 1054.5 814.8 C 1053.8 809.5 1052 801.5 1050.9 799.3 C 1047.8 792.3 1047.9 790.9 1059.1 708.5 C 1065.1 664.4 1070.4 626.3 1071 623.8 C 1073.4 612.9 1099.8 415.1 1098.9 414.1 C 1098.4 413.6 1098.3 412.8 1098.7 412.4 C 1099.5 411.6 1106 411.6 1108.2 412.6 C 1109.1 412.9 1116.9 420.6 1125.6 429.8 C 1168.6 474.6 1237.8 546.3 1293.4 603.5 C 1303.9 614.3 1305.1 615.9 1303.9 617.4 C 1301.9 619.9 1305.2 621.9 1310.1 621.1 C 1313.5 620.5 1314.5 621 1323.7 628 C 1339.4 639.9 1363.6 656.8 1365 656.8 C 1365.6 656.8 1370.7 660 1376.3 664.1 C 1381.9 668.1 1390.5 674.1 1395.5 677.3 C 1400.5 680.5 1406.8 685 1409.6 687.5 C 1412.4 689.8 1415.3 691.8 1416 691.8 C 1416.7 691.8 1428.3 700 1441.9 710 C 1466.2 728.1 1501 753.5 1520.5 767.5 C 1533.7 776.9 1537.3 780.9 1540.3 788.9 C 1541.7 792.5 1544.1 798 1545.8 801.4 C 1547.4 804.5 1550.5 812 1552.6 817.6 L 1556.5 828 L 1566 836.6 C 1581.5 850.8 1594.4 860.6 1595.7 859.4 C 1596.8 858.3 1593.5 851.3 1589.1 845.5 C 1583.1 837.6 1574.1 815.1 1576.2 813.1 C 1577.2 812.3 1582.3 813.6 1599.3 819.6 L 1621 827.4 L 1626 833.4 C 1636.3 845.6 1640.4 851.4 1642.7 856.4 C 1644.9 861.3 1645 861.9 1643.6 865 C 1642.8 867 1640.3 869.9 1637.8 871.6 C 1630.5 876.9 1629 878.5 1629 881.1 C 1629 885 1632.7 885.5 1641.3 882.9 C 1645.3 881.6 1649.6 880.5 1650.9 880.4 C 1652.2 880.1 1654.2 879 1655.2 877.6 C 1656.8 875.5 1657 874 1656.7 865.3 C 1656.2 854 1652.4 839.5 1645 820.8 C 1636.4 799 1638.2 801 1615.5 786.5 C 1604.5 779.5 1593.9 773 1592 772.1 C 1590.1 771.3 1587.8 770 1587 769.6 C 1586.2 769.1 1583.4 767.6 1580.8 766.3 C 1577.9 764.8 1575.2 762.3 1573.8 759.9 C 1568.8 751.5 1453 634 1419.3 603.1 C 1407.7 592.5 1397.8 583.8 1397.3 583.8 C 1395.5 583.8 1368.2 555.1 1367.3 552.3 C 1366.7 550.5 1365.7 549.4 1364.8 549.5 C 1363 549.9 1258 443.6 1246.9 430.3 C 1242.8 425.4 1233.5 415.6 1226.2 408.9 C 1218.9 402.1 1210.1 393.4 1206.7 389.4 C 1203.3 385.6 1196.6 378.3 1191.9 373.4 C 1187.2 368.4 1181.3 361.4 1178.8 357.8 C 1176.3 354.1 1172.3 349.4 1169.9 347.1 C 1164.8 342.6 1150.8 333.8 1136.4 326.1 L 1126.3 320.8 L 1109.9 319.8 C 1041 315.6 1015.2 313.1 997.8 308.6 C 993.6 307.6 989.3 306.8 988.2 306.8 C 984.4 306.8 982.9 303.1 977.2 279.9 C 974.1 267.1 971.4 256.8 971 256.8 C 970.7 256.9 966.9 260.3 962.5 264.6 M 774 871.3 L 774 873.8 L 917.5 873.8 L 1061 873.8 L 1061 871.3 L 1061 868.8 L 917.5 868.8 L 774 868.8 L 774 871.3"
    stroke="none"
    fill="#010101"
    fill-rule="evenodd"
  /> -->
  <path
    d="M 862.4 59.5 C 843.6 75.3 840.3 80.4 832 106.7 C 828.7 117.2 828.6 120 831.7 120 C 834.9 120 835.6 118.7 838.4 109.2 C 839.8 104.1 842.4 96.4 844.1 92.1 C 846.8 85.2 848.2 83.3 855.7 75.9 L 864.2 67.5 L 863.6 72 C 863.3 74.5 862.3 80.2 861.4 84.8 C 860.5 89.4 860 93.3 860.2 93.5 C 860.5 93.8 867 90.2 874.8 85.5 C 882.6 80.8 889.3 77 889.7 77 C 890.1 77 888 79.5 885 82.5 C 882 85.5 879.9 88.3 880.3 88.7 C 881.2 89.6 925.8 81.3 933.4 78.8 C 940.4 76.5 951.8 70.9 957.7 66.9 C 960 65.3 962.3 64 962.8 64 C 964.5 64 979.1 80 980.5 83.3 C 981.2 85.1 982.8 94.6 984 104.5 C 985.2 114.4 986.5 122.8 986.9 123.2 C 987.2 123.6 988.5 123.7 989.8 123.4 C 992.5 122.6 992.7 119.2 990.5 102.3 C 988 82.9 987.2 80 982.7 74 C 977.3 66.7 966 55 964.4 55 C 963.6 55 959.1 57.6 954.2 60.8 C 940.3 70 923.1 76 906.9 77.5 L 899.5 78.2 L 905.5 71.9 C 918.8 57.8 918.5 58.3 917.2 55.5 C 916.6 54.1 915.6 53 915 53 C 914.4 53 905.2 58.4 894.4 65 C 867 81.9 868.5 81.4 870.6 72.3 C 871.8 66.9 874.1 50.8 873.7 50.4 C 873.6 50.3 868.5 54.4 862.4 59.5 M 1303.9 618.6 C 1302.8 620 1302.8 620.4 1304.5 621.6 C 1306.6 623.2 1307.6 623.2 1310.5 622 L 1312.5 621.2 L 1310.5 620.5 C 1309.4 620 1307.8 619.1 1306.9 618.3 C 1305.5 617.1 1305.1 617.2 1303.9 618.6 M 530.6 620.9 C 527.9 623.7 527.9 623.8 529.9 624.5 C 531.9 625.1 536 623.6 536 622.2 C 536 621.8 535.3 620.7 534.6 619.8 C 533.4 618.2 533.1 618.3 530.6 620.9"
    stroke="black"
    stroke-width="1"
    fill="#040404"

    fill-rule="evenodd"
  />
  <!-- <path
    stroke="none"
    fill="#242424"
    d="M 751 1100.8 L 751 1103.7 L 766.8 1104.3 C 775.4 1104.7 789.8 1105 798.7 1105 C 810.7 1105 824.6 1106 852.2 1109 C 872.7 1111.2 891.4 1113.2 893.8 1113.5 C 897.9 1114.1 898 1114.1 898 1111.2 C 898 1107.5 900.5 1108 859 1103.5 C 820 1099.3 817.5 1099.2 780.3 1098.5 L 751 1098 L 751 1100.8 M 972.5 1103.1 C 954.4 1105.7 938.7 1107.9 937.7 1108 C 935.3 1108 934.4 1110.8 936.3 1112.7 C 937.6 1114.1 940.4 1113.8 963.6 1110.6 C 1008.6 1104.3 1012.7 1104 1050.2 1104 L 1085 1104 L 1085 1101 L 1085 1098 L 1045.3 1098.1 L 1005.5 1098.2 L 972.5 1103.1"
    
    fill-rule="evenodd"
  /> -->
  <path
    stroke="none"
    fill="#b3b3b3"
    d="M 748 1128.3 C 748 1153.3 754.5 1287.4 759 1355.5 L 761 1385.2 L 756 1415.1 L 751 1444.8 L 753.8 1447.1 C 759.9 1452.5 770.6 1458.9 778.3 1461.6 C 785.2 1464.3 788.4 1464.9 798.1 1465.3 C 812.2 1465.8 821.9 1463.7 835.5 1457 C 850.1 1450 848.9 1452.2 850.5 1428.1 C 851.7 1409.3 853.2 1399.2 868.5 1310.6 C 877.6 1257.3 888.1 1196.4 891.8 1174.9 L 898.5 1136.1 L 894 1135.8 C 882.5 1135.1 756.9 1125.5 752.8 1125 L 748 1124.4 L 748 1128.3 "
    fill-rule="evenodd" 
    id="MACRO_BP_UPPER_LEG" 
  />
  <path
    fill="#cbcbcb"
    fill-rule="evenodd"
    stroke="none"
    d="M 1109.6 361.8 C 1108.1 383.6 1106.6 403.9 1106.3 406.7 C 1105.8 411.4 1106 412.1 1107.8 412.7 C 1108.9 413.2 1122.5 426.8 1138.1 443 C 1174.1 480.6 1210.5 518.3 1263.4 572.8 L 1305.4 616 L 1308.1 613.3 C 1310.1 611.1 1350.9 565.9 1361.3 554.3 L 1363.3 552.1 L 1307.4 495.3 C 1276.6 464.1 1248.7 435 1245.3 430.8 C 1241.9 426.5 1233.5 417.9 1226.7 411.6 C 1219.9 405.3 1211 396.5 1206.9 391.9 C 1202.8 387.4 1195.6 379.6 1190.9 374.6 C 1186.2 369.6 1180.8 363.3 1179 360.5 C 1177.1 357.8 1174 353.8 1172.1 351.6 C 1167.5 346.5 1150.7 335.6 1135.8 328 C 1125.5 322.7 1123.5 322 1118.3 322 L 1112.4 322 L 1109.6 361.8"
    id="MACRO_BP_UPPER_ARM"
  ></path>
  <path
    fill="#5c5c5c"
    id="MACRO_BP_LOWER_LEG"
    fill-rule="evenodd"
    stroke="none"
    d="M 996 1499.7 L 996 1550.7 L 1013.2 1646.1 L 1030.4 1741.5 L 1030.5 1805.5 L 1030.5 1869.5 L 1023.1 1885.5 C 1011.6 1910.3 1010.7 1915 1016.1 1923.5 C 1021 1931.2 1025.6 1936.5 1031.6 1941.1 C 1035.1 1943.8 1039.4 1948.7 1043.3 1954.4 C 1051.3 1966.2 1073.6 1988.7 1080.5 1992.1 C 1085.4 1994.5 1085.9 1994.5 1114.5 1994.5 C 1142.7 1994.5 1143.6 1994.4 1148.5 1992.2 C 1151.3 1990.9 1154.5 1989.2 1155.8 1988.4 L 1158 1987 L 1154.9 1980.7 C 1150.8 1972.8 1145 1964 1139 1957 C 1136.4 1953.9 1129.3 1943.4 1123.3 1933.5 C 1117.3 1923.6 1107 1907 1100.5 1896.5 L 1088.7 1877.5 L 1091.4 1807.5 C 1092.8 1769 1095.6 1699.2 1097.6 1652.5 L 1101.2 1567.4 L 1095.5 1514 C 1092.4 1484.6 1089.6 1458 1089.3 1454.9 L 1088.7 1449.3 L 1083.1 1452.7 C 1080 1454.5 1073.9 1457.3 1069.5 1458.7 C 1062.4 1461.1 1060 1461.4 1047.5 1461.4 C 1029.3 1461.4 1021.1 1459.5 997.3 1449.3 C 996.3 1448.9 996 1459.4 996 1499.7"
  ></path>
    <path d="M 38 8 S 747 1112 747 1112" fill="rgb(255, 255, 255)"/>
</svg>
