<svg
  xmlns="http://www.w3.org/2000/svg"
  width="1837"
  height="2001"
  viewBox="0 0 1837 2001"
  version="1.1"
>
  <path
    d="M 971.5 1374.1 C 971.8 1375 971.5 1376.1 970.8 1376.7 C 965.5 1380.8 893 1385.7 875 1383.2 C 870.9 1382.6 867.5 1382.2 867.4 1382.3 C 867.3 1382.4 867.6 1385 868.1 1388 C 869.1 1393.8 872.1 1413.9 874.5 1430.5 C 875.3 1436 877.8 1452.9 880 1468 C 882.2 1483.1 884.7 1500 885.5 1505.5 C 886.2 1511 887.8 1522 889 1530 C 890.2 1538 891.8 1548.8 892.5 1554 C 893.2 1559.2 894.8 1570 896 1578 C 897.2 1586 898.8 1597 899.5 1602.5 C 900.3 1608 901.9 1618.6 903 1626 C 904.1 1633.4 906 1645.8 907 1653.5 C 908.1 1661.2 909.9 1673.6 911 1681 C 912.1 1688.4 913.7 1699 914.5 1704.5 C 915.2 1710 916.8 1721 918 1729 C 919.2 1737 920.8 1747.8 921.5 1753 C 922.2 1758.2 923.8 1769 925 1777 C 926.2 1785 927.8 1795.8 928.5 1801 C 929.2 1806.2 930.8 1817 932 1825 C 933.2 1833 934.8 1844.2 935.6 1850 C 936.3 1855.8 937.2 1861.7 937.5 1863.1 C 938.4 1867.1 931.5 1888.2 924.9 1901.8 C 919.2 1913.5 918.7 1914.3 912.2 1919 C 898.6 1929.1 879.1 1937.5 836 1952 C 820.9 1957.1 807.9 1962 807.3 1962.8 C 806.6 1963.7 806 1967.1 806 1970.6 C 806 1976.1 806.2 1976.8 808.3 1977.5 C 812.3 1978.7 979.4 1979.3 992.3 1978.2 C 1007.4 1976.8 1012.3 1974.7 1015 1968.8 C 1018.6 1961 1017.2 1947.3 1011.4 1933 C 1006.2 1920 1002.1 1904.6 995 1871 L 992.7 1860.5 L 994 1800.2 C 995.4 1736 994.8 1592.9 993 1562.2 C 991.5 1535.6 989.7 1522.3 977.6 1452 C 972.5 1422.2 970.8 1407.7 970.6 1393 C 970.5 1381.7 970.8 1377.9 971.9 1376.6 C 973 1375.3 973.1 1374.7 972.1 1373.7 C 971.1 1372.8 971 1372.8 971.5 1374.1"
    stroke="none"
    fill="#535353"

    id="MACRO_BP_LOWER_LEG"
    fill-rule="evenodd"
  />
  <path d="" stroke="none" fill="#979797" fill-rule="evenodd" />
  <path
    d="M 290.5 390.5 C 281.1 391.2 263.6 392.5 251.5 393.4 C 218.4 395.7 221.7 394.9 211.6 404.2 C 206.9 408.6 203 412.5 203 412.9 C 203 413.3 207.6 415.4 213.3 417.5 C 218.9 419.5 231.2 424.1 240.5 427.5 C 288.7 445.3 287.2 444.8 292.5 444.4 C 295.3 444.2 305.4 443.3 315 442.5 C 346.9 439.8 368.1 438.7 376.3 439.3 C 380.8 439.6 395.3 442.2 408.5 445 C 474.1 459 489.3 460.5 582.5 462 C 616 462.5 645.5 463.2 648 463.4 L 652.6 463.9 L 651.6 454.7 C 650.7 445.3 652.1 419.6 653.8 413.5 L 654.7 410.5 L 646.6 410.4 C 642.1 410.4 631.8 409.4 623.5 408.1 C 605.1 405.4 592.3 403.6 576 401.6 C 569.1 400.7 560.6 399.5 557 399 C 534.4 395.6 492.6 395.1 415 397.4 L 368.5 398.8 L 349.5 395.3 C 339.1 393.4 327.4 391.2 323.5 390.4 C 315.2 388.9 312.8 388.9 290.5 390.5"
    stroke="none"
    id="MACRO_BP_FOREARM"
    fill="#b1b1b1"
    fill-rule="evenodd"
  />
  <path d="M 1028.2 869.2 C 1017.8 873.9 986.4 878.9 953.5 881.1 C 933 882.4 869.2 881.7 851.5 879.9 C 842 879 829.9 876.5 825 874.6 C 823.6 874 823.2 877.2 821.6 897.7 C 820.7 910.8 819.2 928.3 818.5 936.5 C 815.6 967.1 813 1008.5 813 1023 C 813 1041.2 814.1 1049.4 818.6 1065.2 C 822.2 1078 827 1105.1 827 1113.1 C 827 1119 828.5 1120.3 837.7 1122.4 C 871 1129.9 983.3 1129.1 1023 1121.2 C 1032.9 1119.2 1031.4 1121.3 1040.4 1098 C 1051.9 1068.5 1058.3 1047.8 1063.1 1024.5 C 1065 1015.2 1065.3 1010.6 1065.3 994.5 C 1065.2 966.7 1063.7 959.2 1052.2 928 C 1042.4 901.4 1037.3 884.5 1035.3 872.6 C 1034.8 869.9 1034 867.6 1033.5 867.4 C 1032.9 867.3 1030.6 868.1 1028.2 869.2" 
    stroke="none"
    fill="#b1b1b1"
    fill-rule="evenodd"
    id="MACRO_BP_HIP"
    />
  <path
    d="M 968.9 246 C 958.5 248.8 941.2 250.4 920.5 250.4 C 901.5 250.4 891.3 249.2 885.6 246.5 C 883.7 245.5 883.1 245.4 883.8 246.3 C 885.8 248.6 896 280.5 896 284.3 C 896 289.5 898.3 290.2 916.7 290.1 C 938 290.1 955.4 287.7 968.7 283 C 976.9 280.1 977.7 279.1 976.2 273.3 C 974.9 268.1 974.3 246.9 975.4 245.1 C 975.8 244.5 976 244.1 975.8 244.1 C 975.6 244.2 972.5 245.1 968.9 246"
    stroke="none"
    fill="#bcbcbc"
    fill-rule="evenodd"
    id="MACRO_BP_NECK"
  />
  <path d="M 891.5 373 C 885.1 373.8 840 378.6 829 379.5 C 825.4 379.8 820 380.5 817 381 C 814 381.5 806.5 382.7 800.5 383.5 C 775.7 387.1 759.4 389.8 729 395.5 C 704.2 400.2 680.1 404.8 669.5 407 C 664.1 408.1 659.5 408.8 656.8 408.9 C 654.5 409 653.3 413.7 651.9 428.5 C 650.7 441.5 651.4 461.6 653.2 463.8 C 653.8 464.5 655.1 464.8 656.1 464.5 C 657.9 463.9 703.1 466.2 724 468 C 752.6 470.4 825.5 472.2 876.1 471.7 C 928.8 471.2 940.6 470.5 956.8 466.9 C 975.2 462.8 985.3 455.3 993 440 C 998.3 429.4 1000.3 421.8 1000.4 412.9 C 1000.4 406.4 999.9 404.6 997.7 400.7 C 993.5 393.6 984.7 386.4 973.5 381 C 958.7 373.8 952.3 372.7 922.5 372.4 C 908.8 372.3 894.8 372.5 891.5 373" 
    stroke="none"
    fill="#8a8a8a"
    fill-rule="evenodd"
    id="MACRO_BP_UPPER_ARM"
  />
  <path d="M 1017.4 643.7 C 1000.3 651.5 963 656 914.4 656 C 867.2 656 833.8 651.9 818.8 644.4 L 814 642 L 814.5 644.7 C 814.8 646.3 815.7 655.6 816.6 665.5 C 817.4 675.4 819 693.4 820.1 705.5 C 823 738.8 824.3 781.7 823.8 830.2 L 823.3 874 L 828.2 875.6 C 837.6 878.7 848.8 880 876 881.1 C 908.4 882.4 953.6 881.7 974 879.5 C 1001.5 876.6 1024.3 872 1030.7 868 L 1033.8 866.2 L 1032.4 860.3 C 1027.7 840.6 1022.4 799.2 1020.9 771 C 1019.7 748.4 1020.3 681.7 1021.9 655.5 C 1022.4 647.8 1022.7 641.5 1022.7 641.4 C 1022.6 641.3 1020.2 642.4 1017.4 643.7"
  
    stroke="none"
    fill="#585858"
    id="MACRO_BP_ABDOMEN"
    fill-rule="evenodd"
  
   />
  <path
    d="M 827.7 1119.5 C 828.3 1120.6 829.1 1124.2 829.5 1127.5 C 830.3 1134.7 835.2 1169.2 838 1188 C 839.1 1195.4 840.7 1206 841.5 1211.5 C 842.3 1217 843.9 1227.3 845 1234.5 C 847.1 1247.9 848.5 1257.2 851.9 1279.5 C 856 1307.2 860.1 1333.9 861.5 1342.5 C 862.3 1347.5 863.7 1356.2 864.6 1362 C 865.5 1367.8 866.2 1374.4 866.1 1376.8 C 866 1383.3 867 1383.5 897.5 1383.4 C 922.8 1383.4 944.1 1381.9 963.1 1378.7 L 970.5 1377.4 L 970.8 1372.5 C 971.4 1362.2 975 1327.9 977.5 1309 C 982.7 1270.2 988.5 1238.2 995.4 1210.7 C 1002.7 1181.8 1006.5 1171.4 1021.1 1141 C 1026.5 1129.8 1030.7 1120.4 1030.6 1120.2 C 1030.4 1120 1026.5 1120.6 1021.9 1121.4 C 971.7 1130.7 840.2 1129.2 828.6 1119.1 C 826.8 1117.6 826.8 1117.6 827.7 1119.5"
    stroke="none"
    fill="#cecece"
    id="MACRO_BP_UPPER_LEG"
    fill-rule="evenodd"
  /> 
  <path
    d="M 975.4 279.9 C 972.6 282.8 956.1 287.1 940.6 289 C 930.8 290.2 903.9 290.5 899.8 289.5 L 897 288.8 L 897 296.3 C 897 300.4 896.5 306.1 896 309.1 C 894.2 318.4 885.5 333.8 871.4 352.5 C 867.8 357.3 865 361.3 865.2 361.5 C 865.4 361.7 870.7 361.5 877 361 C 922.8 357.5 931.1 357.3 948.9 359.5 C 966.4 361.7 973.9 364.4 989.2 374.2 C 998.9 380.4 1007.4 389.5 1011.4 398 C 1014.3 404 1014.5 405.3 1014.4 415 C 1014.4 424.2 1014 426.5 1011.3 433.7 C 1007.6 443.4 1000.5 455.7 994.7 462.5 C 986.5 472.1 973.6 478.1 954.4 481.4 C 934.9 484.7 921.3 485.3 862 485.5 L 802.5 485.7 L 801.6 490.1 C 800.8 494.5 801.5 505.5 804.4 534 C 805.8 547.1 806.8 557.8 811 604.5 C 812.1 616.6 813 629 813 632 C 813 635 813.3 638.5 813.6 639.8 C 815.4 646.3 840.1 652.4 875.3 655.1 C 896 656.7 954.1 655.8 972 653.6 C 995.9 650.6 1015.7 645.8 1021.5 641.6 C 1022.9 640.6 1023.5 638.8 1023.6 634.9 C 1024.5 609.1 1031.4 558.4 1038.1 529.2 C 1040.4 519 1041.3 487 1040.1 455.6 C 1038.1 399.9 1035.1 389.8 1006.5 342.5 C 988.2 312.2 981.3 297.9 977.3 282.2 C 976.7 279.9 976.2 279.2 975.4 279.9"
    stroke="none"
    fill="#ffffff"
    fill-rule="evenodd"
    id="MACRO_BP_CHEST"
  /> 
  <path
    d="M 870 15 C 858.1 16.4 839.2 24.4 826.6 33.4 C 815.4 41.4 805.8 53.5 802 64.3 C 799.3 72 799.3 90 802 90 C 802.4 90 804 86.4 805.6 82 C 810.4 68 814 67.5 822.1 79.8 C 828.1 88.8 836.7 98 839.1 98 C 841.3 98 842 96 842 89 C 842 81 842.9 77.1 845.2 75.9 C 848.4 74.2 850.7 75.8 858.2 84.8 C 867.7 96.4 883.2 111.4 895.8 121.3 C 906.1 129.4 908.4 132.6 906 135.5 C 901.9 140.5 891.8 133.8 865.2 108.7 C 858.9 102.7 854.2 99 853.2 99.2 C 851.9 99.4 851.4 101 850.9 105.7 C 850.3 112.5 848.9 115 845.6 115 C 842.2 115 830.1 106.3 822.2 98.2 C 813.2 88.9 812 89.2 813.9 100.8 C 814.6 105.1 815.2 114.2 815.2 121 C 815.2 133 815.1 133.4 811.6 140.4 C 809.7 144.3 805.1 151 801.5 155.2 C 797.9 159.5 795 163.4 795 164 C 795 164.6 798.6 169.4 803 174.7 C 813.5 187.4 813.8 188.1 819.9 221.2 C 822.2 233.8 824.8 240.2 828.5 242.6 C 831.8 244.7 845.3 244.8 863.8 242.9 C 880 241.2 881.5 241.2 881.4 243 C 881.3 243.9 882 244.6 882.9 244.7 C 883.8 244.8 886.4 245.5 888.8 246.4 C 895.8 249 911.2 250.3 928.2 249.6 C 951.7 248.7 975 245.3 975 242.8 C 975 242.4 975.5 242 976.1 242 C 976.7 242 977 242.9 976.7 244 C 976.4 245.1 976.6 245.8 977.1 245.4 C 977.6 245.1 977.8 243.2 977.4 241.2 C 976.8 236.7 978.6 231.3 986.8 213.5 C 994.5 196.9 996.1 191.4 1001 166.2 C 1009.9 119.6 1010.3 101.6 1003 80.6 C 995 57.4 974.8 36.4 947.5 22.9 C 933.3 15.9 926.8 14.7 900.5 14.4 C 887.9 14.3 874.1 14.6 870 15 M 915.5 139.5 C 913.3 140.3 911.4 141 911.3 141 C 911.1 141 911 141.5 911 142.1 C 911 142.8 913.3 143.1 917.8 142.8 L 924.5 142.5 L 927.5 148.4 C 930.1 153.8 930.4 155.2 930.5 164.9 C 930.5 174.8 930.3 175.8 927.5 180.9 C 925.9 183.9 922.4 188.6 919.9 191.4 L 915.3 196.4 L 909.7 194.5 C 906.6 193.5 903.8 192.9 903.4 193.3 C 902.2 194.4 905 196.8 909.5 198.5 C 913.5 200.1 914 200.1 917.5 198.4 C 924.6 195.1 933.6 179.9 934.7 169.6 C 935.8 159.4 931.3 142.7 926.6 139.5 C 924 137.6 920.7 137.7 915.5 139.5"
    stroke="none"
    fill="#2b2b2b"
    id="MACRO_BP_FACE"
    fill-rule="evenodd"
  />
 
  
  </svg>
