<?xml version="1.0" encoding="UTF-8" standalone="no"?>
<svg
        width="800"
        height="1580"
        viewBox="0 0 1.7460802665149737 11.303058618150343"
        version="1.1"
        id="svg197"
        sodipodi:docname="m_left.svg"
        inkscape:version="1.1 (c4e8f9e, 2021-05-24)"
        xmlns:inkscape="http://www.inkscape.org/namespaces/inkscape"
        xmlns:sodipodi="http://sodipodi.sourceforge.net/DTD/sodipodi-0.dtd"
        xmlns="http://www.w3.org/2000/svg"
        xmlns:svg="http://www.w3.org/2000/svg">
    <defs
            id="defs201"/>
    <sodipodi:namedview
            id="namedview199"
            pagecolor="#ffffff"
            bordercolor="#666666"
            borderopacity="1.0"
            inkscape:pageshadow="2"
            inkscape:pageopacity="0.0"
            inkscape:pagecheckerboard="0"
            showgrid="false"
            inkscape:zoom="48.665915"
            inkscape:cx="0.87330117"
            inkscape:cy="6.9555869"
            inkscape:window-width="1296"
            inkscape:window-height="941"
            inkscape:window-x="0"
            inkscape:window-y="25"
            inkscape:window-maximized="0"
            inkscape:current-layer="svg197"/>
    <path
            fill-rule="evenodd"
            fill="#000000"
            stroke="#555555"
            stroke-width="0"
            opacity="1"
            d="M 1.4 1.8 C 1.2 1.9 0.9 1.9 0.7 2 C 0.6 2 0.7 1.8 0.7 1.8 C 0.7 1.6 0.6 1.3 0.6 1.1 C 0.8 1.1 1 1 1.3 1 C 1.3 1.2 1.3 1.3 1.3 1.5 C 1.4 1.6 1.4 1.7 1.4 1.8 Z"
            id="MACRO_BP_NECK"/>
    <path
            fill-rule="evenodd"
            fill="#00fff0"
            stroke="#555555"
            stroke-width="0"
            opacity="1"
            d="M 1.7 2.3 C 1.6 2.7 1.3 3.1 1.1 3.5 C 1.1 3.6 1 3.8 0.8 3.7 C 0.7 3.7 0.6 3.6 0.5 3.6 C 0.3 3.5 0 3.3 0 3 C 0 2.6 0.3 2.2 0.5 1.9 C 0.7 1.7 0.8 1.5 1.1 1.4 C 1.3 1.4 1.5 1.7 1.6 1.9 c 0.1 0.1 0.1 0.3 0.1 0.4 z"
            id="MACRO_BP_CHEST"/>
    <path
            fill-rule="evenodd"
            fill="#000000"
            stroke="#555555"
            stroke-width="0"
            opacity="1"
            d="M 1.1 4.6 C 1.2 5 0.8 5.2 0.5 5.2 C 0.4 5.3 0.1 5.2 0.1 5.1 C 0 4.7 0.1 4.3 0.1 3.9 C 0.1 3.6 0 3.2 0.2 3 C 0.3 2.7 0.8 2.7 1 2.9 C 1.1 3.2 1 3.5 1 3.7 C 1 4.1 1.1 4.3 1.1 4.6 Z"
            id="MACRO_BP_ABDOMEN"/>
    <path
            fill-rule="evenodd"
            fill="#000ff0"
            stroke="#555555"
            stroke-width="0"
            opacity="1"
            d="M 1.4 0.7 C 1.3 1.1 1 1.2 0.7 1.4 C 0.5 1.4 0.4 1.5 0.2 1.5 C 0.1 1.4 0.1 1.2 0.1 1.1 C 0.1 0.7 0.1 0.3 0.5 0.1 C 0.8 -0.1 1.3 0 1.4 0.4 c 0 0.1 0 0.3 0 0.4 z"
            id="MACRO_BP_FACE"/>
    <path
            fill-rule="evenodd"
            fill="#000000"
            stroke="#555555"
            stroke-width="0"
            opacity="1"
            d="M 1.3 5.9 C 1.3 6.5 1.2 7.1 1.1 7.6 C 1 7.8 0.8 8 0.6 7.9 C 0.4 7.7 0.4 7.4 0.3 7.1 C 0.1 6.5 0.1 5.7 0.2 5 C 0.2 4.8 0.3 4.6 0.6 4.6 c 0.4 0 0.6 0.4 0.6 0.7 c 0 0.2 0.1 0.4 0.1 0.6 z"
            id="MACRO_BP_UPPER_LEG"/>
    <path
            fill-rule="evenodd"
            fill="#000000"
            stroke="#555555"
            stroke-width="0"
            opacity="1"
            d="M 1.5 8.6 C 1.5 9 1.4 9.5 1.4 10 C 1.3 10.2 1.4 10.5 1.3 10.7 C 1.2 10.8 1.1 10.9 1 10.8 C 0.8 10.6 0.9 10.4 0.9 10.1 C 0.9 9.5 0.8 8.9 0.6 8.2 C 0.6 8 0.5 7.7 0.6 7.4 C 0.8 7.3 1 7.3 1.1 7.5 c 0.2 0.3 0.3 0.6 0.4 0.9 c 0 0 0 0.1 0 0.1 z"
            id="MACRO_BP_LOWER_LEG"/>
    <path
            fill-rule="evenodd"
            fill="#ffffff"
            stroke="#000000"
            stroke-width="0"
            opacity="1"
            d="M 1.4 5.4 C 1.4 5.7 1.2 5.9 1 5.8 C 0.8 5.8 0.5 5.7 0.3 5.8 C 0.2 5.9 0 5.8 0 5.6 C 0 5.3 0.1 5.1 0.1 4.8 C 0.1 4.6 0.1 4.4 0.2 4.3 C 0.5 4.1 0.8 4.2 1 4.4 C 1.2 4.7 1.3 5.1 1.4 5.4 Z"
            id="MACRO_BP_HIP"/>
    <path
            fill-rule="evenodd"
            fill="#000000"
            stroke="#555555"
            stroke-width="0"
            opacity="1"
            d="M 1.4 11.1 c 0 0.2 -0.2 0.2 -0.3 0.2 c -0.3 0 -0.7 0.1 -1 0 c -0.1 0 -0.1 -0.2 0 -0.2 c 0.2 -0.1 0.6 -0.2 0.7 -0.4 c 0.1 -0.2 0.1 -0.4 0.3 -0.5 c 0.2 0 0.2 0.2 0.2 0.3 c 0 0.2 0.1 0.4 0.1 0.6 z"
            id="leftFoot"/>
    <path
            fill-rule="evenodd"
            fill="#000000"
            stroke="#555555"
            stroke-width="0"
            opacity="1"
            d="M 0.7 7.8 C 0.7 7.9 0.7 8 0.6 8.1 C 0.4 8 0.4 7.8 0.4 7.6 C 0.4 7.5 0.5 7.4 0.6 7.5 c 0.1 0.1 0.1 0.2 0.1 0.3 z"
            id="leftKnee"/>
    <path
            fill-rule="evenodd"
            fill="#000000"
            stroke="#555555"
            stroke-width="0"
            opacity="1"
            d="M 1.7 3.2 C 1.7 3.5 1.7 3.7 1.7 4 C 1.6 4.1 1.3 4.1 1.2 3.9 C 1.1 3.7 1 3.5 1 3.2 C 0.9 2.9 0.9 2.6 1.1 2.4 C 1.2 2.2 1.5 2.2 1.6 2.4 C 1.7 2.6 1.7 2.9 1.7 3.2 Z"
            id="MACRO_BP_UPPER_ARM"/>
    <path
            fill-rule="evenodd"
            fill="#00ff00"
            stroke="#555555"
            stroke-width="0"
            opacity="1"
            d="M 1.6 2.1 C 1.6 2.4 1.4 2.6 1.3 2.7 C 1.1 2.7 0.9 2.7 0.8 2.6 C 0.6 2.4 0.7 2 0.9 1.9 C 1.1 1.8 1.4 1.7 1.5 1.9 c 0.1 0.1 0.1 0.2 0.1 0.3 z"
            id="leftShoulder"/>
    <path
            fill-rule="evenodd"
            fill="#000000"
            stroke="#555555"
            stroke-width="0"
            opacity="1"
            d="M 1.7 3.9 C 1.8 4 1.6 4.2 1.5 4.1 C 1.3 3.9 1.5 3.6 1.7 3.7 c 0 0 0.1 0.1 0.1 0.1 z"
            id="leftElbow"/>
    <path
            fill-rule="evenodd"
            fill="#000000"
            stroke="#555555"
            stroke-width="0"
            opacity="1"
            d="M 1.7 3.9 C 1.7 4.3 1.3 4.7 1.2 5.2 C 1.2 5.3 1 5.3 0.9 5.3 C 0.8 5.1 0.9 5 0.9 4.9 C 1 4.5 0.9 4.2 1.1 3.8 C 1.2 3.7 1.3 3.5 1.5 3.5 C 1.6 3.6 1.7 3.7 1.7 3.9 Z"
            id="MACRO_BP_UPPER_ARM"/>
    <path
            id="leftHand"
            d="M 1 5.1 C 0.7 5.2 0.6 5.5 0.5 5.7 C 0.6 5.9 0.8 5.4 0.7 5.8 C 0.7 5.9 0.6 6.1 0.7 6.2 C 0.8 6.2 0.9 5.5 0.8 6 C 0.8 6.1 0.9 6.4 0.9 6.1 C 0.9 5.9 1 5.6 1 6 C 1 6.2 1.2 6.3 1.1 6 C 1.1 5.5 1.2 6.3 1.3 6 C 1.2 5.7 1.4 5.2 1 5.1 Z"/>
</svg>
