<svg
  xmlns="http://www.w3.org/2000/svg"
  width="1837"
  height="2001"
  viewBox="0 0 1837 2001"
  version="1.1"
  
  
>
  <path 
  
    d="M 864.5 1374 C 864.1 1374.6 864.4 1375.8 865.2 1376.7 C 866.2 1377.9 866.5 1382.1 866.4 1393 C 866.2 1407.7 864.5 1422.2 859.4 1452 C 847.3 1522.3 845.5 1535.6 844 1562.2 C 842.2 1592.9 841.6 1736 843 1800.2 L 844.3 1860.5 L 842 1871 C 834.9 1904.6 830.8 1920 825.6 1933 C 819.8 1947.3 818.4 1961 822 1968.8 C 824.7 1974.7 829.6 1976.8 844.7 1978.2 C 857.6 1979.3 1024.7 1978.7 1028.8 1977.5 C 1030.8 1976.8 1031 1976.1 1031 1970.6 C 1031 1967.1 1030.4 1963.7 1029.8 1962.8 C 1029.1 1962 1016.1 1957.1 1001 1952 C 957.9 1937.5 938.4 1929.1 924.8 1919 C 918.3 1914.3 917.8 1913.5 912.1 1901.8 C 905.5 1888.2 898.6 1867.1 899.5 1863.1 C 899.8 1861.7 900.7 1855.8 901.4 1850 C 902.2 1844.2 903.8 1833 905 1825 C 906.2 1817 907.8 1806.2 908.5 1801 C 909.2 1795.8 910.8 1785 912 1777 C 913.2 1769 914.8 1758.2 915.5 1753 C 916.2 1747.8 917.8 1737 919 1729 C 920.2 1721 921.8 1710 922.5 1704.5 C 923.3 1699 924.9 1688.4 926 1681 C 927.1 1673.6 928.9 1661.2 930 1653.5 C 931 1645.8 932.9 1633.4 934 1626 C 935.1 1618.6 936.7 1608 937.5 1602.5 C 938.2 1597 939.8 1586 941 1578 C 942.2 1570 943.8 1559.2 944.5 1554 C 945.2 1548.8 946.8 1538 948 1530 C 949.2 1522 950.8 1511 951.5 1505.5 C 952.3 1500 954.8 1483.1 957 1468 C 959.3 1452.9 961.7 1436 962.5 1430.5 C 964.9 1413.9 967.9 1393.8 968.9 1388 C 969.4 1385 969.7 1382.4 969.6 1382.3 C 969.5 1382.2 966.1 1382.6 962 1383.2 C 947.8 1385.2 900.9 1382.9 875 1378.9 C 867 1377.6 864.6 1376.5 865.4 1374.3 C 866 1372.8 865.4 1372.6 864.5 1374"
    stroke="none"
    fill="#535353"
    fill-rule="evenodd"
    id="MACRO_BP_LOWER_LEG"
  />
  <path d="" stroke="none" fill="#979797" fill-rule="evenodd" />
  <path
    d="M 1513 390.5 C 1509.4 391.2 1498 393.4 1487.5 395.3 L 1468.5 398.8 L 1422 397.4 C 1344.4 395.1 1302.6 395.6 1280 399 C 1276.4 399.5 1267.9 400.7 1261 401.6 C 1244.7 403.6 1231.9 405.4 1213.5 408.1 C 1205.3 409.4 1194.9 410.4 1190.4 410.4 L 1182.3 410.5 L 1183.2 413.5 C 1184.9 419.6 1186.3 445.3 1185.4 454.7 L 1184.4 463.9 L 1189 463.4 C 1191.5 463.2 1221 462.5 1254.5 462 C 1347.7 460.5 1362.9 459 1428.5 445 C 1441.7 442.2 1456.2 439.6 1460.7 439.3 C 1468.9 438.7 1490.1 439.8 1522 442.5 C 1531.6 443.3 1541.8 444.2 1544.5 444.4 C 1549.8 444.8 1548.3 445.3 1596.5 427.5 C 1605.8 424.1 1618.1 419.5 1623.8 417.5 C 1629.4 415.4 1634 413.3 1634 412.9 C 1634 412.5 1630.1 408.6 1625.4 404.2 C 1615.3 394.9 1618.4 395.7 1586 393.4 C 1574.2 392.6 1555.7 391.3 1545 390.5 C 1522.2 388.8 1521.5 388.8 1513 390.5"
    stroke="none"
    fill="#b1b1b1"
    fill-rule="evenodd"
    id="MACRO_BP_FOREARM"
  />
  <path d="M 802.7 867.7 C 802.3 868 802 869.3 802 870.6 C 802 876.7 794.7 901 784.8 928 C 773.3 959.2 771.8 966.7 771.7 994.5 C 771.7 1010.6 772 1015.2 773.9 1024.5 C 778.7 1047.8 785.1 1068.5 796.6 1098 C 805.6 1121.3 804.1 1119.2 814 1121.2 C 853.7 1129.1 966 1129.9 999.3 1122.4 C 1008.5 1120.3 1010 1119 1010 1113.1 C 1010 1105.1 1014.8 1078 1018.4 1065.2 C 1022.9 1049.4 1024 1041.2 1024 1023 C 1024 1008.5 1021.4 967.1 1018.5 936.5 C 1017.8 928.3 1016.3 910.8 1015.4 897.7 C 1013.8 877.2 1013.4 874 1012 874.6 C 1007.1 876.5 995 879 985.5 879.9 C 967.8 881.7 904 882.4 883.5 881.1 C 850.5 878.9 819.5 874 808.4 869.1 C 803 866.7 803.5 866.8 802.7 867.7" 
  
      stroke="none"
    fill="#5d5d5d"
    fill-rule="evenodd"
    id="MACRO_BP_HIP"
  />
  <path
    d="M 814.4 646.3 C 816.8 667.1 817.7 742 816 773.5 C 814.6 799.5 809.1 841.4 804.6 860.3 L 803.2 866.2 L 806.3 868 C 812.7 872 835.5 876.6 863 879.5 C 883.4 881.7 928.6 882.4 961 881.1 C 988.2 880 999.4 878.7 1008.8 875.6 L 1013.7 874 L 1013.2 830.2 C 1012.7 781.7 1014 738.8 1016.9 705.5 C 1018 693.4 1019.6 675.4 1020.4 665.5 C 1021.3 655.6 1022.2 646.3 1022.5 644.7 L 1023 642 L 1018.2 644.4 C 1003.2 651.9 969.8 656 922.6 656 C 873.7 656 836.8 651.5 819.3 643.5 L 813.9 641 L 814.4 646.3"
    stroke="none"
    fill="#d7d7d7"
    id="MACRO_BP_ABDOMEN"

    fill-rule="evenodd"
  />
  <path d="M 892.5 372.7 C 868.7 375.8 847.3 387 839.3 400.7 C 834.2 409.4 836 424 844 440 C 851.7 455.3 861.8 462.8 880.2 466.9 C 896.4 470.5 908.2 471.2 960.9 471.7 C 1011.5 472.2 1084.4 470.4 1113 468 C 1133.9 466.2 1179.1 463.9 1180.9 464.5 C 1181.9 464.8 1183.2 464.5 1183.8 463.8 C 1185.6 461.6 1186.3 441.5 1185.1 428.5 C 1183.7 413.7 1182.5 409 1180.2 408.9 C 1177.5 408.8 1172.9 408.1 1167.5 407 C 1156.9 404.8 1132.8 400.2 1108 395.5 C 1077.6 389.8 1061.3 387.1 1036.5 383.5 C 1030.5 382.7 1023 381.5 1020 381 C 1017 380.5 1011.6 379.8 1008 379.5 C 998 378.6 953.4 374 945 373 C 937.8 372.1 898.7 371.9 892.5 372.7"
  fill="#7b7b7b"
  stroke="none"
  fill-rule="evenodd"
  id="MACRO_BP_UPPER_ARM"

   />
  <path 
      stroke="none"
    fill="#b5b5b5"
    fill-rule="evenodd"
    id="MACRO_BP_NECK"
  d="M 861.7 245.3 C 862.7 246.9 862 268.4 860.8 273.3 C 859.3 279.1 860.1 280.1 868.3 283 C 881.6 287.7 899 290.1 920.3 290.1 C 938.7 290.2 941 289.5 941 284.3 C 941 280.5 951.2 248.6 953.2 246.3 C 953.9 245.4 953.3 245.5 951.4 246.5 C 940.1 252 890.1 251.7 867.8 246.1 C 864.1 245.2 861.4 244.8 861.7 245.3" />
  <path
    d="M 1008 1119.4 C 997.7 1129.2 864.5 1130.6 815.1 1121.4 C 810.5 1120.6 806.6 1120 806.4 1120.2 C 806.3 1120.4 810.5 1129.8 815.9 1141 C 830.5 1171.4 834.3 1181.8 841.6 1210.7 C 848.5 1238.2 854.3 1270.2 859.5 1309 C 862 1327.9 865.6 1362.2 866.2 1372.5 L 866.5 1377.4 L 873.9 1378.7 C 892.9 1381.9 914.2 1383.4 939.5 1383.4 C 970 1383.5 971 1383.3 970.9 1376.8 C 970.8 1374.4 971.5 1367.8 972.4 1362 C 973.3 1356.2 974.7 1347.5 975.5 1342.5 C 976.9 1333.9 981 1307.2 985.1 1279.5 C 988.5 1257.2 989.9 1247.9 992 1234.5 C 993.1 1227.3 994.7 1217 995.5 1211.5 C 996.3 1206 997.9 1195.4 999 1188 C 1001.8 1169.2 1006.7 1134.7 1007.5 1127.5 C 1007.9 1124.2 1008.7 1120.7 1009.2 1119.8 C 1010.3 1117.6 1009.9 1117.5 1008 1119.4"
    stroke="none"
    fill="#a5a5a5"
    id="MACRO_BP_UPPER_LEG"
    fill-rule="evenodd"
  /> 
  <path
    d="M 859.4 282.8 C 857.2 294.7 848.8 312.1 830.5 342.5 C 801.9 389.8 798.9 399.9 796.9 455.6 C 795.7 487 796.6 519 798.9 529.2 C 805.6 558.4 812.5 609.1 813.4 634.9 C 813.5 638.8 814.1 640.6 815.5 641.6 C 821.3 645.8 841.1 650.6 865 653.6 C 882.9 655.8 941 656.7 961.7 655.1 C 996.9 652.4 1021.6 646.3 1023.4 639.8 C 1023.7 638.5 1024 635 1024 632 C 1024 629 1024.9 616.6 1026 604.5 C 1030.2 557.8 1031.2 547.1 1032.6 534 C 1035.5 505.5 1036.2 494.5 1035.4 490.1 L 1034.5 485.7 L 975 485.5 C 915.7 485.3 902.1 484.7 882.6 481.4 C 863.4 478.1 850.5 472.1 842.3 462.5 C 836.5 455.7 829.4 443.4 825.7 433.7 C 823 426.5 822.6 424.2 822.6 415 C 822.5 405.3 822.7 404 825.6 398 C 829.6 389.5 838.1 380.4 847.8 374.2 C 863.1 364.4 870.6 361.7 888.1 359.5 C 905.9 357.3 914.2 357.5 960 361 C 966.3 361.5 971.6 361.7 971.8 361.5 C 972 361.3 969.2 357.3 965.6 352.5 C 951.5 333.8 942.8 318.4 941 309.1 C 940.5 306.1 940 300.4 940 296.3 L 940 288.8 L 937.3 289.5 C 933.1 290.5 906.2 290.2 896.4 289 C 881.1 287.1 867.3 283.6 862.3 280.4 C 860.2 279.1 860.1 279.2 859.4 282.8"
    stroke="none"
    fill="#ffffff"
    fill-rule="evenodd"
    id="MACRO_BP_CHEST"
  /> 
  <path
    d="M 912.3 15.5 C 901.6 17.4 893.3 20.5 883.5 26.1 C 846.9 47.1 828.9 75.3 828.9 111.5 C 828.9 124.7 830.8 138.6 836 166.2 C 840.9 191.4 842.5 196.9 850.2 213.5 C 858.4 231.3 860.2 236.7 859.6 241.2 C 859.2 243.2 859.4 245.1 859.9 245.4 C 860.4 245.8 860.6 245.1 860.3 244 C 860 242.9 860.3 242 860.9 242 C 861.5 242 862 242.4 862 242.8 C 862 245.3 885.3 248.7 908.8 249.6 C 925.8 250.3 941.2 249 948.2 246.4 C 950.6 245.5 953.2 244.8 954.1 244.7 C 955 244.6 955.7 243.9 955.6 243 C 955.5 241.2 957 241.2 973.2 242.9 C 991.7 244.8 1005.2 244.7 1008.5 242.6 C 1012.2 240.2 1014.8 233.8 1017.1 221.2 C 1023.2 188.1 1023.5 187.4 1034 174.7 C 1038.4 169.4 1042 164.6 1042 164 C 1042 163.4 1039.1 159.5 1035.5 155.2 C 1031.9 151 1027.3 144.3 1025.4 140.4 C 1021.9 133.4 1021.8 133 1021.8 121 C 1021.8 114.2 1022.4 105.1 1023.1 100.8 C 1025 89.2 1023.8 88.9 1014.8 98.2 C 1006.9 106.3 994.8 115 991.4 115 C 988.1 115 986.7 112.5 986.1 105.7 C 985.6 101 985.1 99.4 983.8 99.2 C 982.8 99 978.1 102.7 971.8 108.7 C 945.2 133.8 935.1 140.5 931 135.5 C 928.6 132.6 930.9 129.4 941.2 121.3 C 953.8 111.4 969.3 96.4 978.8 84.8 C 986.3 75.8 988.6 74.2 991.8 75.9 C 994.1 77.1 995 81 995 89 C 995 96 995.7 98 997.9 98 C 1000.3 98 1008.9 88.8 1014.9 79.8 C 1023 67.5 1026.6 68 1031.4 82 C 1033 86.4 1034.6 90 1035 90 C 1037.7 90 1037.7 72 1035 64.3 C 1032.6 57.5 1027.5 49.5 1021.1 42.7 C 1008.6 29.3 983.8 16.9 965.6 15 C 952.7 13.6 920.9 13.9 912.3 15.5 M 910.4 139.4 C 905.7 142.8 901.2 159.4 902.3 169.6 C 903.4 179.9 912.4 195.1 919.5 198.4 C 923 200.1 923.5 200.1 927.5 198.5 C 932 196.8 934.8 194.4 933.6 193.3 C 933.2 192.9 930.4 193.5 927.3 194.5 L 921.7 196.4 L 917.1 191.4 C 914.6 188.6 911.1 183.9 909.5 180.9 C 906.7 175.8 906.5 174.8 906.5 164.9 C 906.6 155.2 906.9 153.8 909.5 148.4 L 912.5 142.5 L 919.3 142.8 C 926.3 143.2 927.9 142.2 923.4 140.1 C 918.8 138.1 912.7 137.7 910.4 139.4"
    stroke="none"
    fill="#2b2b2b"
    fill-rule="evenodd"
    id="MACRO_BP_FACE"
  /> 
</svg>
