<svg
  xmlns="http://www.w3.org/2000/svg"
  width="1837"
  height="2001"
  viewBox="0 0 1837 2001"
  version="1.1"
  
  
> 
  <path
    d="M 1513 390.5 C 1509.4 391.2 1498 393.4 1487.5 395.3 L 1468.5 398.8 L 1422 397.4 C 1344.4 395.1 1302.6 395.6 1280 399 C 1276.4 399.5 1267.9 400.7 1261 401.6 C 1244.7 403.6 1231.9 405.4 1213.5 408.1 C 1205.3 409.4 1194.9 410.4 1190.4 410.4 L 1182.3 410.5 L 1183.2 413.5 C 1184.9 419.6 1186.3 445.3 1185.4 454.7 L 1184.4 463.9 L 1189 463.4 C 1191.5 463.2 1221 462.5 1254.5 462 C 1347.7 460.5 1362.9 459 1428.5 445 C 1441.7 442.2 1456.2 439.6 1460.7 439.3 C 1468.9 438.7 1490.1 439.8 1522 442.5 C 1531.6 443.3 1541.8 444.2 1544.5 444.4 C 1549.8 444.8 1548.3 445.3 1596.5 427.5 C 1605.8 424.1 1618.1 419.5 1623.8 417.5 C 1629.4 415.4 1634 413.3 1634 412.9 C 1634 412.5 1630.1 408.6 1625.4 404.2 C 1615.3 394.9 1618.4 395.7 1586 393.4 C 1574.2 392.6 1555.7 391.3 1545 390.5 C 1522.2 388.8 1521.5 388.8 1513 390.5"
    stroke="none"
    fill="#b1b1b1"
    fill-rule="evenodd"
    id="MACRO_BP_FOREARM"
  />
  <path d="M 802.7 867.7 C 802.3 868 802 869.3 802 870.6 C 802 876.7 794.7 901 784.8 928 C 773.3 959.2 771.8 966.7 771.7 994.5 C 771.7 1010.6 772 1015.2 773.9 1024.5 C 778.7 1047.8 785.1 1068.5 796.6 1098 C 805.6 1121.3 804.1 1119.2 814 1121.2 C 853.7 1129.1 966 1129.9 999.3 1122.4 C 1008.5 1120.3 1010 1119 1010 1113.1 C 1010 1105.1 1014.8 1078 1018.4 1065.2 C 1022.9 1049.4 1024 1041.2 1024 1023 C 1024 1008.5 1021.4 967.1 1018.5 936.5 C 1017.8 928.3 1016.3 910.8 1015.4 897.7 C 1013.8 877.2 1013.4 874 1012 874.6 C 1007.1 876.5 995 879 985.5 879.9 C 967.8 881.7 904 882.4 883.5 881.1 C 850.5 878.9 819.5 874 808.4 869.1 C 803 866.7 803.5 866.8 802.7 867.7" 
  
      stroke="none"
    fill="#5d5d5d"
    fill-rule="evenodd"
    id="MACRO_BP_HIPS"
  />
  <path
    d="M 814.4 646.3 C 816.8 667.1 817.7 742 816 773.5 C 814.6 799.5 809.1 841.4 804.6 860.3 L 803.2 866.2 L 806.3 868 C 812.7 872 835.5 876.6 863 879.5 C 883.4 881.7 928.6 882.4 961 881.1 C 988.2 880 999.4 878.7 1008.8 875.6 L 1013.7 874 L 1013.2 830.2 C 1012.7 781.7 1014 738.8 1016.9 705.5 C 1018 693.4 1019.6 675.4 1020.4 665.5 C 1021.3 655.6 1022.2 646.3 1022.5 644.7 L 1023 642 L 1018.2 644.4 C 1003.2 651.9 969.8 656 922.6 656 C 873.7 656 836.8 651.5 819.3 643.5 L 813.9 641 L 814.4 646.3"
    stroke="none"
    fill="#d7d7d7"
    id="MACRO_BP_ABDOMEN"

    fill-rule="evenodd"
  />
  <path d="M 892.5 372.7 C 868.7 375.8 847.3 387 839.3 400.7 C 834.2 409.4 836 424 844 440 C 851.7 455.3 861.8 462.8 880.2 466.9 C 896.4 470.5 908.2 471.2 960.9 471.7 C 1011.5 472.2 1084.4 470.4 1113 468 C 1133.9 466.2 1179.1 463.9 1180.9 464.5 C 1181.9 464.8 1183.2 464.5 1183.8 463.8 C 1185.6 461.6 1186.3 441.5 1185.1 428.5 C 1183.7 413.7 1182.5 409 1180.2 408.9 C 1177.5 408.8 1172.9 408.1 1167.5 407 C 1156.9 404.8 1132.8 400.2 1108 395.5 C 1077.6 389.8 1061.3 387.1 1036.5 383.5 C 1030.5 382.7 1023 381.5 1020 381 C 1017 380.5 1011.6 379.8 1008 379.5 C 998 378.6 953.4 374 945 373 C 937.8 372.1 898.7 371.9 892.5 372.7"
  fill="#7b7b7b"
  stroke="none"
  fill-rule="evenodd"
  id="MACRO_BP_UPPER_ARM"

   />
  <path 
      stroke="none"
    fill="#b5b5b5"
    fill-rule="evenodd"
    id="MACRO_BP_NECK"
  d="M 861.7 245.3 C 862.7 246.9 862 268.4 860.8 273.3 C 859.3 279.1 860.1 280.1 868.3 283 C 881.6 287.7 899 290.1 920.3 290.1 C 938.7 290.2 941 289.5 941 284.3 C 941 280.5 951.2 248.6 953.2 246.3 C 953.9 245.4 953.3 245.5 951.4 246.5 C 940.1 252 890.1 251.7 867.8 246.1 C 864.1 245.2 861.4 244.8 861.7 245.3" />
  <path
    d="M 1008 1119.4 C 997.7 1129.2 864.5 1130.6 815.1 1121.4 C 810.5 1120.6 806.6 1120 806.4 1120.2 C 806.3 1120.4 810.5 1129.8 815.9 1141 C 830.5 1171.4 834.3 1181.8 841.6 1210.7 C 848.5 1238.2 854.3 1270.2 859.5 1309 C 862 1327.9 865.6 1362.2 866.2 1372.5 L 866.5 1377.4 L 873.9 1378.7 C 892.9 1381.9 914.2 1383.4 939.5 1383.4 C 970 1383.5 971 1383.3 970.9 1376.8 C 970.8 1374.4 971.5 1367.8 972.4 1362 C 973.3 1356.2 974.7 1347.5 975.5 1342.5 C 976.9 1333.9 981 1307.2 985.1 1279.5 C 988.5 1257.2 989.9 1247.9 992 1234.5 C 993.1 1227.3 994.7 1217 995.5 1211.5 C 996.3 1206 997.9 1195.4 999 1188 C 1001.8 1169.2 1006.7 1134.7 1007.5 1127.5 C 1007.9 1124.2 1008.7 1120.7 1009.2 1119.8 C 1010.3 1117.6 1009.9 1117.5 1008 1119.4"
    stroke="none"
    fill="#a5a5a5"
    id="MACRO_BP_UPPER_LEG"
    fill-rule="evenodd"
  /> 
  <path
    d="M 859.4 282.8 C 857.2 294.7 848.8 312.1 830.5 342.5 C 801.9 389.8 798.9 399.9 796.9 455.6 C 795.7 487 796.6 519 798.9 529.2 C 805.6 558.4 812.5 609.1 813.4 634.9 C 813.5 638.8 814.1 640.6 815.5 641.6 C 821.3 645.8 841.1 650.6 865 653.6 C 882.9 655.8 941 656.7 961.7 655.1 C 996.9 652.4 1021.6 646.3 1023.4 639.8 C 1023.7 638.5 1024 635 1024 632 C 1024 629 1024.9 616.6 1026 604.5 C 1030.2 557.8 1031.2 547.1 1032.6 534 C 1035.5 505.5 1036.2 494.5 1035.4 490.1 L 1034.5 485.7 L 975 485.5 C 915.7 485.3 902.1 484.7 882.6 481.4 C 863.4 478.1 850.5 472.1 842.3 462.5 C 836.5 455.7 829.4 443.4 825.7 433.7 C 823 426.5 822.6 424.2 822.6 415 C 822.5 405.3 822.7 404 825.6 398 C 829.6 389.5 838.1 380.4 847.8 374.2 C 863.1 364.4 870.6 361.7 888.1 359.5 C 905.9 357.3 914.2 357.5 960 361 C 966.3 361.5 971.6 361.7 971.8 361.5 C 972 361.3 969.2 357.3 965.6 352.5 C 951.5 333.8 942.8 318.4 941 309.1 C 940.5 306.1 940 300.4 940 296.3 L 940 288.8 L 937.3 289.5 C 933.1 290.5 906.2 290.2 896.4 289 C 881.1 287.1 867.3 283.6 862.3 280.4 C 860.2 279.1 860.1 279.2 859.4 282.8"
    stroke="none"
    fill="#ffffff"
    fill-rule="evenodd"
    id="MACRO_BP_CHEST"
  /> 
  <path
    d="M 912.3 15.5 C 901.6 17.4 893.3 20.5 883.5 26.1 C 846.9 47.1 828.9 75.3 828.9 111.5 C 828.9 124.7 830.8 138.6 836 166.2 C 840.9 191.4 842.5 196.9 850.2 213.5 C 858.4 231.3 860.2 236.7 859.6 241.2 C 859.2 243.2 859.4 245.1 859.9 245.4 C 860.4 245.8 860.6 245.1 860.3 244 C 860 242.9 860.3 242 860.9 242 C 861.5 242 862 242.4 862 242.8 C 862 245.3 885.3 248.7 908.8 249.6 C 925.8 250.3 941.2 249 948.2 246.4 C 950.6 245.5 953.2 244.8 954.1 244.7 C 955 244.6 955.7 243.9 955.6 243 C 955.5 241.2 957 241.2 973.2 242.9 C 991.7 244.8 1005.2 244.7 1008.5 242.6 C 1012.2 240.2 1014.8 233.8 1017.1 221.2 C 1023.2 188.1 1023.5 187.4 1034 174.7 C 1038.4 169.4 1042 164.6 1042 164 C 1042 163.4 1039.1 159.5 1035.5 155.2 C 1031.9 151 1027.3 144.3 1025.4 140.4 C 1021.9 133.4 1021.8 133 1021.8 121 C 1021.8 114.2 1022.4 105.1 1023.1 100.8 C 1025 89.2 1023.8 88.9 1014.8 98.2 C 1006.9 106.3 994.8 115 991.4 115 C 988.1 115 986.7 112.5 986.1 105.7 C 985.6 101 985.1 99.4 983.8 99.2 C 982.8 99 978.1 102.7 971.8 108.7 C 945.2 133.8 935.1 140.5 931 135.5 C 928.6 132.6 930.9 129.4 941.2 121.3 C 953.8 111.4 969.3 96.4 978.8 84.8 C 986.3 75.8 988.6 74.2 991.8 75.9 C 994.1 77.1 995 81 995 89 C 995 96 995.7 98 997.9 98 C 1000.3 98 1008.9 88.8 1014.9 79.8 C 1023 67.5 1026.6 68 1031.4 82 C 1033 86.4 1034.6 90 1035 90 C 1037.7 90 1037.7 72 1035 64.3 C 1032.6 57.5 1027.5 49.5 1021.1 42.7 C 1008.6 29.3 983.8 16.9 965.6 15 C 952.7 13.6 920.9 13.9 912.3 15.5 M 910.4 139.4 C 905.7 142.8 901.2 159.4 902.3 169.6 C 903.4 179.9 912.4 195.1 919.5 198.4 C 923 200.1 923.5 200.1 927.5 198.5 C 932 196.8 934.8 194.4 933.6 193.3 C 933.2 192.9 930.4 193.5 927.3 194.5 L 921.7 196.4 L 917.1 191.4 C 914.6 188.6 911.1 183.9 909.5 180.9 C 906.7 175.8 906.5 174.8 906.5 164.9 C 906.6 155.2 906.9 153.8 909.5 148.4 L 912.5 142.5 L 919.3 142.8 C 926.3 143.2 927.9 142.2 923.4 140.1 C 918.8 138.1 912.7 137.7 910.4 139.4"
    stroke="none"
    fill="#2b2b2b"
    fill-rule="evenodd"
    id="MACRO_BP_FACE"
  />
  <path
    d="M 917 2.6 C 906.9 3.8 893.7 7.6 884.3 12 C 857.1 24.9 837.3 43.9 826.4 67.6 C 813.9 94.7 813.8 116.7 826.1 178.5 C 830 197.9 831.8 203.3 840.7 222 L 848.1 237.5 L 847.7 258 C 847.3 277.1 847.1 279 844.6 286 C 840.6 297.2 833.3 311.5 822 330.5 C 805.8 357.4 801.4 365.2 797.6 374 C 786.3 399.7 784.4 413.9 783.3 479.5 L 782.7 519.5 L 785.8 533.5 C 791.7 560 795.2 580.8 797 598.5 C 797.5 604 798.2 609.6 798.5 611 C 799.2 614.2 801.8 654 803 678 C 804.1 700.9 804.1 757.7 803 772.5 C 800 812.8 795 846.1 787.3 877.5 C 784 891.1 781.8 897.8 774.4 916.8 C 764 943.4 761 954.4 759 973.2 C 754 1020.5 766.5 1068.5 804.5 1148.5 C 815.9 1172.6 824.7 1196.9 829.7 1218.5 C 840.9 1267.4 848.1 1316.9 853.9 1387 C 854.7 1396 854.3 1398.8 848 1437.5 C 844.2 1460 840 1486.2 838.6 1495.5 C 837.1 1504.8 835.5 1515.2 834.9 1518.5 C 833.4 1528.2 831.1 1555 830 1576.5 C 828.7 1603.3 828.7 1774 830.1 1821 L 831.2 1858.5 L 827.5 1875 C 825.4 1884.1 823.2 1894.2 822.4 1897.6 C 820.3 1907.3 817.4 1917.1 815 1922.5 C 809.5 1934.9 807.6 1943.8 807.6 1957 C 807.6 1970.6 808.2 1972.8 814 1980.8 C 818 1986.4 822.8 1988.5 836.6 1990.7 C 846.4 1992.3 855.5 1992.5 928 1992.4 C 991 1992.3 1012.3 1991.9 1025.8 1990.8 C 1035.4 1989.9 1043.7 1988.7 1044.3 1988.1 C 1046.1 1986.3 1042.7 1954.4 1040.4 1951.9 C 1039.5 1950.8 1031.8 1947.8 1022.6 1944.9 C 983.7 1932.5 965.3 1925.7 948.4 1917.4 C 929.1 1907.8 924.7 1902.3 916.4 1876.9 L 912.6 1865.2 L 914.4 1853.4 C 915.3 1846.8 916.8 1837.2 917.5 1832 C 918.3 1826.8 919.4 1819.1 920 1815 C 920.6 1810.9 921.9 1801.2 923.1 1793.5 C 925.1 1779.7 926.2 1771.6 929.4 1749 C 930.3 1742.7 931.7 1733.5 932.5 1728.5 C 933.2 1723.5 934.2 1717 934.5 1714 C 934.8 1711 935.5 1706.3 936 1703.5 C 936.9 1698.9 937.8 1693 941.5 1666 C 942.2 1660.8 943.8 1650.2 944.9 1642.5 C 946.1 1634.8 947.7 1623.8 948.5 1618 C 949.3 1612.2 950.9 1601.4 952 1594 C 953.1 1586.6 954.7 1576 955.5 1570.5 C 956.3 1565 958.5 1549.7 960.5 1536.5 C 962.5 1523.3 965 1506.2 966.1 1498.5 C 970 1471.2 970.8 1465.4 972.4 1454 C 973.3 1447.7 974.5 1440 975 1437 C 975.6 1434 976.7 1426.8 977.5 1421 C 978.3 1415.2 979.9 1404.4 981 1397 C 982.1 1389.6 983.7 1379 984.5 1373.5 C 985.8 1364.5 986.9 1357.6 991.5 1327.5 C 992.3 1322.5 993.8 1312.4 994.9 1305 C 996.1 1297.6 997.9 1285.7 999 1278.5 C 1001 1266.2 1001.7 1261.3 1005.4 1236 C 1006.3 1230.2 1007.9 1219.4 1009 1212 C 1013.2 1183.9 1023.5 1110.7 1024.5 1102 C 1025.5 1093 1028 1081.2 1031 1070.5 C 1037.8 1047 1038.6 1036.7 1036.5 1000.4 C 1035.7 985.1 1034.5 967.3 1033.9 961 C 1033.4 954.7 1032.3 941.2 1031.5 931 C 1030.7 920.8 1029.5 907.3 1028.8 901 C 1027.8 892.6 1027.5 868.5 1027.5 812.5 C 1027.5 746.7 1027.8 732.9 1029.3 717.5 C 1030.2 707.6 1031.5 694.1 1032 687.5 C 1032.6 680.9 1034 665.8 1035 654 C 1036.1 642.2 1037.7 624.6 1038.5 615 C 1039.3 605.4 1040.2 595.7 1040.5 593.5 C 1040.8 591.3 1041.7 581.6 1042.5 572 C 1043.3 562.4 1044.9 545.3 1046.1 534 C 1047.3 522.7 1048.5 507.1 1048.7 499.3 L 1049.2 485.1 L 1055.3 484.6 C 1058.7 484.3 1067.1 483.8 1074 483.5 C 1090.2 482.8 1164 478.2 1170.5 477.5 C 1173.3 477.3 1203.4 476.6 1237.5 476 C 1308.5 474.7 1348 472.9 1369.5 469.9 C 1384.9 467.8 1408.8 463.3 1443 456 C 1460.9 452.2 1463.3 451.9 1472.5 452.4 C 1499.6 454 1553.6 458.5 1562.5 460 C 1565.8 460.5 1576.8 461.4 1587 462.1 L 1605.5 463.3 L 1608.8 459.3 C 1610.7 457.1 1616.3 449.5 1621.3 442.5 L 1630.5 429.7 L 1644.5 424.4 C 1655.2 420.5 1658.5 418.8 1658.7 417.4 C 1658.8 416.1 1653.9 411 1643.4 401.5 C 1634.8 393.8 1626.6 386.5 1625 385.3 C 1622 382.9 1623.5 383 1581 380 C 1572.5 379.4 1557.5 378.3 1547.7 377.5 C 1523 375.4 1519.1 375.6 1501.8 379 C 1466.3 386 1475.1 385.7 1380.5 382.9 C 1342.2 381.8 1311.3 382.2 1296.5 384 C 1292.1 384.6 1282.7 385.7 1275.5 386.5 C 1257.7 388.5 1221.2 393.3 1200 396.4 L 1190.5 397.8 L 1163 392.4 C 1138 387.5 1128.7 385.7 1106 381.5 C 1095.1 379.4 1052.8 372.5 1036.5 370 C 1006.2 365.5 1002.4 364.9 998.5 364.4 C 996.3 364.1 993.5 363.4 992.3 362.8 C 988 360.7 964.4 328.7 958.4 316.9 C 950.7 301.7 951 294.2 960 266.5 L 963.6 255.5 L 987.1 255.5 C 1009.1 255.5 1010.7 255.4 1014.5 253.4 C 1016.7 252.2 1019.3 250.4 1020.2 249.3 C 1024.4 244.6 1027.8 233 1031.4 210.5 C 1033.8 195.3 1034.4 193.9 1043 183.4 C 1047.4 178 1052.2 171.2 1053.7 168.4 C 1056.3 163.3 1056.4 163 1054.9 159.8 C 1054 158 1051.2 154.3 1048.8 151.5 C 1037.4 138.9 1033 129.8 1033 119.1 C 1033 111.6 1033.8 109.2 1036.4 108.4 C 1043.6 106.2 1049.2 93.1 1049.4 78 C 1049.5 68.1 1047.9 62.7 1041.4 50 C 1030.7 29.2 1009.4 13.8 979.5 5.3 C 971.1 2.9 968.8 2.7 945.5 2.5 C 931.8 2.3 918.9 2.4 917 2.6 M 912.3 15.5 C 901.6 17.4 893.3 20.5 883.5 26.1 C 846.9 47.1 828.9 75.3 828.9 111.5 C 828.9 124.7 830.8 138.6 836 166.2 C 840.9 191.4 842.5 196.9 850.2 213.5 C 858.5 231.4 860.2 236.7 859.5 241.3 C 859.1 244.1 859.3 245.2 860.5 245.6 C 861.7 246.1 862 248.4 862 258.5 C 862 269.3 861.8 271 860 273 C 858.7 274.5 858.2 276 858.7 276.9 C 862 284.1 851.7 307.9 829.5 344 C 802 389 799 399.2 796.8 455.8 C 795.3 495.1 796.4 517 801 540 C 806.9 569.4 810 591.2 812.1 618.5 C 813.1 630.3 813.1 633.3 812 634 C 811 634.6 811.1 635.5 812.4 638.1 C 814.8 642.7 815.8 660.2 816.6 709 C 817.3 752.5 816.3 780.3 813 807.6 C 811.3 821.9 809.9 831 805.3 857.8 C 805 859.5 804.2 861 803.5 861 C 801.8 861 800.7 864 801.9 865.4 C 804.2 868.2 797.2 894 785.3 926.4 C 775.6 952.8 773.3 962.1 771.9 980.9 C 770.2 1003.8 772.1 1020.3 779.6 1048.2 C 784.2 1065.4 793.6 1091.9 800.4 1107.4 C 802.3 1111.7 802.7 1113.6 801.9 1114.1 C 800.3 1115 801.6 1118.1 803.8 1118.7 C 806.2 1119.3 826.7 1163.1 832.4 1179.9 C 844.9 1216.4 855.7 1272.6 862.9 1339.5 C 866.1 1369.1 866.4 1373 865.1 1373 C 863.6 1373 863.7 1376.7 865.3 1377.3 C 866.2 1377.6 866.5 1381.4 866.3 1392.7 C 866.1 1411.2 865.4 1416.4 854.2 1483 C 845.5 1534.2 844.2 1547.5 843 1594.6 C 841.7 1649.7 841.7 1747.4 843.1 1809 L 844.3 1860.5 L 840 1880 C 834.2 1906.8 831.6 1916.6 827.3 1927.9 C 819.6 1948.2 818.1 1960.2 822 1968.8 C 824.7 1974.7 829.6 1976.8 844.7 1978.2 C 857.9 1979.4 1026.2 1978.8 1029.3 1977.5 C 1030.6 1976.9 1031 1975.5 1031 1970.6 C 1031 1967.1 1030.5 1963.7 1029.8 1962.8 C 1029.1 1962 1016.1 1957.1 1001 1952 C 958.1 1937.6 938.4 1929.1 924.9 1919.1 C 919.4 1915 917.7 1913.1 914.3 1906.4 C 909.1 1896.5 904.8 1885.7 901.6 1874.6 L 899.1 1865.9 L 903.1 1838.7 C 905.2 1823.7 908.6 1800.5 910.6 1787 C 912.5 1773.5 915.7 1751.9 917.6 1739 C 919.5 1726.1 921.7 1710.8 922.5 1705 C 923.3 1699.2 924.9 1688.4 926 1681 C 927.1 1673.6 928.7 1662.8 929.5 1657 C 930.3 1651.2 932.1 1638.8 933.5 1629.5 C 934.9 1620.2 936.5 1609.1 937 1605 C 937.6 1600.9 938.4 1595 939 1592 C 939.9 1587 940.6 1581.8 944.5 1554 C 945.9 1544.4 946.8 1537.7 953.9 1489.5 C 969.8 1381 969.4 1383.3 971.3 1381.2 C 973.3 1379.1 973.5 1376.3 971.9 1375.8 C 971 1375.5 971.3 1371.4 972.9 1361 C 974.1 1353 976 1340.9 977 1334 C 978 1327.1 980.9 1308 983.4 1291.5 C 986 1275 989.6 1251.2 991.5 1238.5 C 993.5 1225.8 995.9 1209.9 997 1203 C 998.1 1196.1 1001.2 1174.5 1004 1155 C 1007.7 1128.8 1009.4 1119.3 1010.5 1118.7 C 1012.3 1117.7 1012.5 1114.3 1010.8 1113.8 C 1009.3 1113.3 1013 1085.3 1016.1 1073.8 C 1017.2 1069.8 1019.2 1062.2 1020.7 1057 C 1022.9 1049 1023.3 1044.7 1023.7 1029.4 C 1024.3 1009.2 1023.2 990.7 1017.1 919 C 1013.6 877.9 1013.5 874.4 1015.4 872.5 C 1017.5 870.4 1017.4 867.4 1015.3 866.1 C 1013.6 865.2 1013.5 861.3 1013.6 805.3 C 1013.7 745.2 1014.7 722.5 1019.1 682 C 1019.6 676.8 1020.7 665.6 1021.4 657.2 C 1022.4 646 1023.2 641.4 1024.4 640.1 C 1026.3 638 1026.5 634.3 1024.8 633.8 C 1023.6 633.4 1023.5 634.3 1028 584 C 1029.1 571.6 1030.4 556.1 1031 549.5 C 1031.6 542.9 1032.7 532.3 1033.5 526 C 1035.5 509.8 1036.3 492.1 1035.2 488.5 L 1034.4 485.5 L 988.9 485.8 C 939 486.2 908 485 887 481.9 C 861.1 478 848.6 471.8 838.6 457.7 C 828.7 443.8 822 426.2 822 414.3 C 822 407.1 825.2 397.2 829.6 390.9 C 833.7 384.9 842.7 377.2 851.9 371.6 C 872.2 359.4 891.2 356.6 936.5 359.4 C 950.8 360.3 964.9 361.3 967.8 361.6 L 973.2 362.3 L 966.7 353.9 C 957.6 342.1 949.7 329.6 944.9 319.6 C 941.1 311.7 940.7 310.3 940.3 300.5 C 939.8 291.3 939.9 289.7 941.5 288 C 943 286.3 943.1 285.6 942.1 283.7 C 941.1 281.7 941.7 279.2 946.4 265.1 C 949.4 256.1 952.7 248.2 953.6 247.6 C 954.5 246.9 955.3 245.3 955.4 243.9 C 955.5 241.1 955.8 241.1 973.2 242.9 C 991.7 244.8 1005.2 244.7 1008.5 242.6 C 1012.2 240.2 1014.8 233.8 1017.1 221.2 C 1023.2 188.1 1023.5 187.4 1034 174.7 C 1038.4 169.4 1042 164.6 1042 164 C 1042 163.4 1039.1 159.5 1035.5 155.2 C 1031.9 151 1027.3 144.3 1025.4 140.4 C 1021.9 133.4 1021.8 133 1021.8 121 C 1021.8 114.2 1022.4 105.1 1023.1 100.8 C 1025 89.2 1023.8 88.9 1014.8 98.2 C 1006.9 106.3 994.8 115 991.4 115 C 988.1 115 986.7 112.5 986.1 105.7 C 985.6 101 985.1 99.4 983.8 99.2 C 982.8 99 978.1 102.7 971.8 108.7 C 945.2 133.8 935.1 140.5 931 135.5 C 928.6 132.6 930.9 129.4 941.2 121.3 C 953.8 111.4 969.3 96.4 978.8 84.8 C 986.3 75.8 988.6 74.2 991.8 75.9 C 994.1 77.1 995 81 995 89 C 995 96 995.7 98 997.9 98 C 1000.3 98 1008.9 88.8 1014.9 79.8 C 1023 67.5 1026.6 68 1031.4 82 C 1033 86.4 1034.6 90 1035 90 C 1037.7 90 1037.7 72 1035 64.3 C 1032.6 57.5 1027.5 49.5 1021.1 42.7 C 1008.6 29.3 983.8 16.9 965.6 15 C 952.7 13.6 920.9 13.9 912.3 15.5 M 910.4 139.4 C 905.7 142.8 901.2 159.4 902.3 169.6 C 903.4 179.9 912.4 195.1 919.5 198.4 C 923 200.1 923.5 200.1 927.5 198.5 C 932 196.8 934.8 194.4 933.6 193.3 C 933.2 192.9 930.4 193.5 927.3 194.5 L 921.7 196.4 L 917.1 191.4 C 914.6 188.6 911.1 183.9 909.5 180.9 C 906.7 175.8 906.5 174.8 906.5 164.9 C 906.6 155.2 906.9 153.8 909.5 148.4 L 912.5 142.5 L 919.3 142.8 C 926.3 143.2 927.9 142.2 923.4 140.1 C 918.8 138.1 912.7 137.7 910.4 139.4 M 888.5 373 C 871 375.7 856.6 382.4 845.7 392.9 C 838.4 399.9 836.6 403.9 836.6 413.5 C 836.6 432.6 849.4 454.8 864.7 462 C 882.5 470.4 901.1 472.1 978.3 472 C 1011.8 472 1040.8 471.8 1042.8 471.5 C 1044.8 471.2 1059.3 470.5 1075 470 C 1090.7 469.4 1112.3 468.3 1123 467.5 C 1133.7 466.7 1147.9 465.9 1154.5 465.5 C 1161.1 465.2 1169.5 464.7 1173.3 464.4 C 1178.9 464 1180 464.1 1180 465.4 C 1180 467.4 1182.9 467.5 1183.6 465.6 C 1184.4 463.6 1194.8 463.1 1264 462 C 1345.3 460.6 1361 459.2 1417.5 447.4 C 1463.7 437.9 1459 438.3 1488.1 440.3 C 1502.1 441.3 1521.7 442.7 1531.8 443.5 L 1550 444.9 L 1591.7 429.6 C 1614.7 421.1 1633.6 413.8 1633.8 413.2 C 1634.2 412 1622.9 401 1617.8 397.5 C 1614.8 395.4 1612.3 395.1 1590.5 393.6 C 1577.3 392.6 1557.3 391.2 1546 390.4 C 1534.7 389.6 1523 389.1 1520 389.4 C 1517 389.7 1505.3 391.8 1494 394.1 C 1470.2 398.8 1469.3 398.9 1408 396.8 C 1336.6 394.3 1306.3 395.2 1263 401 C 1236.7 404.5 1225.6 406 1220 406.9 C 1196 410.9 1182 411.7 1182 409 C 1182 407.2 1178.2 405.9 1176.3 407.1 C 1174.9 407.9 1170.9 407.5 1159 405.1 C 1150.5 403.4 1133.8 400.2 1122 398 C 1110.2 395.8 1097.1 393.3 1093 392.5 C 1088.9 391.7 1078.3 389.9 1069.5 388.5 C 1060.7 387.1 1051 385.5 1048 385 C 1036.3 382.8 1013.3 380 984 377 C 967.2 375.2 950.1 373.4 946 373 C 936.9 371.9 895.5 372 888.5 373"
    stroke="none"
    fill="#100e0e"
    fill-rule="evenodd"
    
  /> 
</svg>
